<?xml version="1.0" encoding="utf-8"?>
<!-- Generator: Adobe Illustrator 26.2.1, SVG Export Plug-In . SVG Version: 6.00 Build 0)  -->
<svg version="1.1" id="Layer_1" xmlns="http://www.w3.org/2000/svg" xmlns:xlink="http://www.w3.org/1999/xlink" x="0px" y="0px"
	 viewBox="0 0 1500 1500" style="enable-background:new 0 0 1500 1500;" xml:space="preserve">
<style type="text/css">
	.st0{fill:#774B9D;}
	.st1{fill:#FFFFFF;}
</style>
<g>
	<path class="st0" d="M71.39,71.25c452.61,0,905.22,0,1357.83,0c0,452.61,0,905.22,0,1357.83c-452.61,0-905.22,0-1357.83,0
		C71.39,976.47,71.39,523.86,71.39,71.25z M556.85,911.08c-38.77,0-76.32,0-113.86,0c-0.07,0.66-0.15,1.31-0.22,1.96
		c2.79,0.56,5.58,1.17,8.38,1.67c12.64,2.27,18.62,8.53,15.15,19.3c-7.26,22.55-16.06,44.61-24.9,68.68
		c-1.92-3.45-2.73-4.63-3.27-5.93c-8.73-20.81-17.5-41.59-26.09-62.46c-5.19-12.61-1.72-18.06,12.03-19.77
		c3.13-0.39,6.2-1.2,9.31-1.82c-0.14-0.57-0.27-1.13-0.41-1.7c-26.36,0-52.73,0-79.09,0c0.73,1.96,1.66,3.03,2.69,3.14
		c15.23,1.7,22.62,11.57,28.11,24.81c12.4,29.9,25.67,59.43,38.48,89.15c1.02,2.38,2.56,5.87,1.6,7.53
		c-4.46,7.7-8.79,15.92-15.09,21.95c-3.38,3.23-10.65,3.11-16.14,3.03c-2.06-0.03-4.98-3.97-5.76-6.64
		c-0.56-1.92,1.28-6.18,2.93-6.73c2.59-0.87,6,0.29,8.93,1.05c1.21,0.31,2.11,1.83,3.23,2.88c3.59-6.62,1.46-12.04-5.23-14.22
		c-10.32-3.37-20.8,1.13-23.73,10.2c-3.43,10.61,1.8,22.04,12.33,24.81c13.29,3.49,25.96,1.77,36.84-7.55
		c12.06-10.33,18.15-24.47,24.19-38.55c13.45-31.35,26.48-62.89,40.17-94.13c2.21-5.03,6.23-9.95,10.69-13.16
		c8.33-6,18.07-5.87,27.21-1.67c7.96,3.66,7.84,11.36,7.83,18.86c-0.09,38.21-0.01,76.43-0.07,114.64
		c-0.02,12.53-3.65,16.53-15.93,18.44c-2.35,0.37-4.6,1.38-6.89,2.09c0.16,0.55,0.33,1.09,0.49,1.64c24.6,0,49.2,0,73.8,0
		c0.08-0.71,0.16-1.43,0.24-2.14c-3.5-0.59-7-1.22-10.51-1.75c-5.99-0.91-12.88-2.86-13.41-9.09c-1.14-13.47-0.35-27.09-0.35-41.39
		c0.95,1.22,1.57,1.95,2.11,2.75c17.67,26.02,58.48,24.73,78.22,3.77c20.25-21.51,23.7-66.41,6.72-93.13
		c-19.24-30.28-62.37-32.95-84.85-5.26c-1.48,1.82-3.09,3.52-5.88,6.69C556.85,924.47,556.85,917.79,556.85,911.08z M790.89,500.04
		c-0.01,0.59-0.01,1.17-0.02,1.76c0.8,0.41,1.58,1.14,2.39,1.18c17.65,0.77,20.38,8.35,20.32,25.78
		c-0.13,33.67-0.03,67.35-0.05,101.02c0,4.27,0.2,8.57-0.23,12.81c-1,9.92-4.59,13.54-14.49,15.37c-2.69,0.5-5.35,1.11-8.03,1.67
		c0.12,0.7,0.23,1.41,0.35,2.11c24.56,0,49.13,0,73.69,0c0.07-0.7,0.14-1.4,0.2-2.1c-3.77-0.59-7.54-1.21-11.32-1.78
		c-5.83-0.88-11.94-3.14-12.36-9.24c-0.92-13.27-0.28-26.65-0.28-42.02c1.05,2.06,1.33,2.76,1.74,3.39
		c18.03,27.78,67.3,26.15,85.05-4.87c14.96-26.14,14.42-53.08,2.17-80.17c-15.24-33.71-66.84-38.9-88.38-7.86
		c-0.91,1.31-1.23,3.02-1.83,4.54c-0.77-0.64-1.54-1.29-2.32-1.93c0-4.76-0.22-9.54,0.06-14.28c0.29-4.88-1.62-6.76-6.52-6.67
		c-11.81,0.21-23.62,0.04-35.43,0.15C794.03,498.91,792.46,499.64,790.89,500.04z M494.07,707.03c-0.14,0.81-0.29,1.62-0.43,2.43
		c2.24,0.48,4.46,1.1,6.72,1.41c11.11,1.53,16.03,6.7,16.07,18c0.12,39.69,0.12,79.38,0.01,119.07
		c-0.03,10.73-4.47,15.43-15.03,17.23c-2.61,0.44-5.13,1.41-7.69,2.13c0.15,0.6,0.3,1.19,0.46,1.79c24.61,0,49.22,0,73.83,0
		c0.09-0.7,0.17-1.39,0.26-2.09c-3.7-0.65-7.41-1.28-11.11-1.94c-5.91-1.04-12.54-2.73-13-9.44c-0.89-13.24-0.26-26.58-0.26-40.41
		c21.66,31.93,69.66,27.27,88.37-4.52c14.02-23.82,12.03-65.19-4.81-87.34c-19.41-25.53-59.48-26.49-80.26-1.94
		c-1.84,2.17-3.79,4.26-7.06,7.92c0-8.78,0-15.44,0-22.31C524.24,707.03,509.16,707.03,494.07,707.03z M1144.75,910.56
		c-0.17,0.71-0.34,1.42-0.51,2.13c1.93,0.57,3.82,1.36,5.79,1.67c13.48,2.15,16.89,5.77,16.94,19.15
		c0.11,27.15,0.1,54.31-0.02,81.46c-0.05,12.41-4.38,17.05-16.71,18.83c-2.05,0.3-4.06,0.93-6.09,1.41
		c0.14,0.64,0.29,1.28,0.43,1.92c23.89,0,47.78,0,71.67,0c0.08-0.75,0.16-1.51,0.25-2.26c-2.42-0.42-4.87-0.76-7.27-1.29
		c-6.56-1.44-12.3-3.58-14.75-11.05c-2.42-7.41,2.91-10.57,6.81-14.49c12.59-12.65,25.34-25.13,38.05-37.65
		c5.59-5.51,11.23-10.96,18.01-17.58c0,23.45,0.21,45.01-0.12,66.56c-0.11,6.96-4.22,11.63-11.37,13.12
		c-3.71,0.77-7.4,1.65-11.1,2.47c0.08,0.67,0.15,1.34,0.23,2.01c23.93,0,47.85,0,72.01,0c-0.34-1.26-0.37-2.08-0.61-2.14
		c-1.66-0.44-3.34-0.79-5.04-1.03c-12.77-1.82-17.06-6.56-17.08-19.3c-0.04-27.4-0.05-54.81,0.01-82.21
		c0.02-11.34,4.5-16.15,15.95-17.83c2.31-0.34,4.51-1.38,6.76-2.1c-0.17-0.53-0.35-1.05-0.52-1.58c-23.79,0-47.57,0-71.36,0
		c-0.12,0.64-0.24,1.28-0.35,1.92c2.88,0.64,5.78,1.24,8.64,1.93c5.75,1.39,10.86,3.37,13.23,9.73c2.43,6.53-2.61,9.22-5.91,12.54
		c-17.55,17.63-35.29,35.07-53.01,52.54c-0.92,0.91-2.21,1.45-3.9,2.54c0-21.22-0.26-41.57,0.11-61.91
		c0.18-9.71,4.93-13.93,15.08-15.56c2.51-0.4,4.93-1.38,7.39-2.09c-0.18-0.62-0.36-1.24-0.54-1.86
		C1192.16,910.56,1168.45,910.56,1144.75,910.56z M943.11,970.16c16.98-7.91,22.78-16.68,21.46-31.18
		c-1.24-13.65-10.64-23.5-26.24-27.2c-3.63-0.86-7.4-1.57-11.12-1.58c-29.14-0.13-58.29-0.09-87.44-0.05
		c-2.06,0-4.12,0.41-6.17,0.63c-0.08,0.61-0.17,1.22-0.25,1.83c1.91,0.61,3.78,1.46,5.74,1.79c13.68,2.32,16.93,6,16.95,19.93
		c0.05,26.63,0.06,53.27,0.01,79.9c-0.03,13.19-4.37,17.93-17.5,19.64c-1.79,0.23-3.52,0.92-5.27,1.4c0.11,0.78,0.22,1.55,0.32,2.33
		c2.58,0.16,5.16,0.45,7.74,0.45c20.85,0.05,41.71,0.2,62.56,0c12.03-0.11,24.14-0.09,36.07-1.38
		c16.73-1.81,26.99-11.91,29.03-26.82c2.39-17.48-4.38-29.87-20.28-37.12C947.18,972.02,945.64,971.31,943.11,970.16z
		 M752.65,1040.49c34.46-0.03,66.45-20.81,67.85-62.44c0.55-16.29-1.62-32-12.02-45.54c-22.99-29.94-73.44-33.13-101.98-10.5
		c-24.7,19.59-26.4,46.25-19.75,73.96C693.3,1023.25,720.45,1040.69,752.65,1040.49z M994.4,973.78
		c-1.93,41.48,29.43,67.05,68.57,66.78c39.35-0.27,69.45-26.4,67.83-69.38c-1.45-38.51-28.15-64.56-69.29-63.88
		C1025.19,907.9,992.49,929.73,994.4,973.78z M541.3,528.71c-0.19,1.07-0.55,1.98-0.48,2.85c0.52,6.41-3.01,8.7-8.72,8.27
		c-5.8-0.44-7.4-4.37-7.05-9.55c0.45-6.62,4.45-10.52,10.25-12.66c12.28-4.52,24.97-5.49,37.86-3.44
		c14.8,2.36,21.31,9.97,20.4,24.67c-0.17,2.66-2.87,6.58-5.28,7.41c-6.83,2.38-14.12,3.39-21.2,5.07
		c-12.89,3.06-26.11,5.19-38.53,9.58c-15.31,5.42-23.55,20.26-22.49,36.52c0.96,14.8,9.78,25.92,24.68,29.63
		c24.06,5.99,45.38,1.86,61.59-18.59c0.92-1.16,1.34-2.71,2.43-5c8.82,21.17,31.08,30.15,49.34,20.75
		c-3.27-0.85-5.54-1.66-7.87-2.01c-7.92-1.2-12.68-5.82-14.31-13.46c-0.88-4.14-1.36-8.44-1.39-12.68
		c-0.15-19.36,0.12-38.72-0.16-58.07c-0.23-15.83-6.64-28.98-21.7-34.88c-25.11-9.83-50.66-9.92-74.87,3.12
		c-5.24,2.82-9.66,8.96-12.17,14.59c-3.49,7.86-2.98,16.34,4.22,22.84c6.04,5.46,16.62,6.62,24.03,2.74
		C547.85,542.25,548.72,533.74,541.3,528.71z M215.57,910.81c-0.13,0.63-0.26,1.27-0.38,1.9c2.1,0.62,4.17,1.48,6.31,1.84
		c13.31,2.22,18.42,7.22,17.73,20.57c-1.11,21.53-2.72,43.08-5.22,64.49c-2.11,18.06-10.16,32.04-30.5,34.61
		c-0.19,0.02-0.35,0.31-0.6,0.54c0,14.64,0,29.33,0,45.27c4.23-9.78,7.55-18.35,11.6-26.56c5.13-10.4,13.82-15.43,25.52-15.38
		c21.1,0.08,42.21,0.17,63.31-0.06c8.23-0.09,15.4,2.64,19.48,9.31c5.15,8.44,8.63,17.91,12.89,26.91c1.05,2.23,2.31,4.37,3.47,6.55
		c0.62-0.3,1.23-0.6,1.84-0.9c0-15.16,0-30.32,0-45.39c-19.83-2.74-22.3-5.59-22.29-25.05c0.02-25.88-0.02-51.75,0.05-77.63
		c0.03-10.5,4.64-15.64,14.91-17.28c2.62-0.42,5.16-1.3,7.74-1.97c-0.14-0.59-0.28-1.18-0.43-1.77
		C299.18,910.81,257.37,910.81,215.57,910.81z M382.88,565.54c32.47,0,64.54,0,96.53,0c3.17-40.45-24.83-76.49-75.87-67.68
		c-35.41,6.11-52.83,35.24-52.22,67.43c0.4,20.79,6.88,39.57,25.02,52.28c14.49,10.15,30.96,12.69,48.09,11.78
		c27.75-1.47,46.95-16.99,53.43-42.77c0.66-2.64,0.61-5.45,0.89-8.18c-0.68-0.28-1.35-0.55-2.03-0.83
		c-4.77,13.93-12.53,25.12-26.23,31.12c-13.73,6.01-27.74,6.89-41.74,1.78C390.63,603.84,380.85,586.94,382.88,565.54z
		 M480.54,772.53c-0.61-5.84-1.01-10.74-1.65-15.62c-3.21-24.67-16-42.36-39.9-49.78c-24.55-7.63-48.13-4.08-67.32,14
		c-19.41,18.29-23.66,41.69-18.38,67.15c4.95,23.86,19.33,39.16,42.79,45.63c5.75,1.58,11.79,2.68,17.74,2.94
		c30.62,1.34,56.66-11.85,64.23-43.55c0.6-2.52,0.3-5.26,0.42-7.9c-18.67,31.66-43.08,43.17-70.15,32.52
		c-17.94-7.06-29.28-27.3-24.72-45.37C415.41,772.53,447.43,772.53,480.54,772.53z M796.85,772.71
		c-0.08-19.48-4.11-36.24-16.66-49.91c-31.28-34.09-93.48-20.94-108.11,22.91c-2.2,6.59-3.7,13.67-3.99,20.59
		c-1.05,24.96,5.84,48.9,30.26,61.93c16.7,8.91,34.66,10.95,53.3,6.85c23.25-5.11,37.14-19.58,43.03-42.23
		c0.61-2.36,0.45-4.93,0.65-7.4c-0.6-0.19-1.21-0.38-1.81-0.57c-5.2,13.95-13.32,25.41-27.14,31.46c-13.7,6-28.04,6.17-41.94,1.42
		c-17.31-5.91-27.68-25.35-24.6-45.05C731.72,772.71,763.75,772.71,796.85,772.71z M910,766.32c1.72-1.04,2.92-1.83,4.17-2.52
		c13.63-7.59,18.76-21.22,13.48-35.8c-4.37-12.07-13.97-18.36-25.56-21.24c-22.9-5.68-45.23-4.77-65.98,9.06
		c-3.11-4.35-6.07-8.49-9.02-12.62c-0.49,0.35-0.99,0.7-1.48,1.05c0,17.28,0,34.56,0,51.84c0.69,0.13,1.39,0.26,2.08,0.39
		c0.85-2.17,1.7-4.34,2.55-6.51c7.18-18.5,20.15-30.16,40.33-31.03c7.03-0.3,15.03,1.99,21.15,5.55c7.56,4.41,9.29,14.19,6.39,22.85
		c-3.34,9.97-11.78,12.35-20.81,13.3c-4.87,0.51-9.83,0.09-14.56,0.09c-1.78,13.25-1.78,13.21,9.62,13.3
		c3.76,0.03,7.56,0.05,11.27,0.55c13.02,1.76,20.37,8.81,20.89,19.74c0.61,12.92-6.1,23.26-18.95,25.01
		c-10.72,1.46-22.07,1.09-32.7-0.88c-5.55-1.03-10.87-6.63-14.83-11.39c-1.88-2.25-1.12-7.63,0.05-11.05
		c0.48-1.42,6.36-2.86,7.63-1.77c2.38,2.04,3.22,5.91,4.66,9.03c0.29,0.63,0.4,1.33,0.6,2.02c9.11-3.26,10.96-14.09,3.71-20.79
		c-10.65-9.85-29.67-4.64-33.79,9.26c-4.17,14.08,2.27,29.12,16.99,35.37c9.27,3.94,19.57,6.32,29.62,7.37
		c16.34,1.72,32.73,0.05,47.83-7c13.69-6.39,21-17.48,20.46-33.07c-0.51-14.74-8.89-23.37-21.94-28.43
		C912.71,767.58,911.61,767.03,910,766.32z M949.93,707.22c-0.12,0.59-0.25,1.17-0.37,1.76c1.64,0.59,3.24,1.45,4.93,1.73
		c14.81,2.44,17.84,5.83,17.86,20.67c0.04,26.12,0.05,52.25,0,78.37c-0.03,14.18-3.72,18.38-17.47,20.43
		c-1.8,0.27-3.51,1.04-5.27,1.58c0.1,0.65,0.21,1.3,0.31,1.95c1.86,0.27,3.73,0.77,5.59,0.77c29.64,0.04,59.28,0.23,88.92-0.15
		c6.65-0.09,13.53-1.47,19.85-3.61c11.91-4.03,18.96-12.89,20.78-25.37c3.61-24.77-11.64-43.32-37.11-44.43
		c-15.97-0.7-31.99-0.13-48.86-0.13c0-12.03-0.08-22.25,0.02-32.47c0.11-10.89,4.72-15.89,15.59-17.43
		c2.41-0.34,4.77-1.06,7.16-1.61c-0.12-0.68-0.25-1.37-0.37-2.05C997.64,707.22,973.79,707.22,949.93,707.22z M328.85,754.9
		c0.79-0.11,1.58-0.22,2.37-0.34c0-15.73,0-31.45,0-47.55c-42.8,0-85.59,0-129.12,0c0.08,16.16-0.75,31.77,1.73,47.37
		c2.02-2.76,2.74-5.59,3.37-8.43c3.07-13.84,10.99-22.27,23.47-24.1c5.69-0.84,11.53-0.59,17.29-0.99c4.28-0.3,5.76,1.59,5.64,5.77
		c-0.22,7.53-0.05,15.08-0.05,22.62c-0.01,20.11,0.09,40.21-0.07,60.32c-0.11,14.47-4.15,18.78-18.35,20.59
		c-2.2,0.28-4.36,0.81-6.55,1.22c0.08,0.74,0.17,1.48,0.25,2.22c25.31,0,50.62,0,75.93,0c-0.99-2.16-2.31-3.08-3.73-3.3
		c-18.36-2.9-20.96-5.8-21.01-24.32c-0.07-25.64-0.04-51.27-0.03-76.91c0-2.44,0.21-4.88,0.41-9.37
		c10.91,1.58,21.47,1.53,30.84,4.84C324.46,729.22,324.9,743.53,328.85,754.9z M748,626.24c0.14-0.76,0.29-1.52,0.43-2.28
		c-2.55-0.6-5.07-1.4-7.65-1.77c-12.92-1.85-16.88-5.99-17.38-19.15c-0.29-7.78-0.08-15.58-0.08-23.36c0-21.56,0-43.12,0-66.69
		c10.6,1.21,20.75,1.16,30.17,3.73c15.04,4.11,14.59,19.71,20.35,31.15c1.34-2.45,1.85-4.7,1.86-6.94
		c0.08-11.56-0.24-23.12,0.14-34.67c0.18-5.66-1.79-7.37-7.33-7.35c-38.94,0.17-77.89,0.16-116.83-0.02c-5.07-0.02-6.5,1.8-6.41,6.6
		c0.23,12.06,0.01,24.12,0.09,36.18c0.01,2,0.63,3.99,0.97,5.99c0.81,0.18,1.62,0.36,2.43,0.54c3.45-10.73,3.74-23.4,14.74-29.69
		c10.53-6.02,22.13-4.59,33.98-4.39c0,30.65,0.11,60.28-0.05,89.9c-0.06,12.14-4.25,16.37-16.46,18.19
		c-2.79,0.41-5.47,1.49-8.2,2.26c0.17,0.59,0.34,1.18,0.51,1.77C698.18,626.24,723.09,626.24,748,626.24z M203.41,547.88
		c0.58-0.12,1.16-0.23,1.73-0.35c0.7-3.01,1.27-6.05,2.12-9.02c3.34-11.66,8.52-21.78,22.24-23.5c6.22-0.78,12.54-1.18,18.78-0.98
		c1.79,0.06,5.01,2.8,5.02,4.33c0.22,29.41,0.34,58.82-0.19,88.22c-0.19,10.25-4.56,13.81-14.95,15.52
		c-3.17,0.52-6.29,1.39-9.44,2.1c0.13,0.6,0.25,1.19,0.38,1.79c25.17,0,50.34,0,75.51,0c0.12-0.66,0.23-1.31,0.35-1.97
		c-2.73-0.63-5.42-1.44-8.18-1.85c-12.21-1.82-16.37-5.33-16.56-17.33c-0.47-28.65-0.26-57.32-0.1-85.97
		c0.01-1.65,1.72-4.39,3.13-4.77c20.97-5.65,38.26,4.88,43.3,26.01c0.64,2.67,1.62,5.26,2.44,7.89c0.77-0.1,1.53-0.19,2.3-0.29
		c0.28-2.03,0.8-4.06,0.81-6.1c0.08-11.82-0.22-23.64,0.15-35.44c0.18-5.63-1.64-7.44-7.28-7.34c-17.09,0.32-34.19,0.15-51.28,0.16
		c-21.37,0.01-42.74-0.12-64.1,0.18c-2.51,0.04-7.1,2.41-7.14,3.81c-0.43,14.3-0.14,28.63,0.02,42.94
		C202.48,546.57,203.08,547.22,203.41,547.88z M1085.83,707.2c-0.11,0.66-0.22,1.32-0.33,1.98c2.65,0.59,5.27,1.33,7.94,1.74
		c10.14,1.56,14.69,5.99,14.75,15.7c0.16,29.37,0.15,58.75-0.02,88.13c-0.05,9.17-4.32,13.65-13.38,15.33
		c-2.17,0.4-4.34,0.84-6.51,1.25c0.09,0.74,0.18,1.49,0.27,2.23c22.97,0,45.94,0,68.92,0c0.1-0.67,0.21-1.34,0.31-2.01
		c-1.65-0.46-3.28-1.11-4.97-1.35c-13.57-1.92-17.81-6.58-17.85-20.27c-0.07-26.61-0.08-53.23,0.02-79.84
		c0.05-12.79,4.37-17.4,17.11-19.31c1.94-0.29,3.75-1.45,5.63-2.2c-0.19-0.46-0.38-0.92-0.58-1.38
		C1133.37,707.2,1109.6,707.2,1085.83,707.2z M1196.42,856.29c-8.23,2.21-13.73,7.72-14.57,15.45c-1.08,9.85,2.4,19.7,10.47,22.15
		c22.2,6.73,44.94,7.04,67.08-0.22c8.32-2.73,11.92-14.28,9.77-23.88c-1.64-7.31-8-12.65-14.03-13.11
		c0.51,4.57,2.95,10.47,1.03,13.98c-1.82,3.33-8.13,5.53-12.62,5.82c-11.99,0.77-24.09,0.78-36.07-0.03
		c-4.43-0.3-10.68-2.7-12.42-6.06C1193.22,866.84,1195.79,861.03,1196.42,856.29z"/>
	<path class="st1" d="M556.85,911.08c0,6.71,0,13.38,0,21.96c2.8-3.17,4.41-4.88,5.88-6.69c22.48-27.69,65.61-25.02,84.85,5.26
		c16.98,26.72,13.53,71.63-6.72,93.13c-19.73,20.96-60.54,22.24-78.22-3.77c-0.54-0.79-1.16-1.52-2.11-2.75
		c0,14.3-0.79,27.93,0.35,41.39c0.53,6.23,7.41,8.18,13.41,9.09c3.51,0.53,7.01,1.16,10.51,1.75c-0.08,0.71-0.16,1.43-0.24,2.14
		c-24.6,0-49.2,0-73.8,0c-0.16-0.55-0.33-1.09-0.49-1.64c2.29-0.71,4.54-1.72,6.89-2.09c12.28-1.92,15.91-5.91,15.93-18.44
		c0.06-38.21-0.02-76.43,0.07-114.64c0.02-7.5,0.13-15.2-7.83-18.86c-9.14-4.21-18.89-4.33-27.21,1.67
		c-4.46,3.21-8.48,8.13-10.69,13.16c-13.69,31.24-26.73,62.78-40.17,94.13c-6.04,14.08-12.12,28.22-24.19,38.55
		c-10.88,9.32-23.55,11.04-36.84,7.55c-10.53-2.76-15.76-14.2-12.33-24.81c2.93-9.06,13.4-13.56,23.73-10.2
		c6.69,2.18,8.82,7.6,5.23,14.22c-1.12-1.05-2.02-2.57-3.23-2.88c-2.94-0.76-6.34-1.92-8.93-1.05c-1.66,0.56-3.5,4.81-2.93,6.73
		c0.78,2.67,3.71,6.61,5.76,6.64c5.49,0.08,12.77,0.2,16.14-3.03c6.3-6.03,10.62-14.25,15.09-21.95c0.96-1.66-0.57-5.16-1.6-7.53
		c-12.81-29.73-26.08-59.26-38.48-89.15c-5.49-13.25-12.89-23.11-28.11-24.81c-1.03-0.12-1.96-1.18-2.69-3.14
		c26.36,0,52.73,0,79.09,0c0.14,0.57,0.27,1.13,0.41,1.7c-3.1,0.62-6.18,1.43-9.31,1.82c-13.76,1.72-17.22,7.16-12.03,19.77
		c8.58,20.87,17.36,41.65,26.09,62.46c0.54,1.29,1.35,2.47,3.27,5.93c8.84-24.07,17.64-46.13,24.9-68.68
		c3.47-10.77-2.51-17.02-15.15-19.3c-2.8-0.5-5.59-1.11-8.38-1.67c0.07-0.65,0.15-1.31,0.22-1.96
		C480.53,911.08,518.07,911.08,556.85,911.08z M628.16,973.96c0.68-0.19,1.36-0.38,2.05-0.58c-3.08-10.42-4.78-21.52-9.51-31.12
		c-10.4-21.09-37.38-22.64-51.54-3.81c-6.92,9.21-9.31,19.82-9.67,31.05c-0.47,14.87,1.74,29.04,11.42,41.07
		c13.67,16.98,38.44,15.28,49.46-3.42C626.37,996.93,628.71,985.76,628.16,973.96z"/>
	<path class="st1" d="M790.89,500.04c1.57-0.4,3.14-1.14,4.72-1.15c11.81-0.11,23.62,0.06,35.43-0.15c4.9-0.09,6.81,1.79,6.52,6.67
		c-0.28,4.75-0.06,9.52-0.06,14.28c0.77,0.64,1.54,1.29,2.32,1.93c0.6-1.52,0.92-3.24,1.83-4.54c21.53-31.05,73.14-25.86,88.38,7.86
		c12.25,27.1,12.78,54.04-2.17,80.17c-17.75,31.02-67.02,32.65-85.05,4.87c-0.41-0.63-0.69-1.33-1.74-3.39
		c0,15.37-0.64,28.75,0.28,42.02c0.42,6.1,6.54,8.36,12.36,9.24c3.78,0.57,7.55,1.18,11.32,1.78c-0.07,0.7-0.14,1.4-0.2,2.1
		c-24.56,0-49.13,0-73.69,0c-0.12-0.7-0.23-1.41-0.35-2.11c2.68-0.56,5.34-1.18,8.03-1.67c9.9-1.83,13.49-5.44,14.49-15.37
		c0.43-4.23,0.23-8.53,0.23-12.81c0.01-33.67-0.08-67.35,0.05-101.02c0.07-17.43-2.67-25.01-20.32-25.78
		c-0.81-0.04-1.59-0.77-2.39-1.18C790.88,501.21,790.88,500.63,790.89,500.04z M838.74,562.63c2.13,9.22,3.23,18.83,6.63,27.55
		c4.77,12.23,14.31,20.16,27.86,21.02c11.58,0.74,21.54-3.91,27.04-14.37c11.37-21.65,11.44-44.18,0.7-65.87
		c-9.62-19.43-35.71-21.61-50.04-5.29C841.62,536.27,840.23,549.1,838.74,562.63z"/>
	<path class="st1" d="M494.07,707.03c15.08,0,30.17,0,46.05,0c0,6.87,0,13.53,0,22.31c3.27-3.66,5.22-5.75,7.06-7.92
		c20.78-24.55,60.85-23.59,80.26,1.94c16.84,22.15,18.83,63.52,4.81,87.34c-18.71,31.79-66.71,36.45-88.37,4.52
		c0,13.83-0.63,27.17,0.26,40.41c0.45,6.71,7.09,8.39,13,9.44c3.7,0.65,7.41,1.29,11.11,1.94c-0.09,0.7-0.17,1.39-0.26,2.09
		c-24.61,0-49.22,0-73.83,0c-0.15-0.6-0.3-1.19-0.46-1.79c2.56-0.72,5.08-1.69,7.69-2.13c10.56-1.8,15-6.5,15.03-17.23
		c0.11-39.69,0.11-79.38-0.01-119.07c-0.04-11.31-4.96-16.47-16.07-18c-2.26-0.31-4.48-0.93-6.72-1.41
		C493.78,708.65,493.93,707.84,494.07,707.03z M542.88,766.58c0.06,17.86,2.55,32.16,14.06,43.39
		c14.23,13.88,37.63,11.01,46.73-6.62c11.18-21.65,11.04-44.12-0.1-65.72c-9.32-18.07-33.51-20.9-47.96-6.49
		C545.01,741.72,542.93,755.15,542.88,766.58z"/>
	<path class="st1" d="M1144.75,910.56c23.7,0,47.4,0,71.11,0c0.18,0.62,0.36,1.24,0.54,1.86c-2.46,0.71-4.88,1.69-7.39,2.09
		c-10.15,1.63-14.9,5.85-15.08,15.56c-0.37,20.34-0.11,40.69-0.11,61.91c1.7-1.09,2.98-1.63,3.9-2.54
		c17.72-17.47,35.46-34.91,53.01-52.54c3.31-3.32,8.35-6.01,5.91-12.54c-2.37-6.36-7.48-8.34-13.23-9.73
		c-2.87-0.7-5.76-1.29-8.64-1.93c0.12-0.64,0.24-1.28,0.35-1.92c23.79,0,47.57,0,71.36,0c0.17,0.53,0.35,1.05,0.52,1.58
		c-2.25,0.72-4.46,1.76-6.76,2.1c-11.46,1.68-15.93,6.49-15.95,17.83c-0.05,27.4-0.05,54.81-0.01,82.21
		c0.02,12.74,4.31,17.49,17.08,19.3c1.7,0.24,3.38,0.6,5.04,1.03c0.23,0.06,0.27,0.88,0.61,2.14c-24.16,0-48.08,0-72.01,0
		c-0.08-0.67-0.15-1.34-0.23-2.01c3.7-0.83,7.39-1.7,11.1-2.47c7.15-1.49,11.26-6.16,11.37-13.12c0.34-21.55,0.12-43.11,0.12-66.56
		c-6.79,6.62-12.43,12.07-18.01,17.58c-12.71,12.52-25.46,25-38.05,37.65c-3.9,3.92-9.23,7.08-6.81,14.49
		c2.44,7.47,8.19,9.6,14.75,11.05c2.4,0.53,4.84,0.87,7.27,1.29c-0.08,0.75-0.16,1.51-0.25,2.26c-23.89,0-47.78,0-71.67,0
		c-0.14-0.64-0.29-1.28-0.43-1.92c2.03-0.48,4.03-1.11,6.09-1.41c12.33-1.78,16.66-6.42,16.71-18.83
		c0.12-27.15,0.13-54.31,0.02-81.46c-0.05-13.38-3.46-17.01-16.94-19.15c-1.97-0.31-3.86-1.1-5.79-1.67
		C1144.41,911.98,1144.58,911.27,1144.75,910.56z"/>
	<path class="st1" d="M943.11,970.16c2.53,1.16,4.07,1.87,5.61,2.57c15.9,7.24,22.67,19.64,20.28,37.12
		c-2.04,14.91-12.3,25.01-29.03,26.82c-11.94,1.29-24.04,1.27-36.07,1.38c-20.85,0.19-41.71,0.05-62.56,0
		c-2.58-0.01-5.16-0.3-7.74-0.45c-0.11-0.78-0.22-1.55-0.32-2.33c1.76-0.48,3.49-1.17,5.27-1.4c13.13-1.71,17.48-6.45,17.5-19.64
		c0.05-26.63,0.04-53.27-0.01-79.9c-0.03-13.93-3.27-17.62-16.95-19.93c-1.96-0.33-3.83-1.18-5.74-1.79
		c0.08-0.61,0.17-1.22,0.25-1.83c2.06-0.22,4.12-0.62,6.17-0.63c29.15-0.04,58.29-0.08,87.44,0.05c3.71,0.02,7.48,0.72,11.12,1.58
		c15.6,3.7,25,13.55,26.24,27.2C965.89,953.48,960.09,962.24,943.11,970.16z M883.03,1024.42c13.67,0,26.44,0.35,39.17-0.11
		c10.04-0.36,16.89-7.25,18.12-16.89c1.64-12.94-2.74-24.2-12.69-25.81c-14.58-2.35-29.59-2.12-44.6-2.99
		C883.03,994.97,883.03,1009.22,883.03,1024.42z M882.7,965.72c12.25,0,23.78,0.85,35.13-0.23c12.3-1.16,17.95-8.76,17.83-20.97
		c-0.11-11.6-6.74-19.71-18.53-20.6c-11.12-0.84-22.35-0.18-33.95-0.18c-0.18,2.66-0.45,4.85-0.46,7.05
		C882.68,942.25,882.7,953.7,882.7,965.72z"/>
	<path class="st1" d="M752.65,1040.49c-32.2,0.21-59.35-17.24-65.89-44.52c-6.65-27.71-4.96-54.37,19.75-73.96
		c28.55-22.63,78.99-19.44,101.98,10.5c10.4,13.54,12.57,29.25,12.02,45.54C819.1,1019.67,787.11,1040.46,752.65,1040.49z
		 M790.29,974.38c-0.86-7.32-1.13-13.88-2.47-20.21c-3.75-17.65-17.73-28.79-35.45-28.82c-17.99-0.03-32.22,10.59-35.26,28.59
		c-1.94,11.48-2.36,23.6-1.06,35.17c2.27,20.18,15.31,32.03,33.81,33.25c18.07,1.19,32.37-8.86,37.4-27.19
		C789.15,988.24,789.39,980.87,790.29,974.38z"/>
	<path class="st1" d="M994.4,973.78c-1.91-44.05,30.79-65.88,67.11-66.48c41.14-0.68,67.84,25.37,69.29,63.88
		c1.62,42.98-28.48,69.11-67.83,69.38C1023.83,1040.83,992.47,1015.26,994.4,973.78z M1024.3,972.98
		c0.71,6.43,1.05,12.21,2.04,17.87c3.34,19.07,16.45,30.85,34.72,31.49c18.59,0.65,32.99-9.54,36.32-28.98
		c2.2-12.8,2.09-26.56-0.01-39.4c-3-18.42-17.13-28.63-35.16-28.61c-17.5,0.02-30.71,10.36-35.08,28.16
		C1025.54,960.03,1025.16,966.85,1024.3,972.98z"/>
	<path class="st1" d="M541.3,528.71c7.43,5.03,6.55,13.54-1.42,17.71c-7.41,3.88-17.99,2.72-24.03-2.74
		c-7.2-6.51-7.71-14.99-4.22-22.84c2.51-5.63,6.93-11.77,12.17-14.59c24.21-13.04,49.76-12.95,74.87-3.12
		c15.06,5.9,21.47,19.05,21.7,34.88c0.29,19.35,0.01,38.72,0.16,58.07c0.03,4.23,0.51,8.54,1.39,12.68
		c1.63,7.64,6.39,12.26,14.31,13.46c2.33,0.35,4.6,1.16,7.87,2.01c-18.26,9.4-40.52,0.42-49.34-20.75c-1.1,2.3-1.52,3.85-2.43,5
		c-16.21,20.44-37.53,24.57-61.59,18.59c-14.91-3.71-23.72-14.83-24.68-29.63c-1.06-16.26,7.18-31.1,22.49-36.52
		c12.42-4.39,25.65-6.52,38.53-9.58c7.08-1.68,14.37-2.69,21.2-5.07c2.4-0.84,5.11-4.75,5.28-7.41c0.92-14.7-5.59-22.31-20.4-24.67
		c-12.88-2.05-25.58-1.08-37.86,3.44c-5.8,2.14-9.8,6.04-10.25,12.66c-0.35,5.18,1.24,9.11,7.05,9.55c5.71,0.43,9.24-1.86,8.72-8.27
		C540.75,530.69,541.1,529.78,541.3,528.71z M593.43,558.22c-8.85,2.43-17.25,4.68-25.61,7.03c-7.21,2.03-14.63,3.58-21.52,6.41
		c-7.85,3.22-12.52,12.74-11.54,21.01c1.06,8.85,6.36,14.65,16.06,16.32c12.65,2.18,23.9-1.17,32.92-10.49
		C594.84,587.05,594.18,572.73,593.43,558.22z"/>
	<path class="st1" d="M215.57,910.81c41.8,0,83.61,0,125.41,0c0.14,0.59,0.28,1.18,0.43,1.77c-2.58,0.67-5.12,1.55-7.74,1.97
		c-10.28,1.65-14.88,6.79-14.91,17.28c-0.07,25.88-0.03,51.75-0.05,77.63c-0.01,19.46,2.45,22.31,22.29,25.05
		c0,15.07,0,30.23,0,45.39c-0.61,0.3-1.23,0.6-1.84,0.9c-1.16-2.18-2.41-4.32-3.47-6.55c-4.25-9-7.73-18.46-12.89-26.91
		c-4.08-6.68-11.24-9.4-19.48-9.31c-21.1,0.23-42.2,0.14-63.31,0.06c-11.7-0.05-20.39,4.98-25.52,15.38
		c-4.05,8.21-7.37,16.78-11.6,26.56c0-15.94,0-30.63,0-45.27c0.25-0.23,0.41-0.52,0.6-0.54c20.34-2.57,28.39-16.55,30.5-34.61
		c2.5-21.41,4.11-42.96,5.22-64.49c0.69-13.35-4.41-18.35-17.73-20.57c-2.15-0.36-4.21-1.21-6.31-1.84
		C215.31,912.08,215.44,911.45,215.57,910.81z M291.76,925.32c-12.03,0-23.19,0-34.8,0c-2.15,33.01-1.57,65.88-12.35,97.51
		c16.47,0,31.66,0,47.15,0C291.76,990.17,291.76,958.1,291.76,925.32z"/>
	<path class="st1" d="M382.88,565.54c-2.03,21.4,7.75,38.31,25.86,44.92c14,5.11,28.02,4.23,41.74-1.78
		c13.7-6,21.47-17.19,26.23-31.12c0.68,0.28,1.35,0.55,2.03,0.83c-0.28,2.73-0.23,5.55-0.89,8.18
		c-6.48,25.79-25.68,41.3-53.43,42.77c-17.13,0.91-33.6-1.63-48.09-11.78c-18.14-12.71-24.62-31.49-25.02-52.28
		c-0.61-32.19,16.81-61.31,52.22-67.43c51.04-8.81,79.04,27.23,75.87,67.68C447.42,565.54,415.36,565.54,382.88,565.54z
		 M382.74,549.11c22.64,0,44.85,0,67.01,0c1.95-17.87-10.41-34.27-26.78-36.07C399.83,510.5,385.07,523.38,382.74,549.11z"/>
	<path class="st1" d="M480.54,772.53c-33.11,0-65.14,0-96.94,0c-4.55,18.07,6.79,38.31,24.72,45.37
		c27.07,10.65,51.48-0.86,70.15-32.52c-0.12,2.64,0.18,5.38-0.42,7.9c-7.57,31.71-33.61,44.89-64.23,43.55
		c-5.95-0.26-11.98-1.36-17.74-2.94c-23.47-6.46-37.85-21.77-42.79-45.63c-5.28-25.46-1.03-48.86,18.38-67.15
		c19.19-18.08,42.77-21.63,67.32-14c23.89,7.43,36.69,25.11,39.9,49.78C479.53,761.78,479.93,766.69,480.54,772.53z M450.49,756.21
		c-1.21-23.59-14.3-37.12-34.34-36.37c-19.55,0.74-33.62,16.16-32.83,36.37C405.53,756.21,427.77,756.21,450.49,756.21z"/>
	<path class="st1" d="M796.85,772.71c-33.1,0-65.13,0-97.01,0c-3.07,19.7,7.29,39.13,24.6,45.05c13.9,4.75,28.24,4.58,41.94-1.42
		c13.82-6.05,21.94-17.51,27.14-31.46c0.6,0.19,1.21,0.38,1.81,0.57c-0.2,2.47-0.04,5.04-0.65,7.4
		c-5.88,22.65-19.78,37.13-43.03,42.23c-18.64,4.09-36.6,2.06-53.3-6.85c-24.42-13.03-31.31-36.97-30.26-61.93
		c0.29-6.92,1.79-14,3.99-20.59c14.63-43.84,76.83-57,108.11-22.91C792.74,736.48,796.77,753.24,796.85,772.71z M699.35,756.08
		c22.79,0,44.97,0,67.13,0c0.61-20.77-12.37-35.68-31.13-36.29C714.69,719.12,700.35,733.37,699.35,756.08z"/>
	<path class="st1" d="M910,766.32c1.61,0.71,2.71,1.26,3.85,1.7c13.04,5.06,21.42,13.69,21.94,28.43
		c0.54,15.59-6.77,26.68-20.46,33.07c-15.1,7.05-31.49,8.72-47.83,7c-10.05-1.06-20.35-3.44-29.62-7.37
		c-14.73-6.25-21.16-21.29-16.99-35.37c4.12-13.9,23.14-19.12,33.79-9.26c7.25,6.7,5.4,17.53-3.71,20.79
		c-0.2-0.68-0.31-1.39-0.6-2.02c-1.44-3.13-2.28-6.99-4.66-9.03c-1.27-1.09-7.14,0.35-7.63,1.77c-1.16,3.42-1.92,8.8-0.05,11.05
		c3.96,4.76,9.29,10.36,14.83,11.39c10.63,1.97,21.98,2.34,32.7,0.88c12.84-1.75,19.56-12.1,18.95-25.01
		c-0.52-10.93-7.86-17.98-20.89-19.74c-3.72-0.5-7.51-0.52-11.27-0.55c-11.4-0.09-11.4-0.05-9.62-13.3c4.73,0,9.7,0.42,14.56-0.09
		c9.03-0.95,17.47-3.33,20.81-13.3c2.9-8.66,1.18-18.44-6.39-22.85c-6.12-3.57-14.12-5.86-21.15-5.55
		c-20.18,0.87-33.15,12.52-40.33,31.03c-0.84,2.17-1.7,4.34-2.55,6.51c-0.69-0.13-1.39-0.26-2.08-0.39c0-17.28,0-34.56,0-51.84
		c0.49-0.35,0.99-0.7,1.48-1.05c2.95,4.13,5.91,8.27,9.02,12.62c20.75-13.83,43.08-14.74,65.98-9.06
		c11.59,2.88,21.19,9.16,25.56,21.24c5.28,14.58,0.15,28.21-13.48,35.8C912.92,764.49,911.72,765.28,910,766.32z"/>
	<path class="st1" d="M949.93,707.22c23.85,0,47.71,0,71.56,0c0.12,0.68,0.25,1.37,0.37,2.05c-2.38,0.55-4.74,1.27-7.16,1.61
		c-10.87,1.54-15.48,6.54-15.59,17.43c-0.11,10.22-0.02,20.44-0.02,32.47c16.87,0,32.89-0.57,48.86,0.13
		c25.47,1.11,40.72,19.66,37.11,44.43c-1.82,12.48-8.87,21.34-20.78,25.37c-6.32,2.14-13.2,3.52-19.85,3.61
		c-29.64,0.38-59.28,0.19-88.92,0.15c-1.87,0-3.73-0.5-5.59-0.77c-0.1-0.65-0.21-1.3-0.31-1.95c1.75-0.54,3.47-1.31,5.27-1.58
		c13.75-2.05,17.45-6.25,17.47-20.43c0.05-26.12,0.04-52.25,0-78.37c-0.02-14.84-3.05-18.23-17.86-20.67
		c-1.69-0.28-3.29-1.14-4.93-1.73C949.69,708.39,949.81,707.8,949.93,707.22z M999.5,819.67c12.68,0,24.94,0.46,37.16-0.13
		c12.31-0.6,17.92-6.63,18.64-18.3c0.97-15.64-3.91-24.51-16.6-25.79c-12.83-1.3-25.9-0.29-39.2-0.29
		C999.5,789.82,999.5,804.5,999.5,819.67z"/>
	<path class="st1" d="M328.85,754.9c-3.95-11.37-4.39-25.67-17.62-30.35c-9.37-3.31-19.92-3.26-30.84-4.84
		c-0.2,4.49-0.41,6.93-0.41,9.37c-0.01,25.64-0.04,51.27,0.03,76.91c0.05,18.51,2.65,21.42,21.01,24.32
		c1.43,0.23,2.75,1.14,3.73,3.3c-25.31,0-50.62,0-75.93,0c-0.08-0.74-0.17-1.48-0.25-2.22c2.18-0.41,4.35-0.94,6.55-1.22
		c14.21-1.81,18.24-6.13,18.35-20.59c0.16-20.1,0.06-40.21,0.07-60.32c0-7.54-0.17-15.08,0.05-22.62c0.12-4.18-1.36-6.06-5.64-5.77
		c-5.76,0.4-11.6,0.15-17.29,0.99c-12.48,1.84-20.4,10.26-23.47,24.1c-0.63,2.84-1.35,5.67-3.37,8.43
		c-2.48-15.61-1.65-31.21-1.73-47.37c43.53,0,86.33,0,129.12,0c0,16.09,0,31.82,0,47.55C330.43,754.67,329.64,754.78,328.85,754.9z"
		/>
	<path class="st1" d="M748,626.24c-24.91,0-49.82,0-74.73,0c-0.17-0.59-0.34-1.18-0.51-1.77c2.73-0.77,5.42-1.85,8.2-2.26
		c12.21-1.82,16.4-6.05,16.46-18.19c0.16-29.63,0.05-59.26,0.05-89.9c-11.85-0.2-23.45-1.62-33.98,4.39
		c-11,6.29-11.3,18.96-14.74,29.69c-0.81-0.18-1.62-0.36-2.43-0.54c-0.34-2-0.96-3.99-0.97-5.99c-0.08-12.06,0.14-24.12-0.09-36.18
		c-0.09-4.8,1.34-6.62,6.41-6.6c38.94,0.18,77.89,0.19,116.83,0.02c5.54-0.02,7.51,1.69,7.33,7.35
		c-0.37,11.55-0.06,23.11-0.14,34.67c-0.02,2.25-0.52,4.5-1.86,6.94c-5.76-11.44-5.31-27.03-20.35-31.15
		c-9.42-2.58-19.57-2.52-30.17-3.73c0,23.57,0,45.13,0,66.69c0,7.79-0.21,15.59,0.08,23.36c0.5,13.17,4.46,17.31,17.38,19.15
		c2.58,0.37,5.1,1.17,7.65,1.77C748.28,624.72,748.14,625.48,748,626.24z"/>
	<path class="st1" d="M203.41,547.88c-0.33-0.66-0.93-1.31-0.94-1.97c-0.16-14.32-0.45-28.64-0.02-42.94
		c0.04-1.4,4.64-3.77,7.14-3.81c21.36-0.31,42.74-0.17,64.1-0.18c17.1-0.01,34.19,0.17,51.28-0.16c5.64-0.11,7.46,1.71,7.28,7.34
		c-0.37,11.8-0.07,23.63-0.15,35.44c-0.01,2.03-0.53,4.07-0.81,6.1c-0.77,0.1-1.53,0.19-2.3,0.29c-0.82-2.63-1.8-5.21-2.44-7.89
		c-5.04-21.13-22.34-31.66-43.3-26.01c-1.42,0.38-3.12,3.12-3.13,4.77c-0.16,28.66-0.38,57.32,0.1,85.97
		c0.2,12,4.36,15.51,16.56,17.33c2.76,0.41,5.46,1.22,8.18,1.85c-0.12,0.66-0.23,1.31-0.35,1.97c-25.17,0-50.34,0-75.51,0
		c-0.13-0.6-0.25-1.19-0.38-1.79c3.14-0.71,6.26-1.58,9.44-2.1c10.39-1.71,14.76-5.27,14.95-15.52c0.53-29.4,0.41-58.82,0.19-88.22
		c-0.01-1.53-3.23-4.28-5.02-4.33c-6.25-0.2-12.57,0.21-18.78,0.98c-13.71,1.71-18.89,11.84-22.24,23.5
		c-0.85,2.96-1.42,6.01-2.12,9.02C204.56,547.64,203.99,547.76,203.41,547.88z"/>
	<path class="st1" d="M1085.83,707.2c23.77,0,47.54,0,71.31,0c0.19,0.46,0.38,0.92,0.58,1.38c-1.87,0.76-3.68,1.91-5.63,2.2
		c-12.75,1.9-17.07,6.52-17.11,19.31c-0.1,26.61-0.09,53.23-0.02,79.84c0.04,13.69,4.28,18.35,17.85,20.27
		c1.69,0.24,3.31,0.89,4.97,1.35c-0.1,0.67-0.21,1.34-0.31,2.01c-22.97,0-45.94,0-68.92,0c-0.09-0.74-0.18-1.49-0.27-2.23
		c2.17-0.42,4.33-0.85,6.51-1.25c9.06-1.68,13.33-6.16,13.38-15.33c0.17-29.37,0.18-58.75,0.02-88.13
		c-0.05-9.71-4.61-14.13-14.75-15.7c-2.67-0.41-5.3-1.15-7.94-1.74C1085.61,708.52,1085.72,707.86,1085.83,707.2z"/>
	<path class="st1" d="M1196.42,856.29c-0.63,4.74-3.2,10.56-1.36,14.1c1.74,3.35,7.98,5.75,12.42,6.06
		c11.98,0.81,24.09,0.8,36.07,0.03c4.49-0.29,10.8-2.49,12.62-5.82c1.92-3.52-0.53-9.42-1.03-13.98c6.03,0.47,12.39,5.8,14.03,13.11
		c2.16,9.6-1.44,21.15-9.77,23.88c-22.13,7.26-44.88,6.95-67.08,0.22c-8.07-2.45-11.55-12.29-10.47-22.15
		C1182.69,864,1188.19,858.5,1196.42,856.29z"/>
	<path class="st0" d="M628.16,973.96c0.55,11.81-1.78,22.98-7.8,33.18c-11.02,18.7-35.79,20.4-49.46,3.42
		c-9.68-12.02-11.89-26.2-11.42-41.07c0.36-11.23,2.75-21.84,9.67-31.05c14.16-18.83,41.14-17.28,51.54,3.81
		c4.73,9.6,6.44,20.7,9.51,31.12C629.52,973.57,628.84,973.76,628.16,973.96z"/>
	<path class="st0" d="M838.74,562.63c1.49-13.54,2.88-26.36,12.18-36.96c14.33-16.32,40.42-14.14,50.04,5.29
		c10.74,21.69,10.67,44.21-0.7,65.87c-5.5,10.47-15.45,15.11-27.04,14.37c-13.55-0.86-23.09-8.79-27.86-21.02
		C841.96,581.47,840.86,571.85,838.74,562.63z"/>
	<path class="st0" d="M542.88,766.58c0.05-11.43,2.13-24.85,12.74-35.44c14.45-14.41,38.64-11.59,47.96,6.49
		c11.14,21.6,11.28,44.06,0.1,65.72c-9.1,17.63-32.5,20.5-46.73,6.62C545.42,798.73,542.93,784.43,542.88,766.58z"/>
	<path class="st0" d="M883.03,1024.42c0-15.2,0-29.46,0-45.8c15.02,0.88,30.02,0.64,44.6,2.99c9.95,1.61,14.33,12.87,12.69,25.81
		c-1.23,9.64-8.08,16.53-18.12,16.89C909.47,1024.77,896.7,1024.42,883.03,1024.42z"/>
	<path class="st0" d="M882.7,965.72c0-12.02-0.02-23.47,0.02-34.93c0.01-2.19,0.28-4.39,0.46-7.05c11.6,0,22.83-0.66,33.95,0.18
		c11.8,0.89,18.42,9,18.53,20.6c0.12,12.21-5.53,19.81-17.83,20.97C906.49,966.56,894.96,965.72,882.7,965.72z"/>
	<path class="st0" d="M790.29,974.38c-0.9,6.49-1.14,13.86-3.04,20.78c-5.03,18.33-19.32,28.38-37.4,27.19
		c-18.5-1.22-31.54-13.07-33.81-33.25c-1.3-11.56-0.88-23.68,1.06-35.17c3.04-18,17.27-28.63,35.26-28.59
		c17.72,0.03,31.7,11.17,35.45,28.82C789.16,960.5,789.43,967.06,790.29,974.38z"/>
	<path class="st0" d="M1024.3,972.98c0.86-6.13,1.24-12.95,2.84-19.47c4.37-17.8,17.58-28.14,35.08-28.16
		c18.02-0.02,32.15,10.19,35.16,28.61c2.09,12.84,2.2,26.6,0.01,39.4c-3.34,19.43-17.73,29.63-36.32,28.98
		c-18.27-0.64-31.39-12.42-34.72-31.49C1025.35,985.18,1025.01,979.41,1024.3,972.98z"/>
	<path class="st0" d="M593.43,558.22c0.75,14.51,1.41,28.83-9.69,40.28c-9.02,9.32-20.27,12.67-32.92,10.49
		c-9.7-1.67-15-7.47-16.06-16.32c-0.99-8.27,3.69-17.79,11.54-21.01c6.89-2.83,14.31-4.38,21.52-6.41
		C576.19,562.9,584.58,560.65,593.43,558.22z"/>
	<path class="st0" d="M291.76,925.32c0,32.78,0,64.86,0,97.51c-15.49,0-30.68,0-47.15,0c10.79-31.63,10.2-64.5,12.35-97.51
		C268.57,925.32,279.73,925.32,291.76,925.32z"/>
	<path class="st0" d="M382.74,549.11c2.34-25.73,17.09-38.61,40.23-36.07c16.38,1.8,28.73,18.2,26.78,36.07
		C427.59,549.11,405.38,549.11,382.74,549.11z"/>
	<path class="st0" d="M450.49,756.21c-22.71,0-44.95,0-67.18,0c-0.78-20.21,13.28-35.63,32.83-36.37
		C436.18,719.09,449.28,732.62,450.49,756.21z"/>
	<path class="st0" d="M699.35,756.08c1-22.71,15.34-36.96,36-36.29c18.76,0.61,31.73,15.52,31.13,36.29
		C744.32,756.08,722.14,756.08,699.35,756.08z"/>
	<path class="st0" d="M999.5,819.67c0-15.16,0-29.84,0-44.51c13.3,0,26.36-1.01,39.2,0.29c12.69,1.29,17.57,10.16,16.6,25.79
		c-0.73,11.67-6.34,17.7-18.64,18.3C1024.44,820.13,1012.18,819.67,999.5,819.67z"/>
</g>
</svg>
