<?xml version="1.0" encoding="utf-8"?>
<!-- Generator: Adobe Illustrator 26.2.1, SVG Export Plug-In . SVG Version: 6.00 Build 0)  -->
<svg version="1.1" id="Layer_1" xmlns="http://www.w3.org/2000/svg" xmlns:xlink="http://www.w3.org/1999/xlink" x="0px" y="0px"
	 viewBox="0 0 1500 1500" style="enable-background:new 0 0 1500 1500;" xml:space="preserve">
<style type="text/css">
	.st0{fill:#FFFFFF;}
	.st1{fill:#8E5535;}
	.st2{fill:#303533;}
</style>
<g>
	<g>
		<g>
			<path class="st1" d="M349.39,739.87c0-55.2,38.19-100.08,101.2-100.08c31.22,0,47.39,8.36,57.71,16.17
				c6.69,5.02,11.99-1.67,15.89,1.39c3.35,2.51,0.56,7.53-2.23,11.99l-11.71,18.12c-2.51,3.9-4.74,6.41-8.92,4.18
				c-3.07-1.67-1.39-6.41-6.97-11.43c-9.2-8.08-21.47-11.99-43.77-11.99c-39.87,0-68.3,30.39-68.3,71.65
				c0,39.87,28.99,73.88,66.07,73.88c27.04,0,39.59-7.53,46-13.94c8.08-8.08,1.67-10.32,5.3-13.94c2.51-2.51,5.58-2.23,7.8,0.56
				l20.07,23.42c1.95,2.23,2.51,4.46,0,6.97c-2.79,2.79-5.02-1.39-14.5,5.3c-9.76,6.97-25.93,20.63-64.68,20.63
				C390.38,842.74,349.39,795.35,349.39,739.87z"/>
		</g>
		<g>
			<path class="st2" d="M644.62,639.23c49.62,0.56,98.69,34.29,98.69,102.87c0,68.3-51.3,102.03-102.03,101.2
				c-49.34-0.84-98.13-34.29-98.13-101.2C543.14,673.52,594.16,638.95,644.62,639.23z M642.39,813.75
				c34.01,0.56,68.3-23.42,68.3-71.65c0-48.51-33.17-72.76-66.35-73.04c-33.73-0.28-67.74,23.98-67.74,73.04
				C576.6,789.22,609.21,813.19,642.39,813.75z"/>
		</g>
		<g>
			<path class="st2" d="M757.52,838.56l-6.13-9.48c-5.02-7.53-1.95-8.64,5.85-14.22c15.05-10.87,14.5-21.19,14.5-38.19V662.09
				c0-10.59-10.87-8.64-10.87-13.66c0-3.9,5.02-5.02,11.99-5.02h145.53c1.95,0,10.87-0.84,10.87,4.18c0,4.46-11.15,3.35-11.15,18.12
				l0.28,148.87c0,14.78,12.54,13.94,12.54,20.07c0,3.9-8.08,3.9-12.54,3.9h-32.9c-8.36,0-12.27-0.28-12.27-5.02
				s12.54-5.58,12.54-18.96l0.28-137.72c0-3.62-1.95-5.85-6.13-5.85h-70.53c-3.34,0-6.13,1.39-6.13,5.3v100.36
				c0,26.21-1.67,47.95-27.6,63.56C767.28,845.25,762.54,846.09,757.52,838.56z"/>
		</g>
		<g>
			<path class="st2" d="M1051.92,639.23c49.62,0.56,98.69,34.29,98.69,102.87c0,68.3-51.3,102.03-102.03,101.2
				c-49.34-0.84-98.13-34.29-98.13-101.2C950.44,673.52,1001.46,638.95,1051.92,639.23z M1049.69,813.75
				c34.01,0.56,68.3-23.42,68.3-71.65c0-48.51-33.17-72.76-66.35-73.04c-33.73-0.28-67.74,23.98-67.74,73.04
				C983.89,789.22,1016.51,813.19,1049.69,813.75z"/>
		</g>
	</g>
	<g>
		<g>
			<path class="st2" d="M418.14,1008.45c0-14.82,10.25-26.87,27.17-26.87c8.38,0,12.72,2.25,15.49,4.34
				c1.8,1.35,3.22-0.45,4.27,0.37c0.9,0.67,0.15,2.02-0.6,3.22l-3.14,4.87c-0.67,1.05-1.27,1.72-2.4,1.12
				c-0.82-0.45-0.37-1.72-1.87-3.07c-2.47-2.17-5.76-3.22-11.75-3.22c-10.7,0-18.34,8.16-18.34,19.24c0,10.7,7.78,19.83,17.74,19.83
				c7.26,0,10.63-2.02,12.35-3.74c2.17-2.17,0.45-2.77,1.42-3.74c0.67-0.67,1.5-0.6,2.1,0.15l5.39,6.29c0.52,0.6,0.67,1.2,0,1.87
				c-0.75,0.75-1.35-0.37-3.89,1.42c-2.62,1.87-6.96,5.54-17.36,5.54C429.14,1036.07,418.14,1023.34,418.14,1008.45z"/>
		</g>
		<g>
			<path class="st2" d="M468.66,1033.52c0-1.87,2.54-1.2,3.67-4.49l14.22-41.02c0.9-2.69-1.05-2.62-1.05-4.04
				c0-1.05,0.67-1.42,1.8-1.42h11c1.2,0,1.87,0.37,1.87,1.42c0,1.65-2.47,1.42-1.42,4.04l16.02,41.39c1.12,2.92,3.29,2.4,3.29,4.12
				c0,1.27-0.75,1.42-2.84,1.42h-8.98c-1.72,0-2.47-0.15-2.47-1.27c0-2.17,2.62-1.27,1.72-3.82l-1.35-3.74
				c-0.37-1.05-0.97-1.2-1.95-1.2h-18.11c-0.75,0-1.65,0.22-2.02,1.05l-0.67,2.62c-1.12,4.34,1.12,2.55,1.12,5.09
				c0,1.12-1.12,1.27-3.29,1.27h-8.46C469.71,1034.94,468.66,1034.72,468.66,1033.52z M499.95,1017.5c0.9,0,1.05-0.82,0.75-1.65
				l-7.41-20.66c-0.3-0.82-0.97-0.75-1.2-0.07l-7.26,21.03c-0.3,0.9,0.15,1.35,1.05,1.35H499.95z"/>
		</g>
		<g>
			<path class="st2" d="M521.13,1034.94l-1.65-2.55c-1.35-2.02-0.52-2.32,1.57-3.82c4.04-2.92,3.89-5.69,3.89-10.25v-30.76
				c0-2.84-2.92-2.32-2.92-3.67c0-1.05,1.35-1.35,3.22-1.35h39.07c0.52,0,2.92-0.22,2.92,1.12c0,1.2-2.99,0.9-2.99,4.86l0.08,39.97
				c0,3.97,3.37,3.74,3.37,5.39c0,1.05-2.17,1.05-3.37,1.05h-8.83c-2.25,0-3.29-0.07-3.29-1.35c0-1.27,3.37-1.5,3.37-5.09
				l0.07-36.97c0-0.97-0.52-1.57-1.65-1.57h-18.94c-0.9,0-1.65,0.37-1.65,1.42v26.95c0,7.04-0.45,12.87-7.41,17.07
				C523.75,1036.74,522.48,1036.96,521.13,1034.94z"/>
		</g>
		<g>
			<path class="st2" d="M600.18,981.43c13.32,0.15,26.5,9.21,26.5,27.62c0,18.34-13.77,27.39-27.39,27.17
				c-13.25-0.22-26.35-9.21-26.35-27.17C572.93,990.63,586.63,981.35,600.18,981.43z M599.58,1028.28
				c9.13,0.15,18.34-6.29,18.34-19.24c0-13.02-8.91-19.54-17.81-19.61c-9.06-0.07-18.19,6.44-18.19,19.61
				C581.92,1021.7,590.67,1028.13,599.58,1028.28z"/>
		</g>
		<g>
			<path class="st2" d="M631.17,1033.82c0-1.57,3.07-1.57,3.07-4.94l0.07-40.94c0-3.59-2.62-1.95-2.62-4.27
				c0-0.9,0.75-1.12,3.29-1.12h9.13c1.2,0,2.4,0.08,2.4,1.12c0,1.65-2.99,1.2-2.99,4.27v13.55c0,2.25,1.12,2.47,2.54,2.55l23.5-0.07
				c1.27,0,2.4-0.15,2.4-2.17v-13.92c0-3.22-2.84-2.47-2.84-4.19c0-0.97,1.35-1.12,4.04-1.12h7.49c1.65,0,2.99,0.15,2.99,1.12
				c0,1.57-2.77,1.35-2.77,3.97v41.84c0,2.99,3.07,2.69,3.07,4.12c0,1.27-1.42,1.35-3.97,1.35h-8.76c-0.67,0-2.32-0.07-2.32-0.9
				c0-1.57,3.14-1.57,3.14-4.71l-0.3-14.75c0-1.57-0.75-2.17-1.8-2.17h-24.33c-1.12,0-2.17,0.37-2.17,1.2v15.27
				c0,4.04,3.37,2.99,3.37,4.94c0,1.05-1.65,1.12-3.52,1.12h-9.28C632,1034.94,631.17,1034.79,631.17,1033.82z"/>
		</g>
		<g>
			<path class="st2" d="M714.34,1033.75c0-1.27,2.17-0.22,2.17-3.44l-0.08-42.29c0-3.97-2.54-2.77-2.54-4.57
				c0-0.75,0.82-0.9,2.4-0.9h8.23c1.35,0,2.47,0.08,2.47,0.97c0,1.57-2.32,0.82-2.32,4.49v27.99c0,1.72,0.45,1.57,1.35,1.35
				c3.59-0.97,9.66-6.06,14.07-11.75c7.71-9.95,7.19-23.05,19.16-23.05c2.77,0,3.44,0.3,3.44,1.8v3.82c0,1.72-1.65,1.8-3.14,1.8
				c-4.64,0-7.41,11.98-11.3,17.66c-0.52,0.75-0.6,1.72,0.08,2.77l11.75,19.16c2.4,3.89,4.04,2.4,4.04,4.49
				c0,0.97-2.17,0.9-3.29,0.9h-9.06c-0.52,0-1.87,0.07-1.87-0.82c0-1.05,2.25-1.27,0.3-4.34l-7.71-11.9
				c-0.67-0.97-1.27-0.9-2.1-0.15c-1.72,1.57-6.44,5.24-12.2,7.19c-2.69,0.9-3.67,1.12-3.67,2.55v2.99c0,3.07,2.4,2.02,2.4,3.44
				c0,1.05-0.97,1.05-2.92,1.05h-7.56C715.46,1034.94,714.34,1034.94,714.34,1033.75z"/>
		</g>
		<g>
			<path class="st2" d="M768.83,1033.75c0-2.02,3.22-0.9,3.22-6.51v-37.42c0-5.31-3.44-3.89-3.44-5.91c0-1.5,1.27-1.35,4.04-1.35
				h24.92c9.36,0,17.74,4.34,17.74,17.07c0,10.85-5.91,18.11-18.79,18.11h-13.4c-2.32-0.07-2.25,0.22-2.25,1.5v7.63
				c0,5.84,3.07,5.16,3.07,6.96c0,1.2-1.12,1.12-2.77,1.12h-8.83C770.4,1034.94,768.83,1034.87,768.83,1033.75z M796.07,1009.2
				c7.26,0,10.55-3.52,10.55-9.51c0-6.21-4.64-8.91-11-8.91h-12.35c-2.32,0-2.4,0.07-2.4,3.37v12.87c0,1.27-0.15,2.17,1.27,2.17
				H796.07z"/>
		</g>
		<g>
			<path class="st2" d="M816.06,1033.52c0-1.87,2.54-1.2,3.67-4.49l14.22-41.02c0.9-2.69-1.05-2.62-1.05-4.04
				c0-1.05,0.67-1.42,1.8-1.42h11c1.2,0,1.87,0.37,1.87,1.42c0,1.65-2.47,1.42-1.42,4.04l16.02,41.39c1.12,2.92,3.29,2.4,3.29,4.12
				c0,1.27-0.75,1.42-2.84,1.42h-8.98c-1.72,0-2.47-0.15-2.47-1.27c0-2.17,2.62-1.27,1.72-3.82l-1.35-3.74
				c-0.37-1.05-0.97-1.2-1.95-1.2h-18.11c-0.75,0-1.65,0.22-2.02,1.05l-0.67,2.62c-1.12,4.34,1.12,2.55,1.12,5.09
				c0,1.12-1.12,1.27-3.29,1.27h-8.46C817.11,1034.94,816.06,1034.72,816.06,1033.52z M847.35,1017.5c0.9,0,1.05-0.82,0.75-1.65
				l-7.41-20.66c-0.3-0.82-0.97-0.75-1.2-0.07l-7.26,21.03c-0.3,0.9,0.15,1.35,1.05,1.35H847.35z"/>
		</g>
		<g>
			<path class="st2" d="M865.47,1008.45c0-14.82,10.25-26.87,27.17-26.87c8.38,0,12.72,2.25,15.49,4.34
				c1.8,1.35,3.22-0.45,4.27,0.37c0.9,0.67,0.15,2.02-0.6,3.22l-3.14,4.87c-0.67,1.05-1.27,1.72-2.4,1.12
				c-0.82-0.45-0.37-1.72-1.87-3.07c-2.47-2.17-5.76-3.22-11.75-3.22c-10.7,0-18.34,8.16-18.34,19.24c0,10.7,7.78,19.83,17.74,19.83
				c7.26,0,10.63-2.02,12.35-3.74c2.17-2.17,0.45-2.77,1.42-3.74c0.67-0.67,1.5-0.6,2.1,0.15l5.39,6.29c0.52,0.6,0.67,1.2,0,1.87
				c-0.75,0.75-1.35-0.37-3.89,1.42c-2.62,1.87-6.96,5.54-17.36,5.54C876.47,1036.07,865.47,1023.34,865.47,1008.45z"/>
		</g>
		<g>
			<path class="st2" d="M944.73,981.43c13.32,0.15,26.5,9.21,26.5,27.62c0,18.34-13.77,27.39-27.39,27.17
				c-13.25-0.22-26.35-9.21-26.35-27.17C917.49,990.63,931.19,981.35,944.73,981.43z M944.13,1028.28
				c9.13,0.15,18.34-6.29,18.34-19.24c0-13.02-8.91-19.54-17.81-19.61c-9.06-0.07-18.19,6.44-18.19,19.61
				C926.47,1021.7,935.23,1028.13,944.13,1028.28z"/>
		</g>
		<g>
			<path class="st2" d="M985.76,1033.75c0-1.35,2.62-1.42,2.62-4.12l0.15-37.72c0-1.35-0.3-2.1-2.1-2.1l-9.65-0.08
				c-4.34,0-3.52,2.02-4.94,2.02c-0.97,0-1.35-0.6-1.35-2.77v-4.72c0-1.27,0.6-1.72,1.95-1.72h40.04c1.05,0,1.8,0.45,1.8,1.57v4.19
				c0,2.84-0.45,3.74-1.42,3.74c-1.5,0-0.82-2.25-3.74-2.25h-9.58c-1.35,0-1.95,0.6-1.95,2.02l-0.08,37.87
				c0,2.84,2.55,2.55,2.55,3.89c0,1.12-0.67,1.35-1.8,1.35h-10.63C986.5,1034.94,985.76,1034.72,985.76,1033.75z"/>
		</g>
		<g>
			<path class="st2" d="M1018.77,1033.3c0-2.02,3.67-0.6,3.67-5.61v-37.87c0-5.31-3.44-4.04-3.44-6.21c0-1.05,1.2-1.05,4.04-1.05
				h7.63c3.07,0,3.89,0.15,3.89,1.35c0,1.72-3.29,0.67-3.29,6.29v8.08c0,1.27-0.07,1.57,2.25,1.5h13.4
				c12.87,0,18.79,7.26,18.79,18.11c0,12.72-8.38,17.07-17.74,17.07h-24.7C1020.49,1034.94,1018.77,1034.79,1018.77,1033.3z
				 M1046.01,1026.71c6.36,0,11-2.69,11-8.91c0-5.99-3.29-9.51-10.55-9.51h-13.92c-1.42,0-1.27,0.9-1.27,2.17v12.87
				c0,3.29,0.08,3.37,2.4,3.37H1046.01z M1068.09,1033.6c0-1.27,2.7-1.5,2.7-5.09v-39.97c0-3.89-2.17-3.52-2.17-4.86
				c0-1.12,1.5-1.12,2.32-1.12h8.23c0.52,0,2.62-0.22,2.62,1.12c0,1.2-2.69,0.9-2.69,4.86v39.97c0,3.97,2.77,3.74,2.77,5.39
				c0,1.05-2.17,1.05-2.7,1.05h-8.46C1069.14,1034.94,1068.09,1034.87,1068.09,1033.6z"/>
		</g>
	</g>
	<g>
		<path class="st2" d="M1346.46,1019.77h-169.15c-6.09,0-11.03-4.94-11.03-11.03s4.94-11.03,11.03-11.03h169.15
			c18.46,0,33.48-15.02,33.48-33.48V519.11c0-18.46-15.02-33.48-33.48-33.48H153.54c-18.46,0-33.48,15.02-33.48,33.48v445.12
			c0,18.46,15.02,33.48,33.48,33.48h169.15c6.09,0,11.03,4.94,11.03,11.03s-4.94,11.03-11.03,11.03H153.54
			c-30.63,0-55.54-24.92-55.54-55.54V519.11c0-30.63,24.91-55.54,55.54-55.54h1192.92c30.63,0,55.54,24.92,55.54,55.54v445.12
			C1402,994.85,1377.09,1019.77,1346.46,1019.77z"/>
	</g>
</g>
</svg>
