<?xml version="1.0" encoding="utf-8"?>
<!-- Generator: Adobe Illustrator 26.2.1, SVG Export Plug-In . SVG Version: 6.00 Build 0)  -->
<svg version="1.1" id="Layer_1" xmlns="http://www.w3.org/2000/svg" xmlns:xlink="http://www.w3.org/1999/xlink" x="0px" y="0px"
	 viewBox="0 0 1500 1500" style="enable-background:new 0 0 1500 1500;" xml:space="preserve">
<g>
	<g>
		<path d="M750.78,503.37c23.9-2.89,46,3.33,67.29,13.16c9.43,4.35,12.46,10.4,11,19.83c-0.73,4.7-10.52,13.93-16.4,13.62
			c-5.2-0.27-10.36-2.79-15.37-4.73c-22.26-8.6-44.81-10.97-68.63-6.95c-23.07,3.9-43.31,13.4-59.99,28.79
			c-10.72,9.89-19.15,22.82-26.62,35.55c-9.49,16.19-13.85,34.59-14.46,53.29c-0.63,19.29,3.92,37.93,12.2,55.42
			c18.81,39.72,50.24,62.55,93.61,68.87c36.03,5.25,67.58-4.94,95.76-27.63c25.45-20.5,39.34-47.78,43.04-79.13
			c4.31-36.57-5.51-70.37-31.62-97.45c-11.43-11.85-4.47-28.51,8.43-31.96c3.79-1.01,10.01,0.51,12.77,3.24
			c22.17,21.88,37.09,47.7,44.16,78.56c6.7,29.22,4.76,57.77-5.23,85.08c-9.43,25.78-24.52,48.57-46.34,66.63
			c-19.36,16.02-40.46,28.12-64.75,34.02c-32.42,7.88-64.49,6.52-95.83-5.77c-44.79-17.56-75.62-49.38-92.82-93.74
			c-13.71-35.33-13.13-71.87-0.03-107.22c9.8-26.45,26.52-48.54,48.61-66.87c16.9-14.02,35.7-23.96,56.25-29.96
			c14.37-4.19,29.81-4.72,44.77-6.89C750.66,501.87,750.72,502.62,750.78,503.37z"/>
		<path d="M1332.22,704.86c-44.89,0-88.71,0-133.33,0c0,2.7,0,5.12,0,7.54c0,23.59,0.01,47.18-0.01,70.77
			c-0.01,9.08-1.24,10.26-10.53,10.3c-4.51,0.02-9.05-0.25-13.54,0.06c-6.31,0.43-8.46-3-8.71-8.53c-0.08-1.75-0.02-3.51-0.02-5.27
			c0-55.71-0.03-111.42,0.01-167.14c0.02-27.08,9.52-50.74,28.21-69.97c14.59-15.02,33.5-23.03,54.12-26.04
			c28.54-4.16,55.3,0.71,79.29,17.65c20.2,14.26,30.85,34.4,35.93,57.98c0.83,3.85,1.41,7.83,1.42,11.75
			c0.09,59.73,0.07,119.45,0.06,179.18c0,9.59-0.71,10.28-10.3,10.32c-3.51,0.01-7.02,0.01-10.53,0
			c-9.16-0.03-12.04-2.81-12.06-11.97c-0.05-22.59-0.02-45.17-0.02-67.76C1332.22,711.01,1332.22,708.3,1332.22,704.86z
			 M1333.57,672.8c-1.42-26.28-1.9-52.23-4.56-77.96c-1.72-16.55-11.19-30.07-25.87-38.35c-19.49-10.99-40.58-11.16-61.72-5.64
			c-20.44,5.33-33.41,19.45-38.24,39.25c-6.5,26.64-4.53,54.09-3.84,81.3c0.01,0.38,0.56,0.75,1.08,1.4
			C1243.82,672.8,1287.43,672.8,1333.57,672.8z"/>
		<path d="M1030.24,732.52c7.37-19.6,14.48-38.65,21.68-57.67c14.99-39.59,30.05-79.16,45.03-118.76c3.33-8.81,6.47-17.7,9.61-26.58
			c2.16-6.09,5.82-9.59,12.82-8.98c4.98,0.43,10.04-0.13,15.04,0.16c6.12,0.35,9.46,5.35,7.28,11.05
			c-12.85,33.53-25.92,66.97-38.71,100.52c-13.23,34.74-26.19,69.58-39.34,104.35c-6.73,17.8-13.84,35.47-20.35,53.36
			c-2.99,8.22-9.25,7.65-15.89,7.73c-6.22,0.08-9.09-3.8-10.92-8.61c-8.75-22.93-17.27-45.95-25.93-68.92
			c-12.15-32.22-24.31-64.43-36.54-96.61c-11.72-30.84-23.53-61.65-35.29-92.48c-1.83-4.79,1.11-10.05,6.22-10.33
			c6.75-0.36,13.6-0.57,20.28,0.2c2.49,0.29,5.87,3.03,6.79,5.43c13.38,34.91,26.43,69.94,39.51,104.96
			c12.31,32.96,24.55,65.94,36.86,98.9C1028.65,730.91,1029.32,731.41,1030.24,732.52z"/>
		<path d="M563.93,722.55c1.48,20.37-6.27,37.76-19.38,52.38c-11.62,12.96-27.36,19.82-44.48,22.57
			c-32.65,5.23-62.64-3.24-90.99-18.94c-7.36-4.08-8.09-8.18-3.65-15.8c0.12-0.21,0.17-0.47,0.3-0.68
			c9.27-16.26,9.38-16.48,26.3-7.6c23.33,12.26,47.53,15.75,72.88,7.81c15.33-4.8,25.27-19.34,26.3-35.32
			c1.54-23.84-10.47-39.13-30.15-49.63c-16.01-8.54-32.84-15.62-48.53-24.7c-32.55-18.82-48.46-41.83-42.95-81.37
			c3.68-26.41,30.7-47.98,56.51-53.65c25.54-5.62,49.25-0.76,72.71,8.6c15.99,6.38,16.78,18.45,2.19,30.96
			c-3.26,2.8-6.06,3.08-9.94,0.89c-22.68-12.81-46.55-14.35-70.57-4.99c-22.08,8.6-27.12,39.86-10.32,57.65
			c11.86,12.55,27.54,18.65,42.3,26.36c20.09,10.48,40.77,20.11,55.89,37.87C560,688.63,565.05,704.6,563.93,722.55z"/>
		<path d="M167.87,761.98c34.38,0,67.47,0,100.55,0c14.67,0,22.97,13.72,15.57,26.46c-1.44,2.48-5.56,4.79-8.47,4.81
			c-44.39,0.3-88.78,0.19-133.17,0.23c-7.34,0.01-7.45-4.81-7.44-10.22c0.05-81.56,0.08-163.11,0-244.67
			c-0.02-17.07-1.87-17.95,18.07-18.11c11.93-0.1,15.09,1.66,15.03,14.98c-0.31,72.27-0.15,144.54-0.15,216.81
			C167.87,755.22,167.87,758.17,167.87,761.98z"/>
		<path d="M363.74,656.96c0,41.15,0.01,82.29-0.01,123.44c0,10.74-2.36,13.05-13.14,13.06c-3.01,0-6.02,0.01-9.03,0
			c-9.51-0.03-12.2-2.74-12.2-12.59c-0.02-82.29-0.02-164.58,0.01-246.87c0-11.25,2.27-13.32,13.63-13.4
			c19.25-0.15,20.97-2.35,20.81,21.21C363.54,580.19,363.74,618.58,363.74,656.96z"/>
		<path d="M681.95,928.81c-1.7-38.1,32.99-69.5,69.63-69.78c38.54-0.29,72.21,33.89,70.62,71.74c-1.54,36.49-32.14,67.65-70.65,68.1
			C716.49,999.29,679.33,965.67,681.95,928.81z M809.24,928.59c0.54-32.08-24.76-57.6-56.79-57.65
			c-34.24-0.06-58.14,26.11-58.59,57.95c-0.43,30.92,25.01,56.91,56.05,57.93C781.53,987.85,811.66,959.34,809.24,928.59z"/>
		<path d="M946.18,962.88c7.34-19.2,14.23-37.18,21.08-55.18c3.43-9,6.64-18.08,10.22-27.02c2.72-6.81,3.98-7.12,12.75-3.89
			c-3.07,8.19-6.12,16.4-9.22,24.59c-9.65,25.47-19.23,50.96-29.1,76.34c-1.06,2.73-3.85,4.8-5.84,7.17c-1.9-2.32-4.52-4.35-5.6-7
			c-7.38-18.15-14.44-36.42-21.94-55.51c-9.17,21.57-16.03,43.45-27.58,63.1c-0.97,0.06-1.94,0.12-2.92,0.18
			c-3.15-7.05-6.61-13.98-9.4-21.18c-10.74-27.71-21.32-55.49-31.76-83.32c-0.6-1.59,0.52-3.83,0.84-5.77
			c3.02,0.76,7.48,0.55,8.79,2.47c3,4.43,4.58,9.85,6.52,14.95c8.73,22.92,17.39,45.88,26.63,70.28c3.54-8.01,6.76-14.87,9.63-21.87
			c8.57-20.88,17.01-41.82,25.48-62.74c2.66-6.58,7.06-2.62,12.34-3.09c-2.99,7.63-4.85,14.02-7.9,19.78
			c-5.06,9.53-3.28,18.57,0.48,27.73C935.02,935.91,940.41,948.9,946.18,962.88z"/>
		<path d="M575.27,875.83c0,15.61,0,31.34,0,47.68c19.42,0,38.25,0,57.61,0c0-13.73,0.28-26.99-0.11-40.23
			c-0.21-7.05,1.97-9.98,9.59-7.7c0.19,1.19,0.61,2.61,0.62,4.02c0.27,32.8,0.58,65.59,0.52,98.39c0,1.81-3.2,3.62-4.91,5.43
			c-1.89-2.18-5.32-4.28-5.43-6.55c-0.56-11.51-0.26-23.06-0.27-34.59c0-2.23,0-4.46,0-7.33c-19.1,0-37.72,0-57.51,0
			c0,13.62-0.53,27.33,0.28,40.96c0.29,4.85-1.26,6.85-4.96,7.1c-4.4,0.3-5.56-2.96-5.54-7.05c0.1-22.32,0.05-44.64,0.05-66.96
			c0-8.53-0.02-17.05,0.01-25.58C565.24,874.39,565.57,874.14,575.27,875.83z"/>
		<path d="M509.28,880.57c-2.07,6.35-4.75,6.96-11.17,5.38c-7.77-1.92-16.55-0.98-24.68,0.21c-6.28,0.91-9.11,6.33-9.48,12.73
			c-0.47,7.94,3.62,13.19,10.01,16.94c9.4,5.52,19.02,10.65,28.37,16.25c12.45,7.47,12.41,19.63,9.83,33.32
			c-2.03,10.74-14.52,19.05-26.19,19.72c-10.51,0.6-20.31-1.75-29.24-7.08c-1.94-1.16-2.67-4.35-3.96-6.6
			c2.73-0.72,6.03-2.8,8.08-1.93c8.64,3.68,17.28,5.08,26.65,3.96c7.79-0.93,13.23-4.12,15.07-11.96
			c2.35-9.99-0.67-18.77-8.07-22.93c-7.8-4.39-15.8-8.43-23.77-12.51c-12.55-6.42-18.63-19.35-16.18-32.08
			c2.13-11.04,15.61-21.34,28.38-20.69C492.42,873.78,501.67,873.74,509.28,880.57z"/>
	</g>
</g>
</svg>
