<?xml version="1.0" encoding="utf-8"?>
<!-- Generator: Adobe Illustrator 26.2.1, SVG Export Plug-In . SVG Version: 6.00 Build 0)  -->
<svg version="1.1" id="Layer_1" xmlns="http://www.w3.org/2000/svg" xmlns:xlink="http://www.w3.org/1999/xlink" x="0px" y="0px"
	 viewBox="0 0 1500 1500" style="enable-background:new 0 0 1500 1500;" xml:space="preserve">
<style type="text/css">
	.st0{fill:#FFFFFF;}
	.st1{fill:#E781B3;}
	.st2{fill:#460B3C;}
	.st3{fill:#F3D1B4;}
	.st4{fill:#66C4B5;}
	.st5{fill:#FCEBF2;}
</style>
<g>
	<g>
		<g>
			
				<ellipse transform="matrix(0.599 -0.8007 0.8007 0.599 -196.3959 777.4763)" class="st1" cx="678.09" cy="584.83" rx="15.61" ry="65.43"/>
			<path class="st2" d="M687.44,572.33c13.9,10.54,27.48,21.82,38.33,35.59c5.99,7.5,12.13,20.59-3.61,18.91
				c-8.83-1.34-17.01-5.2-24.88-9.17c-5.2-2.73-10.27-5.68-15.21-8.84c-19.51-12.86-38.32-27.68-52.23-46.67
				c-11.33-15.84-6.03-23.85,12.64-16.55C658.75,552.13,673.41,561.98,687.44,572.33L687.44,572.33z M687.44,572.33
				c-14.01-10.25-28.89-19.87-45.36-25.62c-16.72-5.59-21.17-0.53-10.17,13.94c10.71,13.57,24.21,24.78,37.94,35.2
				c13.87,10.23,28.43,20.03,44.47,26.47c16.75,6.37,20.76,0.98,10.51-13.71C714.67,594.44,701.23,582.88,687.44,572.33
				L687.44,572.33z"/>
		</g>
		<g>
			
				<ellipse transform="matrix(0.9518 -0.3067 0.3067 0.9518 -146.3362 248.0362)" class="st1" cx="716.12" cy="589.68" rx="8.23" ry="34.5"/>
			<path class="st2" d="M723.96,587.16c1.86,5.85,3.53,11.76,4.68,17.81c0.82,4.57,1.62,9.23,1.04,13.91
				c-1.45,8.59-7.9,3.58-11.02-0.9c-5.55-7.6-9.22-16.35-12.15-25.21c-2.79-8.9-4.94-18.15-4.86-27.56
				c0.08-10.59,5.47-12.82,11.32-3.42C717.89,569.66,721.05,578.42,723.96,587.16L723.96,587.16z M723.96,587.16
				c-2.88-8.68-6.48-17.31-11.9-24.71c-10.29-13.33-7.98,5-6.62,11.65c1.14,5.93,2.78,11.77,4.61,17.54
				c1.88,5.76,3.95,11.47,6.49,16.94c2.76,6.18,11.63,22.45,12.19,5.59C728.81,605,726.69,595.89,723.96,587.16L723.96,587.16z"/>
		</g>
		<g>
			
				<ellipse transform="matrix(0.3864 -0.9223 0.9223 0.3864 -435.9914 1056.3176)" class="st1" cx="575.93" cy="855.85" rx="111.07" ry="107.25"/>
			<path class="st2" d="M674.85,897.29c-16.24,39.96-56.64,68.92-100.03,69.65c-79.93,1.46-130.01-81.28-99.52-153.26
				c29.91-72.23,124.03-94.56,179.05-36.56C684.25,808.58,691.94,857.69,674.85,897.29L674.85,897.29z M674.85,897.29
				c16.98-39.48,9.03-88.57-21.35-119.35c-54.43-55.74-145.74-33.09-174.78,37.18c-29.74,69.98,18.16,150.97,96.08,150.66
				C618.05,965.85,658.61,937.09,674.85,897.29L674.85,897.29z"/>
		</g>
		<g>
			<path class="st2" d="M547.8,922.98c-38.03-13.53-54.46-58.95-38.85-95.19c14.87-36.55,58.8-56.7,95.1-39.07
				c-17.49-6.37-37.17-5.48-53.91,2.38C495.21,816.63,492.4,896.22,547.8,922.98L547.8,922.98z"/>
		</g>
		<g>
			
				<ellipse transform="matrix(0.7846 -0.62 0.62 0.7846 -207.4682 752.8304)" class="st1" cx="979.79" cy="675.02" rx="73.4" ry="76.01"/>
			<path class="st2" d="M922.2,720.52c-41.5-52.94-2.54-129.62,65.86-121.32c40.88,5.18,71.84,44.34,67.41,85.31
				C1047.74,752.98,964.09,773.14,922.2,720.52L922.2,720.52z M922.2,720.52c24.71,31.85,72.49,39.37,104.13,13.4
				c31.31-24.74,34.39-72.89,9.59-103.26c-23.81-31.15-71.37-39.32-102.68-14.56C900.66,640.9,896.93,689.11,922.2,720.52
				L922.2,720.52z"/>
		</g>
		<g>
			<path class="st2" d="M948.91,635.93c20.75-18.27,53.28-13.07,69.87,8.28c16.94,21.07,14.47,53.94-8.11,69.89
				c0,0,3.44-3.34,3.44-3.34s3.11-3.62,3.11-3.62c5.69-7.5,9.28-16.74,9.87-26.11C1029.89,639.55,983.44,611.73,948.91,635.93
				L948.91,635.93z"/>
		</g>
		
			<ellipse transform="matrix(0.9864 -0.1645 0.1645 0.9864 -119.6614 140.9908)" class="st1" cx="791.26" cy="792.83" rx="195.58" ry="205.7"/>
		<path class="st3" d="M610.15,868c0,0-1.47-118.89,67.94-151.61c69.41-32.73,126.99,4.67,126.99,4.67s35.84-85.48,93.43-73.87
			s119.97,107.48,70.48,234.99c-49.5,127.51-187.15,118.98-211.31,112.48C733.52,988.16,660.68,978.42,610.15,868z"/>
		<path class="st2" d="M794.03,1002.53c-41.91,0-82.83-13.78-117.79-40.11c-43.7-32.9-72.84-81.45-82.06-136.72
			c-19.04-114.17,53.87-221.81,162.53-239.93c52.69-8.8,105.79,4.52,149.55,37.46c43.7,32.9,72.84,81.45,82.06,136.72
			c19.04,114.17-53.87,221.81-162.53,239.93C815.2,1001.65,804.58,1002.53,794.03,1002.53z M788.45,591.57
			c-10.08,0-20.22,0.83-30.34,2.52c-104.08,17.36-173.88,120.63-155.6,230.22c8.86,53.12,36.85,99.78,78.81,131.37
			c41.89,31.54,92.71,44.29,143.09,35.88C928.48,974.2,998.28,870.93,980,761.34c-8.86-53.12-36.85-99.78-78.81-131.37
			C867.72,604.77,828.54,591.57,788.45,591.57z"/>
		<g>
			<path class="st2" d="M610.85,861.95c-1.47-104.88,45.52-176.35,158.75-153.43c12.38,2.63,24.45,6.07,36.22,10.85
				c0,0-2.41,0.94-2.41,0.94c4.31-9.28,9.42-17.99,15.09-26.46c46.77-68.85,99.68-62.86,144.1,4.27
				c5.62,8.36,10.72,17.05,15.47,25.93c-2.55-4.34-5.18-8.62-7.9-12.85c-43.78-69.31-96.5-92-148.65-15.31
				c-5.87,8.78-11.12,18.03-15.52,27.55c-11.89-5-24.51-8.68-37.15-11.39C656.81,689.09,612.41,758.99,610.85,861.95L610.85,861.95z
				"/>
		</g>
		<g>
			<path class="st2" d="M827.21,819.48c-11.41,1.14-20.59,6.35-15.95,19.1c1.13,3.21,2.7,6.29,4.4,9.31
				c-2.1-2.75-3.99-5.71-5.31-8.98C804.87,825.81,815.03,818.96,827.21,819.48L827.21,819.48z"/>
		</g>
		<path class="st2" d="M837.6,832.01c4.4,1.33,7.32,5.45,8.68,7.81c0.55,0.95,0.19,2.16-0.8,2.64c-2.44,1.22-7.16,3.03-11.56,1.7
			c-6.3-1.9-10.58-6.16-9.57-9.52C825.37,831.29,831.3,830.11,837.6,832.01z"/>
		<g>
			<path class="st2" d="M855.83,811.74c6.79-8.3,17.23-10.92,22.57,0.3c1.34,2.77,2.21,5.71,2.79,8.72
				c-1.01-2.84-2.05-5.7-3.53-8.32C872.05,801.98,863.18,804.93,855.83,811.74L855.83,811.74z"/>
		</g>
		<path class="st2" d="M857.97,825.86c-1.7,3.66-0.7,7.98,0.05,10.25c0.3,0.92,1.3,1.38,2.2,1.02c2.22-0.89,6.17-2.92,7.87-6.58
			c2.43-5.24,2.14-10.53-0.65-11.83C864.64,817.43,860.4,820.62,857.97,825.86z"/>
		<g>
			<circle class="st0" cx="728.01" cy="811.93" r="56.05"/>
			<g>
				<path class="st2" d="M783.29,802.71c3.93,21.89-6.59,45.26-25.49,56.96c-34.05,21.51-79.1,1.3-85.8-38.4
					c-6.55-39.73,29.51-73.47,68.69-64.17C762.37,762.04,779.91,780.73,783.29,802.71L783.29,802.71z M783.29,802.71
					c-3.48-21.88-21.01-40.56-42.7-45.16c-38.37-8.73-73.77,24.69-67.16,63.49c6.34,38.84,50.68,58.97,84.13,38.25
					C776.58,847.89,787.11,824.54,783.29,802.71L783.29,802.71z"/>
			</g>
		</g>
		<g>
			
				<ellipse transform="matrix(0.9864 -0.1645 0.1645 0.9864 -123.4157 131.9338)" class="st4" cx="734.71" cy="810.96" rx="49.28" ry="54.24"/>
			<path class="st2" d="M783.32,802.85c3.55,20.02-4.06,42.18-20.92,54.11c-32.11,22.16-71.21-1.7-76.97-37.78
				c-6.27-35.99,22.98-71.26,60.54-60.72C765.79,764.28,780.18,782.76,783.32,802.85L783.32,802.85z M783.32,802.85
				c-3.23-19.99-17.62-38.47-37.46-43.98c-36.83-9.99-65.42,24.95-59.1,60.09c5.42,35.29,43.82,59.07,75.41,37.66
				C779.14,844.96,786.75,822.81,783.32,802.85L783.32,802.85z"/>
		</g>
		<g>
			
				<ellipse transform="matrix(0.9864 -0.1645 0.1645 0.9864 -122.2004 132.886)" class="st2" cx="741.06" cy="804.1" rx="40.64" ry="42.51"/>
			<g>
				<path class="st2" d="M781.15,797.41c6.05,37.23-33.2,64.75-64.82,42.04c-18.81-13.77-23.46-41.63-10.14-60.76
					C728.72,746.93,774.8,760.24,781.15,797.41L781.15,797.41z M781.15,797.41c-3.53-22.05-24.57-38.68-46.93-34.33
					c-10.45,1.91-19.73,8.46-25.36,17.38c-15.04,22.94-3.35,56.18,23.32,63.64C761.04,851.97,786.01,826.04,781.15,797.41
					L781.15,797.41z"/>
			</g>
		</g>
		<g>
			<circle class="st0" cx="902.67" cy="746.85" r="50.27"/>
			<g>
				<path class="st2" d="M867.51,782.78c14.1,13.99,36.67,18.24,54.81,10.09c32.35-13.98,40.29-56.87,15-81.43
					c-25.11-24.74-67.81-15.88-81.08,16.77C848.48,746.51,853.21,768.99,867.51,782.78L867.51,782.78z M867.51,782.78
					c-14.44-13.77-19.18-36.26-11.7-54.74c13.27-33.64,56.63-42.87,82.52-17.63c25.78,25.34,17.51,68.88-15.83,82.88
					C904.18,801.16,881.6,796.92,867.51,782.78L867.51,782.78z"/>
			</g>
		</g>
		<g>
			
				<ellipse transform="matrix(0.6994 -0.7148 0.7148 0.6994 -266.859 868.0981)" class="st4" cx="898.51" cy="751.28" rx="44.2" ry="48.64"/>
			<g>
				<path class="st2" d="M867.61,782.87c22.82,22.68,63.48,19.43,74.68-13.15c11.95-36.83-26.6-74.54-63.16-61.79
					C846.8,719.83,844.43,760.55,867.61,782.87L867.61,782.87z M867.61,782.87c-23.42-22.29-21.16-63.53,11.21-75.81
					c37.37-13.62,77.14,25.3,64.34,62.95C931.58,802.63,890.4,805.79,867.61,782.87L867.61,782.87z"/>
			</g>
		</g>
		<g>
			
				<ellipse transform="matrix(0.6994 -0.7148 0.7148 0.6994 -270.1809 862.5078)" class="st2" cx="890.21" cy="752.43" rx="36.45" ry="38.13"/>
			<g>
				<path class="st2" d="M864.72,778.48c18.55,18.24,50.39,13.15,59.35-12.11c9.84-29.19-19.57-57.95-48.53-47.48
					C850.48,728.39,846.08,760.34,864.72,778.48L864.72,778.48z M864.72,778.48c-24.12-23.76-10.27-64.59,24.7-64.9
					c20.96-0.04,39.23,17.84,39.64,38.8C929.49,787.34,889,802.08,864.72,778.48L864.72,778.48z"/>
			</g>
		</g>
		<circle class="st5" cx="740.88" cy="814.21" r="9.1"/>
		<circle class="st5" cx="889.04" cy="760.95" r="9.47"/>
		<g>
			<path class="st2" d="M926.01,848.15c0,0,3.16,57.79-54.01,86.04s-114.32-19.26-114.32-19.26
				C881.58,936.36,926.01,848.15,926.01,848.15"/>
			<path class="st2" d="M926.01,848.15c0.58,28.79-12.75,57.74-35.6,75.43c-11.39,8.87-24.59,15.68-38.76,18.76
				c-23.8,5.13-48.72-0.49-70.23-11.13c-8.64-4.35-16.87-9.34-24.47-15.38c-0.88-0.72-0.25-2.26,0.93-2.02
				c47,8.71,98.82,1.44,136.54-29.58C906.86,874.12,918,862.08,926.01,848.15c-1.85,3.58-4.04,6.98-6.34,10.28
				c-36.94,52.32-101.3,68.9-162.19,57.64c0,0,0.93-2.02,0.93-2.02c3.65,2.91,7.62,5.58,11.65,8.07
				c23.97,14.7,53.02,24.04,81.15,18.17C894.4,931.3,925.96,892.24,926.01,848.15L926.01,848.15z"/>
		</g>
	</g>
	<g>
		<g>
			<path class="st2" d="M373.16,1069.9l-33.56-46.21c-4.55,4.29-6.98,9.42-7.29,15.39c-0.32,5.97,1.56,11.75,5.62,17.34
				c4.94,6.8,11.22,10.62,18.82,11.44l-2.53,10.53c-4.88-0.39-9.5-1.94-13.86-4.62c-4.36-2.69-8.26-6.39-11.69-11.12
				c-4.38-6.02-7.01-12.25-7.92-18.71c-0.91-6.45-0.07-12.56,2.52-18.33c2.59-5.77,6.69-10.68,12.27-14.74
				c5.51-4.01,11.39-6.39,17.63-7.14c6.24-0.75,12.16,0.14,17.79,2.68c5.62,2.54,10.41,6.53,14.36,11.98
				c3.95,5.44,6.24,11.19,6.87,17.25c0.63,6.06-0.41,11.9-3.11,17.53c-2.7,5.63-6.91,10.52-12.64,14.69
				C375.65,1068.42,374.56,1069.11,373.16,1069.9z M363.09,1015.58c-5.43-1.15-10.79-0.24-16.08,2.73l26.54,36.54
				c4.38-4.06,6.89-8.86,7.51-14.4c0.63-5.54-0.86-10.79-4.45-15.73C373.02,1019.77,368.52,1016.72,363.09,1015.58z"/>
			<path class="st2" d="M459.12,1101.01l-71.5,28.15l-9.23-9.19l27.83-71.63l9.41,9.37l-22.69,57.06l57.33-22.57L459.12,1101.01z"/>
			<path class="st2" d="M493.25,1174.46l-46.2-33.58c-3,5.48-3.72,11.11-2.18,16.89c1.55,5.78,5.12,10.69,10.7,14.75
				c6.8,4.95,13.95,6.64,21.44,5.07l0.85,10.8c-4.76,1.13-9.64,1.1-14.61-0.11c-4.98-1.21-9.83-3.53-14.56-6.97
				c-6.02-4.37-10.45-9.49-13.32-15.34c-2.86-5.86-3.95-11.93-3.26-18.22c0.68-6.29,3.06-12.23,7.12-17.81
				c4.01-5.51,8.86-9.59,14.56-12.24c5.7-2.64,11.61-3.63,17.74-2.95c6.13,0.68,11.91,2.99,17.36,6.95
				c5.44,3.96,9.4,8.72,11.86,14.29c2.46,5.57,3.28,11.44,2.46,17.63c-0.83,6.19-3.33,12.14-7.49,17.88
				C495.15,1172.29,494.33,1173.27,493.25,1174.46z M466.88,1125.91c-5.52,0.59-10.33,3.11-14.45,7.56l36.53,26.55
				c2.91-5.22,3.81-10.55,2.69-16.02c-1.12-5.47-4.15-10-9.09-13.58C477.63,1126.82,472.4,1125.32,466.88,1125.91z"/>
			<path class="st2" d="M579.73,1182.31c2.5,6.95,1.58,14.94-2.76,23.95l-17.58,36.5l-11.49-5.53l16.95-35.18
				c2.96-6.14,3.71-11.48,2.26-16.01s-4.93-8.12-10.44-10.78c-6.22-3-12-3.54-17.34-1.64c-5.34,1.9-9.64,6.24-12.91,13.02
				l-15.73,32.67l-11.49-5.53l30.55-63.42l11.01,5.3l-4.61,9.57c3.89-2.16,8.23-3.16,13.02-3.01c4.79,0.15,9.71,1.43,14.73,3.85
				C571.96,1169.94,577.23,1175.36,579.73,1182.31z"/>
			<path class="st2" d="M628.97,1260.79c-2.24,0.98-4.8,1.48-7.67,1.48c-2.87,0-5.7-0.42-8.5-1.27
				c-6.78-2.07-11.47-5.49-14.09-10.27c-2.62-4.78-2.89-10.55-0.83-17.33l11.27-36.97l-11.44-3.49l3.06-10.04l11.43,3.49l4.49-14.74
				l12.2,3.72l-4.49,14.74l19.31,5.89l-3.06,10.04l-19.31-5.89l-11.12,36.46c-1.11,3.64-1.05,6.72,0.17,9.22
				c1.23,2.5,3.53,4.27,6.92,5.31c3.72,1.13,7.22,1.05,10.5-0.27L628.97,1260.79z"/>
			<path class="st2" d="M653.34,1268.79c-4.98-2.42-8.75-5.07-11.31-7.93l6.94-9.06c2.68,2.71,6.09,5.09,10.23,7.14
				c4.14,2.06,8.43,3.46,12.89,4.22c11,1.88,17.03-0.32,18.11-6.61c0.36-2.09-0.1-3.88-1.38-5.35c-1.27-1.47-2.98-2.69-5.11-3.64
				c-2.13-0.95-5.19-2.12-9.17-3.52c-5.44-1.82-9.82-3.61-13.17-5.35c-3.34-1.74-6.04-4.18-8.11-7.32
				c-2.07-3.14-2.69-7.15-1.85-12.04c1.07-6.28,4.55-10.88,10.44-13.78c5.89-2.9,13.23-3.6,22.05-2.09
				c4.62,0.79,9.15,2.15,13.59,4.07c4.43,1.93,7.97,4.1,10.61,6.53l-7.07,9.03c-5.05-4.64-11.41-7.61-19.09-8.92
				c-5.33-0.91-9.53-0.73-12.62,0.54c-3.09,1.27-4.88,3.34-5.37,6.22c-0.39,2.27,0.09,4.19,1.44,5.77c1.35,1.58,3.13,2.87,5.34,3.88
				c2.21,1.01,5.34,2.26,9.39,3.76c5.42,1.92,9.76,3.71,13.03,5.39c3.26,1.68,5.89,4.04,7.89,7.07c1.99,3.04,2.59,6.91,1.78,11.62
				c-1.07,6.28-4.61,10.82-10.61,13.61c-6,2.79-13.63,3.4-22.88,1.82C663.64,1272.91,658.32,1271.21,653.34,1268.79z"/>
			<path class="st2" d="M774.06,1204.24l0.13,6.11l20.45-0.45l0.23,10.49l-20.18,0.45l1.33,59.89l-12.75,0.28l-1.33-59.89
				l-11.95,0.27l-0.23-10.49l11.95-0.26l-0.14-6.24c-0.16-6.99,1.76-12.57,5.74-16.73c3.98-4.16,9.64-6.32,16.99-6.49
				c2.83-0.06,5.5,0.23,7.99,0.89c2.49,0.65,4.64,1.62,6.44,2.91l-3.63,9.78c-2.97-2.15-6.27-3.18-9.9-3.1
				C777.6,1191.81,773.88,1196.01,774.06,1204.24z"/>
			<path class="st2" d="M825.12,1273.53c-5.99-2.2-10.96-5.74-14.91-10.63c-3.95-4.89-6.46-10.75-7.53-17.57
				c-1.07-6.82-0.48-13.17,1.79-19.04c2.26-5.86,5.91-10.74,10.95-14.62c5.04-3.88,11.01-6.36,17.92-7.45
				c6.91-1.08,13.34-0.55,19.28,1.62c5.94,2.16,10.88,5.69,14.83,10.58c3.95,4.89,6.46,10.75,7.53,17.57
				c1.07,6.82,0.47,13.17-1.79,19.04c-2.26,5.86-5.89,10.76-10.87,14.68c-4.99,3.92-10.94,6.42-17.85,7.5
				S831.11,1275.73,825.12,1273.53z M854.26,1259.21c3.22-2.61,5.54-5.93,6.97-9.97c1.43-4.03,1.77-8.45,1.01-13.26
				c-0.76-4.81-2.43-8.92-5.03-12.32c-2.59-3.4-5.82-5.83-9.68-7.29c-3.86-1.46-8.02-1.84-12.48-1.14s-8.31,2.34-11.53,4.9
				c-3.23,2.57-5.58,5.87-7.05,9.91c-1.47,4.04-1.83,8.47-1.08,13.28c0.75,4.81,2.45,8.92,5.09,12.31c2.64,3.4,5.89,5.84,9.75,7.34
				c3.87,1.5,8.03,1.9,12.49,1.2C847.2,1263.48,851.04,1261.82,854.26,1259.21z"/>
			<path class="st2" d="M906.13,1190.11c3.52-3.31,8.24-5.88,14.16-7.71l3.64,11.8c-0.7,0.13-1.65,0.37-2.83,0.73
				c-6.6,2.04-11.17,5.61-13.72,10.7c-2.55,5.1-2.7,11.28-0.45,18.56l10.35,33.5l-12.18,3.76l-20.77-67.26l11.68-3.61l3.49,11.29
				C900.4,1197.35,902.61,1193.42,906.13,1190.11z"/>
			<path class="st2" d="M1008.01,1183.42l-6.01,19l9.51,16.75l-11.09,6.3l-48.67-85.7l11.09-6.3l31.22,54.98l16.06-49.45l13.4-7.61
				l-11.39,39.92l48.69,19.85l-13.63,7.74L1008.01,1183.42z"/>
			<path class="st2" d="M1023.61,1110.03c-2.27-0.3-4.09-1.37-5.46-3.22c-1.37-1.85-1.89-3.92-1.56-6.21
				c0.34-2.29,1.5-4.18,3.49-5.66c1.99-1.48,4.1-2.09,6.34-1.82c2.24,0.27,4.05,1.32,5.42,3.17c1.43,1.92,1.97,4.03,1.63,6.32
				c-0.34,2.29-1.5,4.18-3.49,5.66C1028,1109.74,1025.87,1110.33,1023.61,1110.03z M1032.95,1122.94l10.23-7.61l42,56.49
				l-10.23,7.61L1032.95,1122.94z"/>
			<path class="st2" d="M1089.21,1035.72l68.77,70.59l-8.75,8.53l-7.79-7.99c0.69,4.77,0.19,9.4-1.5,13.88
				c-1.68,4.49-4.4,8.55-8.14,12.2c-4.89,4.76-10.31,7.94-16.28,9.56c-5.97,1.61-11.95,1.54-17.94-0.23
				c-5.99-1.77-11.45-5.19-16.4-10.26c-4.94-5.07-8.21-10.61-9.79-16.61c-1.58-6-1.49-11.96,0.28-17.89
				c1.77-5.92,5.09-11.27,9.98-16.03c3.62-3.52,7.61-6.08,11.98-7.68c4.38-1.6,8.87-2.06,13.49-1.38l-27.06-27.78L1089.21,1035.72z
				 M1131.27,1113.52c1.15-4.02,1.14-8.09-0.03-12.21c-1.17-4.12-3.45-7.92-6.85-11.41c-3.4-3.49-7.14-5.87-11.22-7.14
				c-4.08-1.27-8.14-1.37-12.16-0.3s-7.62,3.16-10.79,6.24c-3.24,3.15-5.42,6.71-6.57,10.67c-1.15,3.96-1.16,8.02-0.02,12.16
				c1.14,4.15,3.41,7.97,6.8,11.45c3.4,3.49,7.16,5.86,11.27,7.1c4.12,1.24,8.19,1.36,12.21,0.34c4.02-1.01,7.65-3.09,10.88-6.24
				C1127.96,1121.1,1130.12,1117.54,1131.27,1113.52z"/>
			<path class="st2" d="M1179.96,1076.92c-4.41,3.35-8.47,5.52-12.18,6.51l-4.95-10.27c3.62-1.17,7.29-3.15,10.99-5.92
				c3.7-2.77,6.89-5.96,9.58-9.6c6.64-8.97,7.39-15.35,2.27-19.14c-1.71-1.26-3.51-1.66-5.4-1.19c-1.89,0.47-3.74,1.45-5.54,2.92
				c-1.81,1.47-4.23,3.67-7.28,6.59c-4.08,4.03-7.66,7.14-10.71,9.34c-3.06,2.2-6.46,3.51-10.19,3.94
				c-3.74,0.43-7.59-0.83-11.58-3.78c-5.13-3.79-7.66-8.97-7.59-15.53c0.07-6.56,2.76-13.44,8.08-20.63
				c2.79-3.77,6.05-7.2,9.76-10.29c3.72-3.09,7.26-5.26,10.61-6.52l4.87,10.38c-6.41,2.41-11.94,6.75-16.57,13.01
				c-3.21,4.34-4.95,8.18-5.21,11.51c-0.26,3.33,0.78,5.86,3.13,7.6c1.85,1.37,3.78,1.81,5.8,1.32c2.02-0.49,3.97-1.49,5.86-3.01
				c1.9-1.52,4.43-3.75,7.6-6.69c4.16-3.97,7.72-7.04,10.69-9.19c2.97-2.15,6.26-3.44,9.87-3.85c3.61-0.41,7.34,0.8,11.18,3.65
				c5.12,3.79,7.58,9,7.36,15.61c-0.22,6.61-3.12,13.7-8.7,21.24C1188.28,1069.58,1184.36,1073.57,1179.96,1076.92z"/>
		</g>
	</g>
	<circle class="st2" cx="291.63" cy="850.33" r="10.79"/>
	<circle class="st2" cx="1232.94" cy="850.33" r="10.79"/>
	<path class="st2" d="M282.14,497.88l116.03,32.78c2.25,0.64,3.45,3.08,2.58,5.25L386.8,570.6c-0.79,1.97-3.01,2.96-5,2.22
		l-48.85-17.91c-4.41-1.62-7.43,4.45-3.49,7l45.57,29.41c1.58,1.02,2.22,3.02,1.52,4.77l-14.79,36.76c-0.7,1.74-2.53,2.74-4.38,2.4
		l-53.25-10.05c-4.6-0.87-6.59,5.59-2.3,7.47l47.54,20.75c1.95,0.85,2.87,3.1,2.08,5.07l-13.95,34.68c-0.87,2.17-3.43,3.1-5.5,2
		l-106.42-56.68c-1.77-0.94-2.55-3.07-1.8-4.94l19.78-49.19c0.71-1.76,2.57-2.76,4.43-2.39l57.35,11.66
		c4.33,0.88,6.6-4.95,2.81-7.22l-49.8-29.97c-1.65-1-2.34-3.05-1.62-4.84l20.67-51.41C278.17,498.33,280.2,497.33,282.14,497.88z"/>
	<path class="st2" d="M328.21,458.87c-5.06,0.68-9.93-0.75-14.62-4.27c-4.6-3.45-7.32-7.73-8.17-12.85
		c-0.85-5.11,0.94-10.63,5.38-16.53c4.23-5.63,8.99-8.79,14.29-9.51c5.3-0.71,10.21,0.63,14.71,4.01c4.69,3.53,7.39,7.83,8.12,12.92
		c0.72,5.09-1.1,10.55-5.47,16.36C338.02,454.9,333.27,458.19,328.21,458.87z M417.76,525.98c-1.34,1.79-3.9,2.1-5.63,0.68
		c-13.21-10.81-24.39-19.65-33.51-26.51c-10.83-8.13-23.09-16.85-36.8-26.15c-1.86-1.26-2.3-3.83-0.95-5.62l20.4-27.15
		c1.35-1.8,3.94-2.09,5.67-0.65c12.26,10.21,24.05,19.56,35.36,28.06c9.54,7.17,21.13,15.44,34.77,24.81
		c1.85,1.27,2.27,3.82,0.92,5.61L417.76,525.98z"/>
	<path class="st2" d="M472.41,463.39l-17.61,17.56c-1.49,1.48-3.87,1.54-5.42,0.13c-13.36-12.2-71.14-65.03-84.15-77.79
		l-10.71-10.55c-1.56-1.53-1.57-4.04-0.02-5.59l23.75-23.68c1.56-1.56,4.1-1.53,5.62,0.07c16.28,17.13,74.58,79.81,88.6,94.35
		C473.96,459.42,473.93,461.87,472.41,463.39z"/>
	<path class="st2" d="M533.36,359.51l-40.62,32.57c-2.2,1.76-1.91,5.26,0.6,6.54c2.68,1.37,5.53,2.11,8.57,2.24
		c4.9,0.21,10-1.82,15.31-6.08c3.84-3.08,6.85-6.74,9.03-10.96c1.69-3.29,2.66-6.61,2.93-9.98c0.13-1.72,1.29-3.17,2.97-3.58
		c7.02-1.71,15.36-4.26,25.03-7.64c2.36-0.83,4.92,0.73,5.22,3.22c0.89,7.28-0.47,14.93-4.08,22.94
		c-4.41,9.78-12.61,19.48-24.6,29.09c-15.56,12.48-29.94,18.12-43.16,16.91c-13.22-1.2-24.53-7.66-33.92-19.38
		c-9.17-11.44-12.92-23.7-11.23-36.78c1.69-13.08,10.36-25.9,26.01-38.45c9.33-7.48,18.68-12.42,28.04-14.82
		c9.36-2.39,18.09-2.29,26.19,0.31c8.1,2.6,15.01,7.47,20.74,14.61c0.71,0.88,1.33,1.69,1.88,2.43c1.27,1.7,0.96,4.09-0.7,5.42
		L533.36,359.51z M480.78,371.01c-0.46,1.22-0.8,2.44-1.01,3.66c-0.63,3.6,3.49,6.08,6.34,3.8l21.18-16.99
		c2.7-2.16,1.49-6.51-1.93-6.98c-1.2-0.16-2.42-0.22-3.66-0.15c-3.9,0.2-7.82,1.87-11.76,5.03
		C485.37,363.04,482.31,366.92,480.78,371.01z"/>
	<path class="st2" d="M645.63,263.54c2.63-0.9,5.33,1.14,5.2,3.91l-0.25,5.18c-0.94,31.69-2.72,62.55-5.35,92.58
		c-1.44,15.37-6.44,29.01-15.01,40.93c-8.05,11.2-19.93,19.58-35.61,25.12c-1.76,0.62-3.71-0.04-4.7-1.62
		c-4.5-7.23-8.16-12.93-10.97-17.12c-1.89-2.81-3.94-5.58-6.13-8.31c-1.89-2.34-0.61-5.83,2.36-6.34c3.9-0.68,7.55-1.6,10.93-2.76
		c7.26-2.48,12.83-5.83,16.71-10.03c1.27-1.38,1.31-3.5,0.16-4.99c-7.58-9.78-16.03-20.11-25.35-30.99
		c-9.35-10.91-22.23-25.32-38.65-43.25c-1.91-2.09-1.06-5.47,1.62-6.38l30.86-10.55c1.7-0.58,3.57,0.05,4.55,1.55
		c2.92,4.46,6.41,9.42,10.46,14.89c4.84,6.53,9.58,12.78,14.22,18.75c1.39,1.88,3.56,4.7,6.52,8.46c0.03,0.04,0.06,0.08,0.09,0.11
		c2.32,2.96,7.07,1.29,7.02-2.47l-0.03-2.76c0.08-23.96-0.3-40.5-1.13-49.63c-0.17-1.81,0.92-3.49,2.64-4.07L645.63,263.54z"/>
	<path class="st2" d="M724,314.77c2.32-3.94,4.61-8.4,6.88-13.37c0.97-2.12,3.56-2.94,5.57-1.76c7.17,4.24,15.36,7.77,24.57,10.61
		c10.85,3.35,21.02,5.29,30.5,5.85c9.72,0.57,16.62,0.13,20.7-1.34c4.08-1.46,6.18-3.19,6.3-5.18c0.42-7.14-10.26-11.36-32.04-12.64
		c-23.89-1.41-41.08-4.91-51.56-10.53c-10.48-5.61-15.39-13.98-14.74-25.1c0.93-15.81,8.17-27.08,21.73-33.8
		c13.56-6.72,30.81-9.47,51.78-8.23c12.18,0.72,24.59,3.01,37.23,6.86c11.27,3.44,21.49,7.73,30.66,12.87
		c1.84,1.03,2.57,3.28,1.65,5.17c-3.38,6.88-6.96,15.01-10.74,24.38c-0.02,0.06-0.05,0.12-0.07,0.19c-0.9,2.45-3.86,3.31-6,1.81
		c-5.52-3.87-12.97-7.35-22.34-10.46c-11.87-3.93-22.44-6.17-31.68-6.71c-11.13-0.65-18.66-0.36-22.61,0.87
		c-3.95,1.24-6.01,3.26-6.17,6.07c-0.17,2.81,2.36,5.22,7.59,7.23c5.23,2.01,12.88,3.31,22.95,3.91c24.82,1.46,42.69,5.36,53.6,11.7
		c10.91,6.34,16.02,15.37,15.33,27.08c-0.97,16.4-7.63,27.84-20,34.34c-12.37,6.5-30.67,9.03-54.91,7.61
		c-13-0.77-26.15-2.98-39.44-6.64c-11.65-3.2-22.2-7.36-31.66-12.47c-2.1-1.13-2.73-3.86-1.33-5.79
		C718.92,322.91,721.68,318.72,724,314.77z"/>
	<path class="st2" d="M990.95,413.95c-2.03-0.99-2.81-3.46-1.72-5.43c6.84-12.33,13.53-25.22,20.05-38.67
		c2.3-4.75,2.92-9.05,1.85-12.89c-1.07-3.84-3.56-6.71-7.46-8.61c-3.59-1.74-7.45-1.65-11.57,0.26c-4.13,1.91-7.64,5.88-10.56,11.89
		l0.07-0.16c-7.76,16-13.39,28.11-16.9,36.32c-0.88,2.07-3.31,2.97-5.33,1.99l-28.2-13.68c-2.01-0.97-2.8-3.43-1.75-5.4
		c7.37-13.84,13.98-26.78,19.82-38.83c2.25-4.64,2.91-8.89,1.97-12.73c-0.94-3.84-3.15-6.61-6.63-8.3
		c-3.7-1.79-7.54-1.73-11.53,0.18c-3.99,1.91-7.51,5.45-10.54,10.63c-4.1,7.92-6.97,13.57-8.61,16.95
		c-2.98,6.14-6.04,12.85-9.19,20.13c-0.89,2.05-3.31,2.94-5.32,1.97l-30.4-14.75c-2.03-0.98-2.8-3.47-1.72-5.44
		c7.42-13.47,14.13-26.41,20.14-38.81c6-12.36,12.03-25.7,18.09-40c0.9-2.13,3.44-3.04,5.49-1.94c5,2.68,8.98,4.74,11.96,6.18
		c3.3,1.6,7.68,3.58,13.13,5.95c1.77,0.77,2.74,2.72,2.26,4.59l-2.57,9.99c-0.9,3.51,3.02,6.26,6.02,4.22
		c3.74-2.55,7.57-4.23,11.51-5.04c7.25-1.5,14.3-0.59,21.16,2.74c8.23,3.99,13.86,9.53,16.88,16.6c1.76,4.13,2.63,8.39,2.59,12.8
		c-0.03,3.16,3.58,4.95,6.23,3.21c4.07-2.68,8.47-4.53,13.19-5.53c7.85-1.67,15.42-0.74,22.7,2.79c9.5,4.61,15.39,11.41,17.68,20.41
		c2.29,9,0.74,19.04-4.64,30.12l-12.74,26.28c-4.63,9.54-8.17,17.02-10.63,22.44c-0.91,2.01-3.3,2.87-5.29,1.91L990.95,413.95z"/>
	<path class="st2" d="M1030.66,446.41c-1.67-1.49-1.76-4.07-0.2-5.67c11.89-12.25,21.64-22.64,29.25-31.15
		c9.02-10.1,18.74-21.59,29.17-34.46c1.41-1.75,4.01-1.97,5.68-0.47l25.33,22.63c1.68,1.5,1.75,4.1,0.16,5.7
		c-11.21,11.35-21.53,22.31-30.95,32.86c-7.95,8.9-17.17,19.74-27.66,32.54c-1.42,1.73-4,1.94-5.67,0.45L1030.66,446.41z
		 M1105.11,362.85c-0.25-5.1,1.58-9.83,5.49-14.21c3.83-4.28,8.33-6.64,13.5-7.05c5.17-0.42,10.51,1.84,16.02,6.76
		c5.25,4.69,8,9.7,8.26,15.05c0.26,5.35-1.49,10.12-5.24,14.32c-3.91,4.38-8.43,6.71-13.56,7c-5.14,0.29-10.42-1.99-15.84-6.83
		C1108.23,372.95,1105.35,367.94,1105.11,362.85z"/>
	<path class="st2" d="M1089.2,505.21l-16.53-18.8c-1.41-1.6-1.28-4.03,0.28-5.48l94.88-88.04c1.63-1.51,4.19-1.37,5.65,0.31
		l21.9,25.27c1.45,1.67,1.24,4.2-0.46,5.6c-18.23,15.03-84.81,68.65-100.24,81.55C1093.03,507,1090.61,506.81,1089.2,505.21z"/>
	<path class="st2" d="M1188.79,573.29l-30.14-42.45c-1.63-2.3-5.14-2.22-6.56,0.21c-1.52,2.59-2.43,5.4-2.74,8.42
		c-0.49,4.88,1.23,10.09,5.17,15.64c2.86,4.02,6.32,7.23,10.42,9.65c3.18,1.88,6.44,3.05,9.79,3.51c1.71,0.23,3.09,1.47,3.4,3.17
		c1.3,7.11,3.35,15.59,6.16,25.44c0.69,2.41-1.02,4.86-3.52,5.02c-7.32,0.47-14.87-1.34-22.66-5.42c-9.5-4.98-18.7-13.73-27.6-26.26
		c-11.55-16.26-16.33-30.95-14.36-44.08c1.97-13.13,9.08-24.03,21.32-32.73c11.96-8.49,24.42-11.51,37.38-9.06
		c12.96,2.45,25.25,11.85,36.86,28.21c6.93,9.76,11.31,19.38,13.15,28.86c1.84,9.48,1.23,18.19-1.84,26.12
		c-3.07,7.93-8.34,14.55-15.8,19.85c-0.92,0.65-1.77,1.23-2.53,1.74c-1.77,1.17-4.14,0.72-5.37-1.01L1188.79,573.29z
		 M1180.39,520.13c-1.2-0.53-2.39-0.94-3.59-1.22c-3.55-0.84-6.28,3.12-4.16,6.1l15.72,22.14c2,2.82,6.41,1.87,7.08-1.52
		c0.23-1.18,0.36-2.4,0.37-3.64c0.03-3.91-1.41-7.92-4.33-12.03C1188.07,525.17,1184.38,521.9,1180.39,520.13z"/>
	<path class="st2" d="M1276.36,692.15c0.71,2.68-1.5,5.24-4.26,4.92l-5.15-0.61c-31.55-3.14-62.21-7.06-91.98-11.77
		c-15.23-2.5-28.49-8.44-39.79-17.82c-10.62-8.82-18.15-21.24-22.58-37.27c-0.5-1.79,0.3-3.7,1.94-4.57
		c7.52-3.99,13.47-7.24,17.84-9.76c2.94-1.69,5.84-3.54,8.72-5.54c2.47-1.72,5.85-0.2,6.16,2.79c0.41,3.94,1.07,7.64,2,11.1
		c1.97,7.41,4.92,13.2,8.84,17.37c1.29,1.37,3.4,1.55,4.96,0.5c10.29-6.88,21.18-14.59,32.68-23.14
		c11.53-8.57,26.8-20.42,45.83-35.55c2.22-1.76,5.53-0.68,6.26,2.06l8.38,31.52c0.46,1.73-0.3,3.55-1.86,4.43
		c-4.65,2.61-9.84,5.74-15.58,9.4c-6.85,4.37-13.42,8.67-19.7,12.89c-1.97,1.25-4.94,3.23-8.9,5.92c-0.04,0.03-0.08,0.05-0.12,0.08
		c-3.11,2.11-1.77,6.96,1.98,7.18l2.75,0.16c23.89,1.74,40.42,2.51,49.59,2.32c1.82-0.04,3.41,1.16,3.88,2.92L1276.36,692.15z"/>
</g>
</svg>
