<?xml version="1.0" encoding="utf-8"?>
<!-- Generator: Adobe Illustrator 26.2.1, SVG Export Plug-In . SVG Version: 6.00 Build 0)  -->
<svg version="1.1" id="Слой_1" xmlns="http://www.w3.org/2000/svg" xmlns:xlink="http://www.w3.org/1999/xlink" x="0px" y="0px"
	 viewBox="0 0 520.98 181.12" style="enable-background:new 0 0 520.98 181.12;" xml:space="preserve">
<style type="text/css">
	.st0{fill:#00B7F4;}
</style>
<g>
	<path d="M117.02,109.65h21.8v7.12h-32.48V54.48h32.48v7.12h-21.8v19.13h19.13v7.12h-19.13V109.65z"/>
	<path d="M161.96,54.48l14.06,42.27h0.36l14.06-42.27h11.57l3.56,62.29h-10.23l-2.4-42.18h-0.36l-11.48,34.62h-9.79l-11.48-34.62
		h-0.36l-2.4,42.18h-10.23l3.56-62.29H161.96z"/>
	<path d="M234.49,53.59c3.09,0,5.89,0.55,8.41,1.65c2.52,1.1,4.67,2.89,6.45,5.38c1.78,2.49,3.16,5.78,4.14,9.88
		c0.98,4.09,1.47,9.14,1.47,15.13c0,5.99-0.49,11.03-1.47,15.13c-0.98,4.09-2.36,7.39-4.14,9.88c-1.78,2.49-3.93,4.29-6.45,5.38
		s-5.32,1.65-8.41,1.65c-3.14,0-5.98-0.55-8.5-1.65c-2.52-1.1-4.67-2.89-6.45-5.38c-1.78-2.49-3.15-5.78-4.09-9.88
		c-0.95-4.09-1.42-9.13-1.42-15.13c0-5.99,0.47-11.03,1.42-15.13c0.95-4.09,2.31-7.39,4.09-9.88c1.78-2.49,3.93-4.29,6.45-5.38
		C228.51,54.14,231.35,53.59,234.49,53.59z M234.49,111.43c1.25,0,2.45-0.39,3.61-1.16c1.16-0.77,2.19-2.14,3.11-4.09
		c0.92-1.96,1.66-4.6,2.23-7.92c0.56-3.32,0.85-7.53,0.85-12.64c0-5.1-0.28-9.31-0.85-12.64c-0.56-3.32-1.31-5.96-2.23-7.92
		s-1.96-3.32-3.11-4.09c-1.16-0.77-2.36-1.16-3.61-1.16c-1.25,0-2.45,0.39-3.6,1.16c-1.16,0.77-2.2,2.14-3.11,4.09
		c-0.92,1.96-1.66,4.6-2.23,7.92c-0.56,3.32-0.85,7.53-0.85,12.64c0,5.1,0.28,9.31,0.85,12.64c0.56,3.32,1.3,5.96,2.23,7.92
		c0.92,1.96,1.96,3.32,3.11,4.09C232.04,111.05,233.24,111.43,234.49,111.43z"/>
	<path d="M258.07,54.48h38.27v7.12h-13.79v55.17h-10.68V61.6h-13.79V54.48z"/>
	<path d="M314.14,54.48v62.29h-10.68V54.48H314.14z"/>
	<path d="M344.84,53.59c3.09,0,5.89,0.55,8.41,1.65c2.52,1.1,4.67,2.89,6.45,5.38c1.78,2.49,3.16,5.78,4.14,9.88
		c0.98,4.09,1.47,9.14,1.47,15.13c0,5.99-0.49,11.03-1.47,15.13c-0.98,4.09-2.36,7.39-4.14,9.88c-1.78,2.49-3.93,4.29-6.45,5.38
		c-2.52,1.1-5.32,1.65-8.41,1.65c-3.14,0-5.98-0.55-8.5-1.65c-2.52-1.1-4.67-2.89-6.45-5.38c-1.78-2.49-3.15-5.78-4.09-9.88
		c-0.95-4.09-1.42-9.13-1.42-15.13c0-5.99,0.47-11.03,1.42-15.13s2.31-7.39,4.09-9.88c1.78-2.49,3.93-4.29,6.45-5.38
		C338.86,54.14,341.69,53.59,344.84,53.59z M344.84,111.43c1.25,0,2.45-0.39,3.61-1.16c1.16-0.77,2.19-2.14,3.11-4.09
		c0.92-1.96,1.66-4.6,2.23-7.92c0.56-3.32,0.85-7.53,0.85-12.64c0-5.1-0.28-9.31-0.85-12.64c-0.56-3.32-1.31-5.96-2.23-7.92
		c-0.92-1.96-1.96-3.32-3.11-4.09c-1.16-0.77-2.36-1.16-3.61-1.16c-1.25,0-2.45,0.39-3.6,1.16c-1.16,0.77-2.2,2.14-3.11,4.09
		c-0.92,1.96-1.66,4.6-2.23,7.92c-0.56,3.32-0.85,7.53-0.85,12.64c0,5.1,0.28,9.31,0.85,12.64c0.56,3.32,1.3,5.96,2.23,7.92
		c0.92,1.96,1.96,3.32,3.11,4.09C342.39,111.05,343.59,111.43,344.84,111.43z"/>
	<path d="M386.22,75.83h-0.45v40.94h-10.23V54.48h10.68l16.91,40.93h0.45V54.48h10.23v62.29h-10.68L386.22,75.83z"/>
	<path d="M422.7,69.61c0-4.92,1.53-8.82,4.58-11.7c3.05-2.88,7.61-4.32,13.66-4.32c3.14,0,5.96,0.18,8.45,0.53
		c2.49,0.36,4.42,0.77,5.78,1.25v4.89h-12.46c-2.91,0-5.19,0.83-6.85,2.49c-1.66,1.66-2.49,3.95-2.49,6.85
		c0,2.61,0.62,4.69,1.87,6.23c1.25,1.54,2.82,2.86,4.72,3.96c1.9,1.1,3.93,2.12,6.1,3.07c2.17,0.95,4.2,2.15,6.1,3.6
		c1.9,1.45,3.47,3.29,4.72,5.52c1.25,2.23,1.87,5.15,1.87,8.77c0,5.34-1.68,9.49-5.03,12.46c-3.35,2.97-8.8,4.45-16.33,4.45
		c-3.15,0-5.96-0.18-8.45-0.53c-2.49-0.36-4.42-0.77-5.78-1.25v-4.89h12.46c4.45,0,7.64-0.86,9.57-2.58
		c1.93-1.72,2.89-4.27,2.89-7.65c0-2.43-0.62-4.37-1.87-5.83c-1.25-1.45-2.82-2.7-4.72-3.74c-1.9-1.04-3.93-2.03-6.1-2.98
		c-2.17-0.95-4.2-2.18-6.1-3.69c-1.9-1.51-3.47-3.43-4.72-5.74C423.32,76.46,422.7,73.4,422.7,69.61z"/>
</g>
<g>
	<path class="st0" d="M73.59,108.37c1.21-1.94,1.82-4.84,1.82-8.62c0-4.18-0.66-7.71-1.95-10.47c-1.67-3.55-4.12-5.28-7.48-5.28
		c-3.23,0-5.61,1.73-7.28,5.28c-1.36,2.94-2.05,6.47-2.05,10.47c0,3.46,0.74,6.32,2.19,8.5c1.66,2.48,3.99,3.69,7.15,3.69
		C69.63,111.94,72.12,110.77,73.59,108.37z"/>
	<path class="st0" d="M65.88,59.43c-1.38,0-2.54,0.56-3.55,1.7c-1.47,1.72-2.22,4.49-2.22,8.23c0,2.74,0.78,5,2.31,6.72
		c1.19,1.32,2.38,1.99,3.55,1.99c1.34,0,2.62-0.58,3.89-1.76c1.65-1.55,2.45-3.64,2.45-6.39c0-3.61-0.88-6.44-2.61-8.42
		C68.47,60.13,67.18,59.43,65.88,59.43z"/>
	<path class="st0" d="M92.04,54.32H66.26l-0.07,0.03c0.02,0,0.05,0,0.07,0c5.39,0,9.75,1.59,12.97,4.72
		c2.9,2.82,4.37,6.29,4.37,10.29c0,2.63-0.72,5.11-2.13,7.38c-1.14,1.82-2.67,3.24-4.58,4.25c2.96,1.5,5.42,3.81,7.32,6.88
		c2.21,3.58,3.34,7.45,3.34,11.51c0,5.06-1.73,9.34-5.13,12.72c-3.86,3.82-9.39,5.76-16.44,5.76h26.06c2.43,0,4.42-1.99,4.42-4.42
		V58.74C96.46,56.31,94.47,54.32,92.04,54.32z"/>
</g>
</svg>
