<?xml version="1.0" encoding="utf-8"?>
<!-- Generator: Adobe Illustrator 26.2.1, SVG Export Plug-In . SVG Version: 6.00 Build 0)  -->
<svg version="1.1" id="Layer_1" xmlns="http://www.w3.org/2000/svg" xmlns:xlink="http://www.w3.org/1999/xlink" x="0px" y="0px"
	 viewBox="0 0 2000 2000" style="enable-background:new 0 0 2000 2000;" xml:space="preserve">
<style type="text/css">
	.st0{fill:#1F3D37;}
</style>
<g>
	<path class="st0" d="M697.24,1167.48L697.24,1167.48c1.52,0,2.89,0.92,3.47,2.33l16.33,39.74l16.33-39.74
		c0.58-1.41,1.95-2.33,3.47-2.33h0c2.68,0,4.5,2.73,3.46,5.2l-18.21,43.55l24.3,56.42l43.39-103.69c0.58-1.4,1.95-2.3,3.46-2.3h0.94
		c2.69,0,4.51,2.75,3.45,5.23l-45.82,107.02c-0.91,2.14-3.01,3.52-5.34,3.52l0,0c-2.33,0-4.43-1.39-5.34-3.52l-23.93-55.99
		l-24.09,56.01c-0.92,2.13-3.01,3.51-5.33,3.51h0c-2.33,0-4.43-1.39-5.34-3.53l-45.67-107.02c-1.06-2.48,0.76-5.23,3.45-5.23h0.79
		c1.51,0,2.87,0.91,3.46,2.3l43.55,103.69l23.97-56.42l-18.21-43.55C692.75,1170.21,694.56,1167.48,697.24,1167.48z"/>
	<path class="st0" d="M840.16,1284.07c-5.98,0-11.52-1.16-16.63-3.49c-5.11-2.33-9.54-5.52-13.29-9.59
		c-3.75-4.06-6.69-8.77-8.8-14.13c-2.12-5.36-3.18-11.02-3.18-16.98c0-8.01,1.79-15.27,5.38-21.77c3.59-6.5,8.53-11.72,14.84-15.68
		c6.3-3.95,13.37-5.93,21.2-5.93c8.04,0,15.16,2.01,21.36,6.01c6.2,4.01,11.11,9.29,14.76,15.84c3.64,6.55,5.46,13.73,5.46,21.53
		c0,0.65,0,1.3,0,1.95c0,0.65-0.06,1.19-0.16,1.62h-74.36c0.43,6.39,2.23,12.17,5.38,17.37c3.15,5.19,7.2,9.28,12.15,12.25
		c4.94,2.98,10.35,4.46,16.22,4.46c5.87,0,11.41-1.52,16.63-4.56c4.33-2.52,7.57-5.65,9.73-9.37c0.81-1.39,2.48-2.02,4.04-1.6l0,0
		c2.39,0.65,3.42,3.44,2.09,5.53c-1.46,2.31-3.3,4.44-5.51,6.41c-3.53,3.15-7.66,5.63-12.39,7.42
		C850.35,1283.17,845.37,1284.07,840.16,1284.07z M806.4,1237.11h67.02c-0.44-6.6-2.18-12.44-5.22-17.53
		c-3.05-5.09-7.04-9.09-11.98-12.01c-4.95-2.92-10.41-4.38-16.39-4.38c-5.98,0-11.41,1.46-16.31,4.38
		c-4.89,2.92-8.86,6.92-11.9,12.01C808.58,1224.67,806.84,1230.51,806.4,1237.11z"/>
	<path class="st0" d="M893.31,1240.37c0-7.91,1.68-15.16,5.06-21.77c3.37-6.61,7.99-11.94,13.86-16c5.87-4.06,12.56-6.09,20.06-6.09
		c7.39,0,13.94,1.96,19.65,5.87c5.71,3.91,10.19,8.59,13.45,14.02v-48.92c0-2.25,1.83-4.08,4.08-4.08l0,0
		c2.25,0,4.08,1.83,4.08,4.08v104.2c0,1.31,0.3,2.28,0.9,2.93c0.29,0.32,1.35,0.57,2.5,0.76c1.79,0.29,3.09,1.86,3.09,3.68l0,0
		c0,2.12-1.76,3.8-3.88,3.73c-1.4-0.04-2.68-0.13-3.1-0.18c-1.96-0.33-3.59-1.25-4.89-2.77c-1.3-1.52-1.96-3.15-1.96-4.89v-9.46
		c-3.48,5.65-8.15,10.17-14.02,13.53c-5.87,3.37-11.9,5.06-18.1,5.06c-5.87,0-11.31-1.22-16.31-3.65c-5-2.43-9.32-5.71-12.96-9.83
		c-3.64-4.12-6.47-8.77-8.48-13.97C894.32,1251.42,893.31,1246,893.31,1240.37z M965.39,1254v-27.76
		c-1.52-4.11-3.97-7.88-7.34-11.28c-3.37-3.41-7.17-6.11-11.41-8.11c-4.24-2-8.42-3-12.56-3c-4.89,0-9.32,1.03-13.29,3.09
		c-3.97,2.05-7.39,4.81-10.27,8.28c-2.88,3.46-5.08,7.39-6.6,11.77c-1.52,4.38-2.28,8.9-2.28,13.55c0,4.76,0.87,9.34,2.61,13.72
		c1.74,4.38,4.16,8.28,7.26,11.69c3.1,3.41,6.69,6.06,10.76,7.95c4.08,1.89,8.51,2.84,13.29,2.84c2.93,0,6.06-0.59,9.37-1.79
		c3.32-1.19,6.47-2.84,9.46-4.95c2.99-2.11,5.49-4.55,7.5-7.31C963.89,1259.93,965.06,1257.04,965.39,1254z"/>
	<path class="st0" d="M992.42,1240.37c0-7.91,1.68-15.16,5.06-21.77c3.37-6.61,7.99-11.94,13.86-16c5.87-4.06,12.56-6.09,20.06-6.09
		c7.39,0,13.94,1.96,19.65,5.87c5.71,3.91,10.19,8.59,13.45,14.02v-48.92c0-2.25,1.83-4.08,4.08-4.08l0,0
		c2.25,0,4.08,1.83,4.08,4.08v104.2c0,1.31,0.3,2.28,0.9,2.93c0.29,0.32,1.35,0.57,2.5,0.76c1.79,0.29,3.09,1.86,3.09,3.68l0,0
		c0,2.12-1.76,3.8-3.88,3.73c-1.4-0.04-2.68-0.13-3.1-0.18c-1.96-0.33-3.59-1.25-4.89-2.77c-1.3-1.52-1.96-3.15-1.96-4.89v-9.46
		c-3.48,5.65-8.15,10.17-14.02,13.53c-5.87,3.37-11.9,5.06-18.1,5.06c-5.87,0-11.31-1.22-16.31-3.65c-5-2.43-9.32-5.71-12.96-9.83
		c-3.64-4.12-6.47-8.77-8.48-13.97C993.42,1251.42,992.42,1246,992.42,1240.37z M1064.49,1254v-27.76
		c-1.52-4.11-3.97-7.88-7.34-11.28c-3.37-3.41-7.17-6.11-11.41-8.11c-4.24-2-8.42-3-12.56-3c-4.89,0-9.32,1.03-13.29,3.09
		c-3.97,2.05-7.39,4.81-10.27,8.28c-2.88,3.46-5.08,7.39-6.6,11.77c-1.52,4.38-2.28,8.9-2.28,13.55c0,4.76,0.87,9.34,2.61,13.72
		c1.74,4.38,4.16,8.28,7.26,11.69c3.1,3.41,6.69,6.06,10.76,7.95c4.08,1.89,8.51,2.84,13.29,2.84c2.93,0,6.06-0.59,9.37-1.79
		c3.32-1.19,6.47-2.84,9.46-4.95c2.99-2.11,5.49-4.55,7.5-7.31C1063,1259.93,1064.17,1257.04,1064.49,1254z"/>
	<path class="st0" d="M1099.75,1174.33v-6.85c0-2.25,1.83-4.08,4.08-4.08l0,0c2.25,0,4.08,1.83,4.08,4.08v6.85
		c0,2.25-1.83,4.08-4.08,4.08l0,0C1101.57,1178.4,1099.75,1176.58,1099.75,1174.33z M1099.75,1278.36v-76.64
		c0-2.25,1.83-4.08,4.08-4.08l0,0c2.25,0,4.08,1.83,4.08,4.08v76.64c0,2.25-1.83,4.08-4.08,4.08l0,0
		C1101.57,1282.44,1099.75,1280.61,1099.75,1278.36z"/>
	<path class="st0" d="M1198.72,1282.44L1198.72,1282.44c-2.25,0-4.08-1.83-4.08-4.08v-43.01c0-10.83-1.55-18.75-4.65-23.79
		s-8.02-7.55-14.76-7.55c-4.78,0-9.49,1.14-14.1,3.41c-4.62,2.27-8.64,5.38-12.07,9.33c-3.42,3.95-5.9,8.41-7.42,13.39v48.23
		c0,2.25-1.83,4.08-4.08,4.08l0,0c-2.25,0-4.08-1.83-4.08-4.08v-76.72c0-2.12,1.72-3.83,3.83-3.83l0,0c2.12,0,3.83,1.72,3.83,3.83
		v16.47c2.28-4.33,5.32-8.09,9.13-11.29c3.96-3.33,8.4-5.92,13.3-7.78c3.78-1.43,7.79-2.28,11.83-2.48
		c5.6-0.28,10.24,0.54,13.92,2.46c3.21,1.68,5.81,4.09,7.83,7.23c2.01,3.14,3.45,7.04,4.32,11.7c0.87,4.66,1.31,9.96,1.31,15.92
		v44.49C1202.8,1280.61,1200.97,1282.44,1198.72,1282.44z"/>
	<path class="st0" d="M1261.66,1284.07c-5.76,0-11.12-1.2-16.06-3.59c-4.95-2.39-9.19-5.68-12.72-9.87
		c-3.53-4.18-6.3-8.85-8.31-14.02c-2.03-5.22-3.06-10.81-3.02-16.42c0.04-5.64,0.99-11.06,2.85-16.28c1.9-5.32,4.62-10.03,8.15-14.1
		c3.53-4.08,7.69-7.31,12.47-9.7c4.78-2.39,10.11-3.59,15.98-3.59c7.39,0,13.83,1.9,19.32,5.71c5.49,3.81,10.14,8.48,13.94,14.02
		v-14.67c0-2.07,1.68-3.75,3.75-3.75l0,0c2.07,0,3.75,1.68,3.75,3.75v82.55c0,7.6-1.85,14-5.55,19.22
		c-3.7,5.21-8.59,9.09-14.68,11.64c-6.09,2.55-12.66,3.83-19.73,3.83c-9.89,0-17.75-1.79-23.56-5.38
		c-4.82-2.97-8.87-6.72-12.15-11.26c-1.12-1.55-0.78-3.72,0.81-4.8l0,0c1.39-0.94,3.28-0.72,4.36,0.54
		c2.68,3.15,5.33,6.39,8.91,8.45c6.67,3.83,13.89,5.75,21.64,5.75c5.76,0,11.06-1.05,15.9-3.14c4.84-2.1,8.7-5.21,11.58-9.35
		c2.88-4.14,4.32-9.22,4.32-15.23v-18.59c-3.37,5.54-7.97,9.97-13.78,13.29C1274.03,1282.41,1267.96,1284.07,1261.66,1284.07z
		 M1263.62,1277.06c3.59,0,7.06-0.65,10.44-1.96c3.37-1.3,6.47-3.07,9.29-5.3c2.83-2.23,5.16-4.7,7.01-7.42
		c1.85-2.72,2.93-5.43,3.26-8.15v-27.88c-1.63-4.35-4.11-8.23-7.42-11.66c-3.32-3.42-7.04-6.09-11.17-7.99
		c-4.13-1.9-8.37-2.85-12.72-2.85c-5.11,0-9.68,1.09-13.7,3.26c-4.02,2.18-7.42,5.03-10.19,8.56c-2.77,3.53-4.89,7.5-6.36,11.9
		c-1.47,4.4-2.2,8.78-2.2,13.13c0,4.89,0.87,9.51,2.61,13.86c1.74,4.35,4.16,8.23,7.26,11.66c3.1,3.42,6.69,6.09,10.76,7.99
		C1254.57,1276.11,1258.94,1277.06,1263.62,1277.06z"/>
	<path class="st0" d="M1405.15,1284.07c-5.98,0-11.52-1.16-16.63-3.49c-5.11-2.33-9.54-5.52-13.29-9.59
		c-3.75-4.06-6.69-8.77-8.8-14.13c-2.12-5.36-3.18-11.02-3.18-16.98c0-8.01,1.79-15.27,5.38-21.77c3.59-6.5,8.53-11.72,14.84-15.68
		c6.3-3.95,13.37-5.93,21.2-5.93c8.04,0,15.16,2.01,21.36,6.01c6.2,4.01,11.11,9.29,14.76,15.84c3.64,6.55,5.46,13.73,5.46,21.53
		c0,0.65,0,1.3,0,1.95c0,0.65-0.06,1.19-0.16,1.62h-74.36c0.43,6.39,2.23,12.17,5.38,17.37c3.15,5.19,7.2,9.28,12.15,12.25
		c4.94,2.98,10.35,4.46,16.22,4.46c5.87,0,11.41-1.52,16.63-4.56c4.33-2.52,7.57-5.65,9.73-9.37c0.81-1.39,2.48-2.02,4.04-1.6l0,0
		c2.39,0.65,3.42,3.44,2.09,5.53c-1.46,2.31-3.3,4.44-5.51,6.41c-3.53,3.15-7.66,5.63-12.39,7.42
		C1415.34,1283.17,1410.37,1284.07,1405.15,1284.07z M1371.4,1237.11h67.02c-0.44-6.6-2.18-12.44-5.22-17.53
		c-3.05-5.09-7.04-9.09-11.98-12.01c-4.95-2.92-10.41-4.38-16.39-4.38c-5.98,0-11.41,1.46-16.31,4.38
		c-4.89,2.92-8.86,6.92-11.9,12.01C1373.57,1224.67,1371.83,1230.51,1371.4,1237.11z"/>
	<path class="st0" d="M1486.35,1278.53l-31.57-75.51c-1.03-2.47,0.78-5.2,3.46-5.2h0.48c1.52,0,2.9,0.92,3.47,2.33l30.19,73.67
		l30.35-73.68c0.58-1.41,1.95-2.32,3.47-2.32l0,0c2.68,0,4.5,2.73,3.46,5.2l-31.57,75.51c-0.99,2.37-3.31,3.91-5.87,3.91l0,0
		C1489.66,1282.44,1487.34,1280.9,1486.35,1278.53z"/>
	<path class="st0" d="M1581.1,1284.07c-5.98,0-11.52-1.16-16.63-3.49c-5.11-2.33-9.54-5.52-13.29-9.59
		c-3.75-4.06-6.69-8.77-8.8-14.13c-2.12-5.36-3.18-11.02-3.18-16.98c0-8.01,1.79-15.27,5.38-21.77c3.59-6.5,8.53-11.72,14.84-15.68
		c6.3-3.95,13.37-5.93,21.2-5.93c8.04,0,15.16,2.01,21.36,6.01c6.2,4.01,11.11,9.29,14.76,15.84c3.64,6.55,5.46,13.73,5.46,21.53
		c0,0.65,0,1.3,0,1.95c0,0.65-0.06,1.19-0.16,1.62h-74.36c0.43,6.39,2.23,12.17,5.38,17.37c3.15,5.19,7.2,9.28,12.15,12.25
		c4.94,2.98,10.35,4.46,16.22,4.46c5.87,0,11.41-1.52,16.63-4.56c4.33-2.52,7.57-5.65,9.73-9.37c0.81-1.39,2.48-2.02,4.04-1.6l0,0
		c2.39,0.65,3.42,3.44,2.09,5.53c-1.46,2.31-3.3,4.44-5.51,6.41c-3.53,3.15-7.66,5.63-12.39,7.42
		C1591.29,1283.17,1586.32,1284.07,1581.1,1284.07z M1547.35,1237.11h67.02c-0.44-6.6-2.18-12.44-5.22-17.53
		c-3.05-5.09-7.04-9.09-11.98-12.01c-4.95-2.92-10.41-4.38-16.39-4.38c-5.98,0-11.41,1.46-16.31,4.38
		c-4.89,2.92-8.86,6.92-11.9,12.01C1549.52,1224.67,1547.78,1230.51,1547.35,1237.11z"/>
	<path class="st0" d="M1705.35,1282.44L1705.35,1282.44c-2.25,0-4.08-1.83-4.08-4.08v-43.01c0-10.83-1.55-18.75-4.65-23.79
		s-8.02-7.55-14.76-7.55c-4.78,0-9.49,1.14-14.1,3.41c-4.62,2.27-8.64,5.38-12.07,9.33c-3.42,3.95-5.9,8.41-7.42,13.39v48.23
		c0,2.25-1.83,4.08-4.08,4.08l0,0c-2.25,0-4.08-1.83-4.08-4.08v-76.72c0-2.12,1.72-3.83,3.83-3.83l0,0c2.12,0,3.83,1.72,3.83,3.83
		v16.47c2.28-4.33,5.32-8.09,9.13-11.29c3.96-3.33,8.4-5.92,13.3-7.78c3.78-1.43,7.79-2.28,11.83-2.48
		c5.6-0.28,10.24,0.54,13.92,2.46c3.21,1.68,5.81,4.09,7.83,7.23c2.01,3.14,3.45,7.04,4.32,11.7c0.87,4.66,1.31,9.96,1.31,15.92
		v44.49C1709.43,1280.61,1707.6,1282.44,1705.35,1282.44z"/>
	<path class="st0" d="M1770.35,1274.84c1.15,1.58,0.72,3.81-0.94,4.86c-0.54,0.34-1.09,0.67-1.62,0.95c-1.63,0.87-3.7,1.66-6.2,2.36
		c-2.5,0.71-5.27,1.06-8.32,1.06c-2.93,0-5.68-0.58-8.23-1.72c-2.55-1.15-4.59-2.87-6.11-5.17c-1.52-2.3-2.28-5.09-2.28-8.37v-64.31
		h-8.56c-1.85,0-3.34-1.5-3.34-3.34l0,0c0-1.85,1.5-3.34,3.34-3.34h8.56v-24.95c0-2.25,1.83-4.08,4.08-4.08l0,0
		c2.25,0,4.08,1.83,4.08,4.08v24.95h16.39c1.85,0,3.34,1.5,3.34,3.34l0,0c0,1.85-1.5,3.34-3.34,3.34h-16.39v62.39
		c0.22,3.17,1.36,5.55,3.42,7.14c2.06,1.59,4.46,2.38,7.17,2.38c3.37,0,6.3-0.57,8.8-1.71c0.74-0.34,1.4-0.65,1.96-0.92
		C1767.64,1273.06,1769.39,1273.52,1770.35,1274.84L1770.35,1274.84z"/>
	<g>
		<g>
			<path class="st0" d="M239.9,950.07c-3.64,0-5.74-0.73-7.32-2.02c-2.5-2.05-3.76-4.96-3.55-8.2c0.79-12.18,27.4-30.44,43.19-40.25
				c2.88-1.78,6.65-0.9,8.44,1.97c1.79,2.88,0.9,6.65-1.97,8.44c-15.77,9.8-30.53,21.39-35.61,27.66
				c11.89-1.42,43.18-9.71,76.03-18.41c95.22-25.24,254.58-67.47,382.62-68.7c88.09-0.84,124.15,6.68,167.74,35.02
				c2.84,1.85,3.64,5.64,1.8,8.48c-1.85,2.84-5.64,3.64-8.48,1.8c-41.65-27.08-74.72-33.86-160.94-33.04
				c-126.51,1.22-284.94,43.21-379.6,68.29C270.62,944.79,249.7,950.07,239.9,950.07z"/>
		</g>
		<g>
			<path class="st0" d="M402.19,1339.07c-1.04,0-2.09-0.26-3.05-0.81c-2.77-1.59-3.86-5.05-2.49-7.94
				c10.34-21.89,39.68-72.56,76.82-136.72c52.77-91.15,118.44-204.58,170.15-304.64c74.4-143.95,84.27-192.88,79.45-208.58
				c-1-3.26-2.46-4.29-3.48-4.78c-54.35-26.3-209.45,165.54-292.77,268.6c-69.72,86.23-79.68,96.59-88.83,92.34
				c-2.41-1.12-6.23-4.23-4.78-12.47c3.95-22.44,48.06-89.58,74-127.6c16.72-24.51,34.51-49.49,48.79-68.52
				c24.04-32.04,26.48-32.25,29.57-32.52c5.76-0.52,8.41,2.82,9.29,4.27c3.51,5.82,0.23,16.65-9.76,32.19
				c-1.83,2.85-5.62,3.67-8.47,1.84c-2.85-1.83-3.67-5.62-1.85-8.47c1.42-2.2,2.78-4.54,4-6.81c-13.83,17.35-39.49,52.3-68.01,94.6
				c-40.84,60.56-58.04,92.48-63.53,106.52c13.78-13.49,42.29-48.76,70.04-83.07C546.15,777.1,666.64,636.36,724.93,664.55
				c4.76,2.3,8.08,6.41,9.86,12.22c16.64,54.22-114.73,288.08-250.71,522.97c-5.97,10.31-11.74,20.27-17.25,29.82
				c1.86-0.81,4.09-0.66,5.9,0.57c2.79,1.91,3.5,5.73,1.59,8.52l-67.07,97.75C406.07,1338.13,404.15,1339.07,402.19,1339.07z"/>
		</g>
	</g>
	<g>
		<path class="st0" d="M792.38,1106.09c-0.62,0-1.25-0.11-1.87-0.34c-2.78-1.03-4.2-4.12-3.17-6.9c0.53-1.43,0.6-2.45,0.2-3.03
			c-0.92-1.34-5.3-4.5-25.85-4.72c-11.27-0.14-35.84,2.87-59.61,5.75c-60.95,7.41-65.25,6.97-67.22,0.52
			c-1.6-5.26,4.01-8.12,5.86-9.06l3.21-1.63c29.72-15.13,120.16-61.16,148.5-84.47c16.44-13.52,24.35-25.13,22.27-32.7
			c-1.91-6.96-13.16-12.35-31.67-15.19c-43.62-6.7-104.88,39.54-105.49,40.01c-2.36,1.8-5.73,1.35-7.53-1.01
			c-1.8-2.36-1.35-5.73,1.01-7.53c2.65-2.02,65.49-49.46,113.64-42.09c23.95,3.67,37.17,11.18,40.4,22.96
			c3.37,12.25-5.32,27.01-25.8,43.85c-26.34,21.66-102.91,61.46-139.79,80.31c12.01-1.08,28.1-3.03,41.32-4.64
			c24.12-2.93,49.14-5.93,61.02-5.83c20.13,0.22,30.15,2.93,34.59,9.37c1.71,2.49,3.29,6.75,1.02,12.86
			C796.62,1104.75,794.56,1106.09,792.38,1106.09z"/>
	</g>
</g>
</svg>
