<?xml version="1.0" encoding="utf-8"?>
<!-- Generator: Adobe Illustrator 26.2.1, SVG Export Plug-In . SVG Version: 6.00 Build 0)  -->
<svg version="1.1" id="Слой_1" xmlns="http://www.w3.org/2000/svg" xmlns:xlink="http://www.w3.org/1999/xlink" x="0px" y="0px"
	 viewBox="0 0 314.28 122.89" style="enable-background:new 0 0 314.28 122.89;" xml:space="preserve">
<style type="text/css">
	.st0{fill:#243746;}
	.st1{fill:#223243;}
	.st2{fill:#4E738A;}
	.st3{fill:#527692;}
</style>
<g>
	<path class="st0" d="M46.43,62.12h-4.18v-7.41c-2.27,5.72-7.41,8.51-13.57,8.51c-10.42,0-17.02-7.71-17.02-19.96
		c0-12.11,6.6-19.96,16.88-19.96c6.02,0,11.01,2.64,13.43,8.15V14.31h4.48V62.12z M16.27,43.19c0,9.98,4.99,16.29,12.84,16.29
		c8.07,0,12.99-6.16,12.99-16.22c0-8.14-3.82-16.14-13.06-16.14C21.26,27.12,16.27,33.43,16.27,43.19z"/>
	<path class="st1" d="M70.65,63.38c-10.49,0-17.32-7.7-17.32-19.66c0-11.96,7.12-20.33,17.24-20.33c11.15,0,16.58,9.25,16.58,19.67
		v1.32H58.03c0,7.93,3.67,15.26,12.77,15.26c6.02,0,10.05-3.38,11.52-9.91h4.48C85.18,58.09,79.53,63.38,70.65,63.38z M70.43,27.2
		c-8.22,0-11.52,6.38-12.4,13.43h24.51C82.02,32.27,77.47,27.2,70.43,27.2z"/>
	<path class="st1" d="M108.74,63.38c-10.49,0-17.32-7.7-17.32-19.66c0-11.96,7.12-20.33,17.24-20.33c11.15,0,16.58,9.25,16.58,19.67
		v1.32H96.12c0,7.93,3.67,15.26,12.77,15.26c6.02,0,10.05-3.38,11.52-9.91h4.48C123.27,58.09,117.62,63.38,108.74,63.38z
		 M108.52,27.2c-8.22,0-11.52,6.38-12.4,13.43h24.51C120.11,32.27,115.56,27.2,108.52,27.2z"/>
	<path class="st1" d="M135.97,31.67c2.72-5.58,7.19-8.37,13.5-8.37c10.27,0,17.02,8,17.02,20.11c0,11.96-6.75,19.89-16.88,19.89
		c-6.09,0-10.79-2.72-13.35-8.15v21.84h-4.48V24.4h4.18V31.67z M136.11,43.33c0,9.91,4.99,16.07,12.91,16.07
		c7.71,0,12.77-6.31,12.77-16c0-9.91-4.99-16.29-12.91-16.29C140.96,27.12,136.11,33.21,136.11,43.33z"/>
	<path class="st1" d="M188.73,28.14h-7.78v23.92c0,3.82-0.15,6.31,4.77,6.31c0.81,0,1.69-0.07,3.01-0.22v3.96
		c-1.69,0.22-2.42,0.29-4.04,0.29c-3.3,0-6.97-0.66-7.85-4.33c-0.37-1.54-0.44-2.64-0.44-8.29V28.14h-6.68V24.4h6.68V14.32h4.55
		V24.4h7.78V28.14z"/>
	<path class="st1" d="M210.67,63.36c-10.49,0-17.32-7.7-17.32-19.66c0-11.96,7.12-20.33,17.24-20.33c11.15,0,16.58,9.25,16.58,19.67
		v1.32h-29.13c0,7.93,3.67,15.26,12.77,15.26c6.02,0,10.05-3.38,11.52-9.91h4.48C225.2,58.08,219.55,63.36,210.67,63.36z
		 M210.45,27.19c-8.22,0-11.52,6.38-12.4,13.43h24.51C222.04,32.25,217.49,27.19,210.45,27.19z"/>
	<path class="st1" d="M249.2,63.22c-10.57,0-17.46-7.71-17.46-19.59c0-12.33,6.97-20.33,17.61-20.33c8.73,0,14.46,4.84,15.48,12.99
		h-4.7c-1.17-5.94-4.92-9.17-10.71-9.17c-7.93,0-12.91,6.31-12.91,16.14c0,9.83,4.84,16.14,12.47,16.14
		c6.31,0,10.57-3.96,11.52-10.79h4.62C263.88,57.2,258.3,63.22,249.2,63.22z"/>
	<path class="st1" d="M276.06,31.52c2.72-5.43,6.82-8.07,13.06-8.07c8.81,0,13.21,5.06,13.21,13.72v24.95h-4.62V37.76
		c0-6.46-3.01-10.42-9.69-10.42c-8.59,0-11.89,6.75-11.89,14.9v19.89h-4.55v-47.8h4.55C276.13,37.14,276.13,28.66,276.06,31.52z"/>
	<path class="st2" d="M136.25,81.01c1.72-2.75,3.83-3.82,7.09-3.82c6.18,0,10.09,4.47,10.09,11.64s-3.86,11.76-9.92,11.76
		c-3.26,0-5.54-1.07-7.43-3.65v11.64h-4.3V77.99h4.48L136.25,81.01z M135.95,88.87c0,5.37,2.66,8.63,6.96,8.63
		c4.16,0,6.74-3.31,6.74-8.63c0-5.37-2.58-8.63-6.87-8.63C138.53,80.24,135.95,83.5,135.95,88.87z"/>
	<path class="st3" d="M179.69,99.95c-0.77,0.3-1.67,0.43-2.49,0.43c-2.06,0-3.18-1.16-3.22-3.26c-2.19,2.45-4.59,3.52-8.03,3.52
		c-4.38,0-7.08-2.4-7.08-6.27c0-3.95,2.62-6.27,7.86-6.91c5.28-0.64,7.08-0.52,7.08-3.52c0-2.36-1.76-3.65-5.02-3.65
		c-3.39,0-5.15,1.25-5.5,4.51h-3.56c0.13-4.72,3.56-7.51,9.27-7.51c2.96,0,5.5,0.77,6.96,2.15c1.55,1.5,1.5,3.78,1.5,5.75
		c0,3.31-0.17,6.57-0.17,9.88c0,1.63,0.39,2.19,1.5,2.19c0.34,0,0.51-0.04,0.9-0.13V99.95z M168.92,89.86
		c-2.66,0.34-6.27,0.64-6.27,4.21c0,2.28,1.68,3.69,4.42,3.69c3.43,0,6.74-2.36,6.74-5.19v-4.04
		C172.44,89.56,170.55,89.64,168.92,89.86z"/>
	<path class="st3" d="M196.86,81.14c-0.39-0.04-0.56-0.04-0.94-0.04c-6.01,0-7.08,4.59-7.08,9.57v9.36h-3.65V77.88h3.48v4.77
		c1.55-3.74,4.25-5.28,8.2-5.28V81.14z"/>
	<path class="st3" d="M211.28,80.88h-4.42v12.92c0,2.02-0.13,3.26,2.45,3.26c0.73,0,1.2-0.04,1.97-0.13v3.13
		c-1.16,0.13-1.63,0.17-2.79,0.17c-5.54,0-5.28-2.75-5.28-7.6V80.88h-3.74v-3.01h3.74v-6.57h3.65v6.57h4.42V80.88z"/>
	<path class="st3" d="M220.94,81.31c1.85-2.71,4.16-4.04,7.56-4.04c5.41,0,7.38,2.96,7.38,8.03v14.73h-3.65V86.98
		c0-3.52-0.17-6.53-4.77-6.53c-4.77,0-6.31,3.61-6.31,7.99v11.59h-3.65V77.88h3.43V81.31z"/>
	<path class="st3" d="M252.83,100.76c-6.53,0-10.43-4.29-10.43-11.51c0-7.17,4.16-12.02,10.3-12.02c7.3,0,10.05,5.8,10.05,12.19
		v0.52h-16.66l-0.04,0.26c0,4.72,2.62,7.56,6.91,7.56c3.18,0,4.94-1.37,5.97-4.72h3.56C261.38,98.14,258.07,100.76,252.83,100.76z
		 M252.62,80.24c-3.56,0-6.05,2.58-6.53,6.74h12.88C258.63,82.77,256.27,80.24,252.62,80.24z"/>
	<path class="st3" d="M280.35,81.14c-0.39-0.04-0.56-0.04-0.94-0.04c-6.01,0-7.08,4.59-7.08,9.57v9.36h-3.65V77.88h3.48v4.77
		c1.55-3.74,4.25-5.28,8.2-5.28V81.14z"/>
	<path class="st3" d="M298.07,84.32c-0.26-2.92-2.28-4.04-5.41-4.04c-2.79,0-4.51,1.16-4.51,3.01c0,2.49,2.88,2.88,5.88,3.56
		c3.74,0.86,8.59,1.93,8.59,6.74c0,4.29-3.65,7.13-9.19,7.13c-6.01,0-9.32-2.7-9.53-7.68h3.61c0.21,3.35,2.49,4.68,6.01,4.68
		c3.26,0,5.41-1.46,5.41-3.69c0-2.45-2.49-2.96-5.58-3.74c-3.82-0.94-8.93-1.42-8.93-6.53c0-3.99,3.31-6.53,8.46-6.53
		c4.98,0,8.84,2.4,8.84,7.08H298.07z"/>
</g>
</svg>
