<?xml version="1.0" encoding="utf-8"?>
<!-- Generator: Adobe Illustrator 26.2.1, SVG Export Plug-In . SVG Version: 6.00 Build 0)  -->
<svg version="1.1" id="Layer_1" xmlns="http://www.w3.org/2000/svg" xmlns:xlink="http://www.w3.org/1999/xlink" x="0px" y="0px"
	 viewBox="0 0 1500 1500" style="enable-background:new 0 0 1500 1500;" xml:space="preserve">
<style type="text/css">
	.st0{fill:#EC2024;}
</style>
<g>
	<path class="st0" d="M746.89,85.38c84.47,0,168.95,0.02,253.42-0.01c28.98-0.01,53.1,10.04,66.53,38.56
		c4.44,9.42,6.94,20.85,7.02,31.39c1.21,170.5,2.11,341,2.49,511.5c0.08,36.17-28.81,64.88-65.36,65.92
		c-42.21,1.2-84.46,1.63-126.69,1.51c-128.9-0.36-257.8-1.03-386.7-1.84c-43.72-0.28-71.23-29.88-71.69-76.22
		c-1.61-163.58-3.21-327.17-4.78-490.75c-0.5-52.5,23.98-79.11,73.97-79.29c83.93-0.32,167.85-0.09,251.78-0.09
		C746.89,85.84,746.89,85.61,746.89,85.38z M951.48,410.95c2.04-3.15,4.09-6.3,8.94-13.77c-24.77-8.8-47.32-17.43-70.25-24.73
		c-14.15-4.5-22.92-13.47-25.3-28.32c-0.57-3.54,3.94-11.54,5.75-11.42c26.75,1.75,54.05-20.65,80.5,1.78
		c2.47,2.1,7.98,0.25,12.07,0.23c-0.23-4.85,1.28-11.18-1.07-14.2c-3.83-4.92-9.77-9.57-15.55-10.92c-10.02-2.35-21-0.54-30.82-3.39
		c-8.72-2.53-20.91-7.03-23.7-14.09c-7.73-19.53-18.54-15.72-28.93-6.49c-13.28,11.79-23.51,7.61-36.77-0.04
		c-9.26-5.33-22.48-8.43-32.24-5.74c-7.71,2.13-15.24,13.78-18,22.83c-1.21,3.98,8.62,13.9,15.22,17.75
		c9.42,5.48,20.49,7.83,30.84,11.57c23.62,8.54,40.21,22.18,51.21,48.52c6.9,16.51,28.73,26.2,44.08,38.65
		c1.27,1.03,4.32,0.1,6.39-0.49c9.42-2.66,18.8-5.53,28.19-8.32c5.53,4.78,11.05,9.57,15.44,13.37c-11.36,0-26.01-3.62-37.84,0.91
		c-15.2,5.82-26.29,3.91-37.72-6.16c-10.91-9.61-20.95-6.89-27.88,4.54c-27.61,45.54-69.44,67.2-117.65,77.48
		c-19.23,4.1-39.15,4.58-58.67,7.34c-13,1.84-29.08,3.21-29.35,21.04c-0.28,19.04,16.29,21.32,29.93,22.4
		c44.02,3.46,83.52-6.06,114.2-43.33c6.78-8.24,18.88-15.6,28.95-16.25c54.83-3.54,95.86,57.63,76.58,111.92
		c-4.18,11.79-8.52,23.82-10.37,36.13c-1.95,13.01,1.27,25.34,14.14,32.09c26.77,14.04,54.03,24.65,85.06,20.92
		c24.01-2.89,40.16-18.31,40.11-43.32c-0.13-62.77-1.09-125.54-1.32-188.32c-0.04-11.39-3.83-15.79-14.97-17.43
		c-18.67-2.75-31.67-14.48-39.22-33.19c-1.31-3.25-7.72-6.33-11.45-5.95C963.72,405.2,957.65,408.66,951.48,410.95z M671.53,672.23
		c35.86-14.07,71.56-27.17,108.34-38.2c12.77-3.83,24.11-16.71,33.37-27.94c4.17-5.06,4.82-18.64,1.2-23.89
		c-3.31-4.79-14.82-5.58-22.2-4.44c-8.93,1.37-17.3,6.66-25.94,10.17c-11.15,4.53-22.3,12.64-33.51,12.74
		c-28.82,0.27-57.66-3-86.5-4.89c-42.72-2.8-68.79-27.71-84.54-68.09c-8.64-22.15,3.37-51.29,26.08-54.74
		c34.06-5.18,68.59-7.05,102.54-12.82c32.23-5.48,64.49-12.35,95.73-22.13c18.77-5.87,38.47-18.77,37.84-42.46
		c-0.69-25.66-22.47-34.47-42.57-42.08c-10.79-4.09-22.37-6.76-32.17-12.67c-13.47-8.13-25.44-5.7-34.31,4.89
		c-25.77,30.75-57.76,46.15-96.23,49.48c-17.68,1.53-34.25,4.73-49.06-10.73c-5.44-5.67-15.84-6.82-24.25-8.43
		c-8.56-1.64-17.77,0.04-26.15-2.08c-21.71-5.49-34.32,15.66-52.92,19.06c-1.51,0.27-2.74,7.15-2.72,10.94
		c0.45,81.82,0.69,163.65,1.93,245.46c0.38,25.39,16.41,41.4,40.78,43.11c13.65,0.96,27.41,0.17,41.13,0.17 M631.57,132.46
		c-7.19-3.47-9.09-5.19-11-5.19c-42.21-0.14-84.46-1.05-126.63,0.37c-18.78,0.64-32.87,19.51-33.2,40.77
		c-0.44,28.21,0.44,56.45,0.32,84.67c-0.05,12.65,3.91,17.7,16.86,15.11c9.49-1.9,19.78-2.08,29.32-0.47
		c29.96,5.06,55.17-9.85,63.41-40.35c3.56-13.15,4.66-27.1,6.18-40.78c2.02-18.23,8.81-30.95,27.48-36.02
		C612.98,148.22,620.25,140.24,631.57,132.46z M907.65,126.31c-0.32,2.23-0.64,4.46-0.97,6.69c11.27,13.2,25.42,19.63,42.76,19.95
		c40.32,0.74,56.27,17.14,58.64,59.53c0.29,5.16-1.23,11.97,1.33,15.12c5.2,6.42,12.61,10.86,19.11,16.11
		c2.05-5.85,5.66-11.64,5.87-17.56c0.71-19.52,1.02-39.15-0.07-58.64c-1.35-24.06-17.62-40.15-40.59-41.15
		c-14.76-0.64-29.57-0.07-44.36-0.06C935.47,126.32,921.56,126.31,907.65,126.31z M559.86,343.74c-1.69,1.51-3.38,3.03-5.07,4.54
		c3.21,6.22,5.1,14.01,9.85,18.38c19.59,18.02,42.36,21.97,67.03,13.23c28.64-10.14,54.61-24.51,74.7-50.48
		c-12.73-10.23-23.73-19.06-36.01-28.92c-5,9.06-8.77,17.25-13.75,24.55c-6.48,9.5-70.98,27.92-81.75,24.04
		C569.86,347.27,564.86,345.51,559.86,343.74z M714.16,288.54c5.87,3.8,12.76,8.96,20.22,12.94c10.14,5.41,17.65,6.13,21.42-9.41
		c5.2-21.44,13.73-26.11,35.13-24.11c6.53,0.61,13.81,3.91,19.37,1.86c9.64-3.54,18.56-9.79,26.9-16.17
		c1.46-1.12,0-11.07-2.45-12.47c-15.91-9.16-33.5-14.2-49.93-3.5C761.1,253.14,738.64,270.76,714.16,288.54z M877.33,266.84
		c-0.75-2.16-1.5-4.33-2.25-6.49c-13-1.37-27.3-12.11-37.45,7.35c-1.86,3.57-4.16,9.58-2.68,11.73c1.94,2.81,8.29,5.07,11.28,3.79
		C856.93,278.62,867.01,272.43,877.33,266.84z M998.65,348.49c12.35,5.55,22.42,10.08,32.5,14.6c1.58-0.85,3.17-1.7,4.75-2.55
		c-1.98-7.78-2.09-20.58-6.33-22.34C1019.76,334.14,1007.55,334.18,998.65,348.49z M554.61,367.45
		c-4.19-9.03-6.92-20.85-10.26-21.05c-11.05-0.65-20.74,4.9-23.51,21.05C531.05,367.45,540.27,367.45,554.61,367.45z"/>
	<path class="st0" d="M751.91,781.93c83.4,0,166.8,0.67,250.19-0.29c41.5-0.48,75.98,26.62,75.66,77.07
		c-0.99,155.55,0.7,311.11,1.12,466.67c0.03,12.05-1.19,24.18-2.78,36.14c-3.95,29.73-34.46,52.87-69.88,52.92
		c-121.8,0.16-243.6,0.3-365.41,0.05c-47.14-0.1-94.37,0.3-141.4-2.44c-40.93-2.39-64.29-30.63-64.84-73.89
		c-1.17-91.59-1.74-183.2-2.86-274.79c-0.74-60.48-2.04-120.95-3.03-181.43c-0.2-12.09-0.75-24.23-0.06-36.28
		c2.16-37.32,29.19-64.07,64.86-64.14c86.14-0.17,172.28-0.05,258.42-0.05C751.91,781.62,751.91,781.78,751.91,781.93z
		 M752.82,821.93c0-0.14,0-0.28,0-0.42c-80.67,0-161.35-0.15-242.02,0.09c-26.96,0.08-42.75,15.96-42.56,43.51
		c1.06,153.86,2.32,307.72,3.94,461.58c0.35,32.82,15.86,49.28,46.78,49.46c143.78,0.84,287.56,1.18,431.34,1.54
		c17.55,0.05,35.16-0.08,52.65-1.39c26.05-1.95,38.24-16.75,38.03-43.84c-1.15-153.28-2.23-306.55-3.31-459.83
		c-0.25-35.86-13.66-50.52-47.76-50.63C910.87,821.76,831.84,821.93,752.82,821.93z"/>
	<path class="st0" d="M513.85,887.61c-0.2-13.21,5.01-18.9,17.56-18.68c33.39,0.6,66.79,0.98,100.19,0.99
		c13.72,0,19.92,5.87,19.47,20.74c-0.57,18.95,1.41,38.08-0.37,56.86c-0.93,9.81-10.55,18.99-10.69,28.54
		c-0.13,8.83,9.74,17.51,10.64,26.74c1.84,18.78,0.31,37.9,0.73,56.86c0.28,12.78-4.14,19.1-17.17,18.91
		c-31.75-0.47-63.51-0.33-95.26-0.09c-15.46,0.12-23.01-6-22.39-23.59 M586.18,991.05c-37.74-0.86-36.98-0.85-37.46,34.37
		c-0.22,16.09,5.55,22.01,20.02,21.28c12.58-0.63,25.33,0.34,37.7-1.58c4.55-0.71,11.08-7.16,11.84-11.86
		c6-36.83,2.03-41.41-33.34-42.22C584.39,991.04,583.84,991.05,586.18,991.05z M582.85,957.75c0,0.08,0,0.15,0,0.23
		c6.01,0,12.05-0.43,18.01,0.09c13.88,1.21,18.17-5.47,17.27-19.48c-2.26-35.45,4.45-34.44-33.38-34.68
		c-3.28-0.02-6.55-0.03-9.83-0.04c-26.89-0.11-26.89-0.11-26.88,28.37c0.01,24.86,0.28,25.16,23.34,25.5
		C575.21,957.8,579.03,957.75,582.85,957.75z"/>
	<path class="st0" d="M956.86,985.56c0.57-6.51,1.64-13.02,1.61-19.53c-0.1-24.75-0.28-49.51-0.99-74.25
		c-0.43-14.86,6.57-20.95,19.83-21.17c13.8-0.23,13.78,9.66,13.79,20.08c0.03,54.69,0.14,109.38,0.46,164.07
		c0.06,10.7-1.5,19.49-13.29,22.2c-11.01,2.53-16.88-2.72-22.13-12.59c-14.94-28.11-30.74-55.72-46.48-83.34
		c-4.08-7.17-9.2-13.68-17.99-19.85c-0.85,5.63-2.35,11.25-2.45,16.89c-0.44,25.33-0.74,50.66-0.56,75.99
		c0.09,12.85-1.76,23.12-16.9,23.88c-16.15,0.8-15.41-11.47-15.56-22.34c-0.74-54.11-1.1-108.22-1.78-162.33
		c-0.13-10.51,0.76-19.57,12.79-22.48c11.14-2.69,19.25,0.85,24.99,11.15c16.59,29.78,33.18,59.56,49.96,89.22
		c3.11,5.5,7.1,10.45,10.69,15.65C954.19,986.39,955.52,985.98,956.86,985.56z"/>
	<path class="st0" d="M821.48,976.29c0,27.06-0.45,54.14,0.18,81.19c0.35,15.16-4.74,22.44-19.87,22.18
		c-32.34-0.55-64.7-0.67-97.05-0.25c-14.35,0.18-19.52-6.95-19.55-21.03c-0.13-55.85-0.31-111.71-0.99-167.56
		c-0.18-14.56,4.84-20.98,19.17-20.73c32.34,0.58,64.7,0.54,97.05,0.09c14.56-0.2,21.01,5.86,20.72,21.47
		c-0.53,28.2-0.15,56.43-0.15,84.64C821.15,976.29,821.32,976.29,821.48,976.29z M787.15,920.39c0.28-10.9-3.33-15.83-14.27-15.23
		c-12.58,0.69-25.28,0.88-37.83-0.09c-12.27-0.95-16.83,4.2-16.67,16.69c0.47,36.86,0.59,73.73,0.6,110.59
		c0,10.23,4.22,14.51,13.98,14.22c13.15-0.4,26.37-0.71,39.48,0.2c12.79,0.88,16.33-5.93,16.24-17.55"/>
	<path class="st0" d="M822.95,1226.05c0,27.03-0.22,54.07,0.1,81.1c0.14,12.12-3.12,20.04-16.18,20.71
		c-14.14,0.72-16.14-8.52-16.06-20.04c0.1-14.95-0.4-29.94,0.31-44.86c0.72-15.09-5.43-20.81-19.52-19.8
		c-11.45,0.82-23.01,0.58-34.49,0c-11.95-0.6-17.09,4.66-16.7,17.21c0.5,16.09,0.25,32.2,0.49,48.3c0.19,13.13-6.2,18.69-18.27,18.7
		c-12.4,0.01-14.06-8.87-14.18-18.66c-0.66-55.22-1.01-110.44-1.81-165.65c-0.2-14.01,6.09-20.05,18.79-20.08
		c33.41-0.06,66.81-0.1,100.22-0.14c13.13-0.02,16.57,8.36,16.49,20.39c-0.18,27.6-0.06,55.21-0.06,82.82
		C822.39,1226.05,822.67,1226.05,822.95,1226.05z M754.49,1155.54c-7.68,0-15.58-1.11-22.96,0.44c-4.1,0.86-9.8,5.62-10.61,9.57
		c-7.53,36.51-0.89,44.98,33.93,45.09c7.68,0.02,15.78,1.42,22.9-0.72c4.8-1.44,11.64-7.89,11.73-12.24
		C790.45,1150.73,794.8,1155.97,754.49,1155.54z"/>
	<path class="st0" d="M586.94,1327.86c-16.46,0-32.93-0.46-49.37,0.15c-12.38,0.46-18.79-4.06-17.73-17.85
		c0.4-5.15-0.87-10.55,0.13-15.5c1.26-6.18,3.42-16.61,6.35-17.07c6.6-1.03,17.97,0.76,20.18,5.28
		c7.34,15.07,19.14,12.82,30.92,12.96c4.39,0.05,8.78,0.08,13.17,0.1c30.76,0.14,39.09-11.13,30.27-42.97
		c-1.16-4.18-8.34-8.87-13.02-9.23c-20.21-1.55-40.52-1.7-60.8-2.12c-21.79-0.45-27.51-4.84-28.73-28.02
		c-1.36-25.85-1.36-51.85-0.33-77.71c0.19-4.73,8.04-12.93,12.51-13.05c36.18-0.95,72.42-0.86,108.6,0.38
		c4.68,0.16,11.34,7.93,13.08,13.54c2.26,7.28,2.28,16.58-0.08,23.8c-1.87,5.73-8.24,12.49-13.58,13.58
		c-5.26,1.08-14.94-2.78-17.02-7.33c-4.54-9.92-10.93-11.6-19.73-11.39c-8.77,0.22-17.65-0.99-26.31,0.07
		c-8.1,1-22.21,2.99-22.82,6.56c-2.31,13.73-0.9,28.36,0.83,42.42c0.27,2.17,9.42,4.3,14.51,4.45c20.29,0.6,40.6,0.17,60.9,0.58
		c19.53,0.4,26.24,7.86,26.36,28.62c0.13,23.05-0.87,46.16,0.44,69.12c0.99,17.41-5.86,22.3-21.08,21.41
		c-15.84-0.93-31.78-0.21-47.67-0.21C586.94,1328.24,586.94,1328.05,586.94,1327.86z"/>
	<path class="st0" d="M925.55,1328c-15.35,0-30.7-0.03-46.05,0.01c-8.67,0.03-17.05-2.74-14.57-13.16
		c1.58-6.66,8.33-15.73,14.04-16.91c29.73-6.13,29.92-5.37,29.94-36.71c0.02-29.37-0.7-58.75,0.13-88.09
		c0.39-13.95-4.58-18.93-17.18-17.77c-4.88,0.45-10.71,1.52-14.58-0.67c-5.32-3.02-11.81-8.19-13.09-13.65
		c-2.12-9.11,2.21-17.5,12.87-17.7c30.69-0.59,61.39-1.07,92.08-0.75c10.85,0.12,16.73,7.29,16.85,19.15
		c0.13,13.14-9.37,12.03-17.3,13.03c-3.79,0.48-7.68,0.41-11.5,0.12c-11.62-0.89-16.86,3.57-16.6,16.84
		c0.7,35.11,0.77,70.25,0.1,105.36c-0.27,14.39,5.23,20.03,18.3,19.51c5.44-0.22,12.49-1.77,16.01,1.09
		c5.23,4.25,9.96,11.55,10.94,18.19c0.47,3.18-7.93,10.82-12.75,11.27c-15.78,1.46-31.75,0.55-47.65,0.55
		C925.55,1327.81,925.55,1327.91,925.55,1328z"/>
</g>
</svg>
