<?xml version="1.0" encoding="utf-8"?>
<!-- Generator: Adobe Illustrator 26.2.1, SVG Export Plug-In . SVG Version: 6.00 Build 0)  -->
<svg version="1.1" id="Layer_1" xmlns="http://www.w3.org/2000/svg" xmlns:xlink="http://www.w3.org/1999/xlink" x="0px" y="0px"
	 viewBox="0 0 1500 242" style="enable-background:new 0 0 1500 242;" xml:space="preserve">
<style type="text/css">
	.st0{clip-path:url(#SVGID_00000088853064050869788970000009559673468473607087_);}
	.st1{clip-path:url(#SVGID_00000115484195264016529640000009374146939667934893_);}
	.st2{clip-path:url(#SVGID_00000024706847347077633560000014346562511740358587_);fill:#0055FF;}
	.st3{clip-path:url(#SVGID_00000099633167619988232210000013261880515090949761_);fill:#0055FF;}
	.st4{clip-path:url(#SVGID_00000120523097264969826040000009484664607441573253_);fill:#0055FF;}
	.st5{clip-path:url(#SVGID_00000101786648910064624570000007185294531830632616_);fill:#0055FF;}
	.st6{clip-path:url(#SVGID_00000112610903308734034870000009245418444459758256_);fill:#515B6B;}
	.st7{clip-path:url(#SVGID_00000172442649054711176160000005710278385091633026_);fill:#515B6B;}
	.st8{clip-path:url(#SVGID_00000078022767642670487700000010068828396630511233_);fill:#515B6B;}
	.st9{clip-path:url(#SVGID_00000044889362905738752140000007038160581047813053_);fill:#515B6B;}
	.st10{clip-path:url(#SVGID_00000062152208462467154040000001910463310496218284_);fill:#515B6B;}
	.st11{clip-path:url(#SVGID_00000043439591684216921140000008572154200844411317_);fill:#515B6B;}
	.st12{clip-path:url(#SVGID_00000071536400851997947460000011468632219195714224_);fill:#515B6B;}
	.st13{clip-path:url(#SVGID_00000092436543942736046320000007762254489523034291_);fill:#515B6B;}
	.st14{clip-path:url(#SVGID_00000096763680997692987750000014381477186742571949_);fill:#515B6B;}
	.st15{clip-path:url(#SVGID_00000000945011192890600070000014563184544299541664_);fill:#515B6B;}
	.st16{clip-path:url(#SVGID_00000132783569729918953790000008997471446007907721_);fill:#515B6B;}
	.st17{clip-path:url(#SVGID_00000173867898685039764640000006336183186224868507_);fill:#515B6B;}
	.st18{clip-path:url(#SVGID_00000075860013863353732370000017548654321871371142_);fill:#515B6B;}
	.st19{clip-path:url(#SVGID_00000183245619500329034800000008865490239387167881_);fill:#515B6B;}
	.st20{clip-path:url(#SVGID_00000083058358642524522360000007273934121429468861_);fill:#515B6B;}
	.st21{clip-path:url(#SVGID_00000023974400614064963740000003530828183955533497_);fill:#515B6B;}
	.st22{clip-path:url(#SVGID_00000170987552315831804550000016600540142293818507_);fill:#515B6B;}
	.st23{clip-path:url(#SVGID_00000061431630822186869270000013761868601549532811_);fill:#515B6B;}
	.st24{clip-path:url(#SVGID_00000085948397927969620230000013269257954398153893_);fill:#515B6B;}
</style>
<g>
	<g>
		<g>
			<defs>
				<rect id="SVGID_1_" x="71" y="35.21" width="1358" height="171.58"/>
			</defs>
			<clipPath id="SVGID_00000108299523378642833860000014025741927983639201_">
				<use xlink:href="#SVGID_1_"  style="overflow:visible;"/>
			</clipPath>
		</g>
		<g>
			<defs>
				<rect id="SVGID_00000049927200795165629590000005120891516280521138_" x="71" y="35.21" width="1358" height="171.58"/>
			</defs>
			<defs>
				<rect id="SVGID_00000177443587645502010510000002332662417465322133_" x="71" y="35.21" width="1358" height="171.58"/>
			</defs>
			<clipPath id="SVGID_00000080169300522539038430000010517803189338843288_">
				<use xlink:href="#SVGID_00000049927200795165629590000005120891516280521138_"  style="overflow:visible;"/>
			</clipPath>
			
				<clipPath id="SVGID_00000040538264107412175110000005775549954511891587_" style="clip-path:url(#SVGID_00000080169300522539038430000010517803189338843288_);">
				<use xlink:href="#SVGID_00000177443587645502010510000002332662417465322133_"  style="overflow:visible;"/>
			</clipPath>
			<g style="clip-path:url(#SVGID_00000040538264107412175110000005775549954511891587_);">
				<g>
					<defs>
						<rect id="SVGID_00000048485444932325636770000007369521514104980101_" x="71" y="35.21" width="1358" height="171.58"/>
					</defs>
					<clipPath id="SVGID_00000108280355888986405010000017492174464099660475_">
						<use xlink:href="#SVGID_00000048485444932325636770000007369521514104980101_"  style="overflow:visible;"/>
					</clipPath>
					<polygon style="clip-path:url(#SVGID_00000108280355888986405010000017492174464099660475_);fill:#0055FF;" points="
						696.36,153.07 751.02,99.33 696.36,99.33 696.36,153.07 					"/>
				</g>
				<g>
					<defs>
						<rect id="SVGID_00000091703444585937513940000002111297725273699767_" x="71" y="35.21" width="1358" height="171.58"/>
					</defs>
					<clipPath id="SVGID_00000116195056337047438530000000148241152146040472_">
						<use xlink:href="#SVGID_00000091703444585937513940000002111297725273699767_"  style="overflow:visible;"/>
					</clipPath>
					<polygon style="clip-path:url(#SVGID_00000116195056337047438530000000148241152146040472_);fill:#0055FF;" points="
						751.02,99.33 805.45,45.6 751.02,45.6 751.02,99.33 					"/>
				</g>
				<g>
					<defs>
						<rect id="SVGID_00000176018687302281249280000007645973497064636557_" x="71" y="35.21" width="1358" height="171.58"/>
					</defs>
					<clipPath id="SVGID_00000167384141755743832730000001005943112503128461_">
						<use xlink:href="#SVGID_00000176018687302281249280000007645973497064636557_"  style="overflow:visible;"/>
					</clipPath>
					<polygon style="clip-path:url(#SVGID_00000167384141755743832730000001005943112503128461_);fill:#0055FF;" points="
						859.89,99.33 805.45,153.07 859.89,153.07 859.89,99.33 					"/>
				</g>
				<g>
					<defs>
						<rect id="SVGID_00000085939122358777349500000004240943515525677965_" x="71" y="35.21" width="1358" height="171.58"/>
					</defs>
					<clipPath id="SVGID_00000113337947906487867940000013447201430237803711_">
						<use xlink:href="#SVGID_00000085939122358777349500000004240943515525677965_"  style="overflow:visible;"/>
					</clipPath>
					<polygon style="clip-path:url(#SVGID_00000113337947906487867940000013447201430237803711_);fill:#0055FF;" points="
						805.45,153.07 751.02,206.8 805.45,206.8 805.45,153.07 					"/>
				</g>
				<g>
					<defs>
						<rect id="SVGID_00000036954512782864807620000018054537117357581970_" x="71" y="35.21" width="1358" height="171.58"/>
					</defs>
					<clipPath id="SVGID_00000081643575094772654570000004132410877097672350_">
						<use xlink:href="#SVGID_00000036954512782864807620000018054537117357581970_"  style="overflow:visible;"/>
					</clipPath>
					<polygon style="clip-path:url(#SVGID_00000081643575094772654570000004132410877097672350_);fill:#515B6B;" points="
						850.08,46.06 848.44,46.06 848.44,45.6 852.18,45.6 852.18,45.83 850.54,45.83 850.54,50.44 850.31,50.44 850.08,46.06 
						850.08,46.06 					"/>
				</g>
				<g>
					<defs>
						<rect id="SVGID_00000154414428688932474330000001851253308209063842_" x="71" y="35.21" width="1358" height="171.58"/>
					</defs>
					<clipPath id="SVGID_00000102527936802833406500000009525701070925277086_">
						<use xlink:href="#SVGID_00000154414428688932474330000001851253308209063842_"  style="overflow:visible;"/>
					</clipPath>
					<polygon style="clip-path:url(#SVGID_00000102527936802833406500000009525701070925277086_);fill:#515B6B;" points="
						855.21,45.6 855.45,45.6 857.55,48.37 859.65,45.6 859.89,45.6 859.89,50.44 859.65,50.44 859.65,46.29 857.55,49.06 
						855.45,46.29 855.45,50.67 855.21,50.67 855.21,45.6 					"/>
				</g>
				<g>
					<defs>
						<rect id="SVGID_00000091696265221815574570000015329418062934132132_" x="71" y="35.21" width="1358" height="171.58"/>
					</defs>
					<clipPath id="SVGID_00000014624909208664705660000012724813972190697151_">
						<use xlink:href="#SVGID_00000091696265221815574570000015329418062934132132_"  style="overflow:visible;"/>
					</clipPath>
					<path style="clip-path:url(#SVGID_00000014624909208664705660000012724813972190697151_);fill:#515B6B;" d="M112.55,103.95
						h-3.04c-0.23,0-0.47,0.23-0.7,0.23L81.71,139v-34.13c0-0.46-0.23-0.92-0.93-0.92h-2.8c-0.7,0-0.93,0.46-0.93,0.92v41.28
						c0,0.46,0.23,0.92,0.93,0.92h3.04c0.23,0,0.47-0.23,0.7-0.23l27.33-34.59v34.13c0,0.46,0.23,0.92,0.93,0.92h3.04
						c0.47,0,0.93-0.23,0.93-0.92v-41.51C113.49,104.41,113.02,103.95,112.55,103.95L112.55,103.95z"/>
				</g>
				<g>
					<defs>
						<rect id="SVGID_00000040560923255897719710000014275193849659087287_" x="71" y="35.21" width="1358" height="171.58"/>
					</defs>
					<clipPath id="SVGID_00000127735823957611416910000003475214870053112990_">
						<use xlink:href="#SVGID_00000040560923255897719710000014275193849659087287_"  style="overflow:visible;"/>
					</clipPath>
					<path style="clip-path:url(#SVGID_00000127735823957611416910000003475214870053112990_);fill:#515B6B;" d="M176.33,103.95
						h-28.5c-0.47,0-0.93,0.23-0.93,0.92l-1.4,25.14c-0.7,12.68-3.74,13.61-7.24,13.61c-0.47,0-0.93,0.23-0.93,0.92v2.08
						c0,0.46,0.23,0.92,0.7,0.92c0,0,0.93,0.23,2.34,0.23c6.07,0,9.11-5.3,9.81-17.07l1.17-21.68h20.79v37.59
						c0,0.46,0.23,0.92,0.93,0.92h3.27c0.47,0,0.93-0.23,0.93-0.92v-41.74C177.03,104.41,176.8,103.95,176.33,103.95L176.33,103.95z
						"/>
				</g>
				<g>
					<defs>
						<rect id="SVGID_00000105411601311821226670000005165799515719474580_" x="71" y="35.21" width="1358" height="171.58"/>
					</defs>
					<clipPath id="SVGID_00000176744731597614436960000012977851733754034875_">
						<use xlink:href="#SVGID_00000105411601311821226670000005165799515719474580_"  style="overflow:visible;"/>
					</clipPath>
					<path style="clip-path:url(#SVGID_00000176744731597614436960000012977851733754034875_);fill:#515B6B;" d="M224.45,120.09
						H210.2v-15.45c0-0.46-0.23-0.92-0.93-0.92H206c-0.47,0-0.93,0.23-0.93,0.92v41.28c0,0.46,0.23,0.92,0.93,0.92h18.22
						c9.58,0,15.89-5.3,15.89-13.15v-0.23C240.34,125.39,233.8,120.09,224.45,120.09L224.45,120.09z M224.45,142.23H210.2v-17.76
						h14.25c6.54,0,10.75,3.46,10.75,8.76v0.23C235.43,138.77,231.23,142.23,224.45,142.23L224.45,142.23z"/>
				</g>
				<g>
					<defs>
						<rect id="SVGID_00000012438473739881713650000017083760541722676109_" x="71" y="35.21" width="1358" height="171.58"/>
					</defs>
					<clipPath id="SVGID_00000150087809469248447930000017513811539291711165_">
						<use xlink:href="#SVGID_00000012438473739881713650000017083760541722676109_"  style="overflow:visible;"/>
					</clipPath>
					<path style="clip-path:url(#SVGID_00000150087809469248447930000017513811539291711165_);fill:#515B6B;" d="M300.61,103.95
						h-3.04c-0.23,0-0.47,0.23-0.7,0.23L269.77,139v-34.13c0-0.46-0.23-0.92-0.93-0.92h-3.04c-0.47,0-0.93,0.23-0.93,0.92v41.28
						c0,0.46,0.23,0.92,0.93,0.92h3.04c0.23,0,0.47-0.23,0.7-0.23l27.33-34.59v34.13c0,0.46,0.23,0.92,0.93,0.92h3.04
						c0.47,0,0.93-0.23,0.93-0.92v-41.51C301.55,104.41,301.31,103.95,300.61,103.95L300.61,103.95z"/>
				</g>
				<g>
					<defs>
						<rect id="SVGID_00000129900860407393716180000007773326393575717768_" x="71" y="35.21" width="1358" height="171.58"/>
					</defs>
					<clipPath id="SVGID_00000118381949103549635940000013258022347518608810_">
						<use xlink:href="#SVGID_00000129900860407393716180000007773326393575717768_"  style="overflow:visible;"/>
					</clipPath>
					<path style="clip-path:url(#SVGID_00000118381949103549635940000013258022347518608810_);fill:#515B6B;" d="M363.69,103.95
						h-3.27c-0.47,0-0.93,0.23-0.93,0.92v17.99h-25v-18.22c0-0.46-0.23-0.92-0.93-0.92h-3.27c-0.47,0-0.93,0.23-0.93,0.92v41.28
						c0,0.46,0.23,0.92,0.93,0.92h3.27c0.47,0,0.93-0.23,0.93-0.92v-18.45h25.23v18.45c0,0.46,0.23,0.92,0.93,0.92h3.27
						c0.47,0,0.93-0.23,0.93-0.92v-41.05C364.62,104.41,364.16,103.95,363.69,103.95L363.69,103.95z"/>
				</g>
				<g>
					<defs>
						<rect id="SVGID_00000179642716351255426180000007110510596181688464_" x="71" y="35.21" width="1358" height="171.58"/>
					</defs>
					<clipPath id="SVGID_00000040557546405582046700000015588020698398674568_">
						<use xlink:href="#SVGID_00000179642716351255426180000007110510596181688464_"  style="overflow:visible;"/>
					</clipPath>
					<path style="clip-path:url(#SVGID_00000040557546405582046700000015588020698398674568_);fill:#515B6B;" d="M427.46,136.92
						c-0.23-0.23-0.93-0.23-1.17,0c-4.44,4.38-8.41,6-13.78,6c-9.34,0-16.82-7.84-16.82-17.76l0,0c0-10.15,7.24-17.76,16.82-17.76
						c6.54,0,10.51,3,13.55,5.77c0.23,0.23,0.93,0.23,1.17,0l2.1-2.31c0.23-0.23,0.23-0.46,0.23-0.69s-0.23-0.46-0.23-0.69
						c-3.74-3.69-8.64-6.69-16.82-6.69c-12.15,0-21.73,9.69-21.73,22.37v0.23c0,12.45,9.34,22.14,21.49,22.14
						c8.41,0,13.32-3.69,17.29-7.38c0.23-0.23,0.23-0.23,0.23-0.69c0-0.23-0.23-0.46-0.23-0.69L427.46,136.92L427.46,136.92
						L427.46,136.92z"/>
				</g>
				<g>
					<defs>
						<rect id="SVGID_00000155856205840299381540000002467958411125027248_" x="71" y="35.21" width="1358" height="171.58"/>
					</defs>
					<clipPath id="SVGID_00000145046811711907632700000004670975732449053371_">
						<use xlink:href="#SVGID_00000155856205840299381540000002467958411125027248_"  style="overflow:visible;"/>
					</clipPath>
					<path style="clip-path:url(#SVGID_00000145046811711907632700000004670975732449053371_);fill:#515B6B;" d="M472.09,122.86
						l17.75-17.76c0.23-0.23,0.23-0.69,0.23-0.92c-0.23-0.23-0.47-0.46-0.93-0.46h-4.21c-0.23,0-0.47,0-0.7,0.23l-25,25.6v-24.68
						c0-0.46-0.23-0.92-0.93-0.92h-3.27c-0.47,0-0.93,0.23-0.93,0.92v41.28c0,0.46,0.23,0.92,0.93,0.92h3.27
						c0.47,0,0.93-0.23,0.93-0.92V136l9.58-9.46l16.59,20.06c0.23,0.23,0.23,0.23,0.7,0.23h3.97c0.23,0,0.7-0.23,0.93-0.46
						c0.23-0.23,0.23-0.69-0.23-0.92L472.09,122.86L472.09,122.86L472.09,122.86z"/>
				</g>
				<g>
					<defs>
						<rect id="SVGID_00000042720715204670888820000010580212102584660409_" x="71" y="35.21" width="1358" height="171.58"/>
					</defs>
					<clipPath id="SVGID_00000005963337780732649610000003722262838007114681_">
						<use xlink:href="#SVGID_00000042720715204670888820000010580212102584660409_"  style="overflow:visible;"/>
					</clipPath>
					<path style="clip-path:url(#SVGID_00000005963337780732649610000003722262838007114681_);fill:#515B6B;" d="M537.5,104.18
						c-0.23-0.23-0.47-0.46-0.93-0.46h-3.04c-0.23,0-0.7,0.23-0.93,0.46l-19.39,41.51c-0.23,0.23-0.23,0.69,0,0.92
						s0.47,0.23,0.7,0.23h3.27c0.23,0,0.7-0.23,0.93-0.46l4.91-11.07h23.6l4.91,11.07c0.23,0.23,0.47,0.46,0.93,0.46h3.27
						c0.23,0,0.47-0.23,0.7-0.23c0.23-0.23,0.23-0.46,0-0.92L537.5,104.18L537.5,104.18L537.5,104.18z M544.97,130.93h-19.39
						l9.58-20.99L544.97,130.93L544.97,130.93L544.97,130.93z"/>
				</g>
				<g>
					<defs>
						<rect id="SVGID_00000137108705210643183880000013406675289312112290_" x="71" y="35.21" width="1358" height="171.58"/>
					</defs>
					<clipPath id="SVGID_00000060737567236981123570000015423283718611669135_">
						<use xlink:href="#SVGID_00000137108705210643183880000013406675289312112290_"  style="overflow:visible;"/>
					</clipPath>
					<path style="clip-path:url(#SVGID_00000060737567236981123570000015423283718611669135_);fill:#515B6B;" d="M615.29,103.95
						h-17.52c-5.14,0-9.58,1.38-12.38,4.38c-2.1,2.08-3.27,5.07-3.27,8.3c0,6.46,4.21,10.84,11.45,12.45l-12.85,16.6
						c-0.23,0.23-0.23,0.46-0.23,0.92c0.23,0.23,0.47,0.46,0.93,0.46h3.97c0.23,0,0.47-0.23,0.7-0.23l13.08-16.84h12.38v16.14
						c0,0.46,0.23,0.92,0.93,0.92h3.27c0.47,0,0.93-0.23,0.93-0.92v-41.74C616.23,104.41,615.76,103.95,615.29,103.95L615.29,103.95
						z M611.32,108.56v16.6H598c-6.77,0-11.45-3.23-11.45-8.53v-0.23c0-5.07,4.21-8.07,11.21-8.07h13.55v0.23H611.32z"/>
				</g>
				<g>
					<defs>
						<rect id="SVGID_00000118393159629229608520000003782935237562195093_" x="71" y="35.21" width="1358" height="171.58"/>
					</defs>
					<clipPath id="SVGID_00000052788949415851345530000004806876690285217670_">
						<use xlink:href="#SVGID_00000118393159629229608520000003782935237562195093_"  style="overflow:visible;"/>
					</clipPath>
					<path style="clip-path:url(#SVGID_00000052788949415851345530000004806876690285217670_);fill:#515B6B;" d="M960.34,120.78
						h-14.25v-12.45h25.46c0.47,0,0.93-0.23,0.93-0.92v-2.77c0-0.46-0.23-0.92-0.93-0.92h-29.2c-0.47,0-0.93,0.23-0.93,0.92v41.28
						c0,0.46,0.23,0.92,0.93,0.92h18.22c9.58,0,15.89-4.84,15.89-12.91v-0.23C976.23,125.86,970.15,120.78,960.34,120.78
						L960.34,120.78z M960.58,142.23h-14.25v-17.07h14.25c6.77,0,10.75,3.23,10.75,8.3v0.23
						C971.55,139.23,967.35,142.23,960.58,142.23L960.58,142.23z"/>
				</g>
				<g>
					<defs>
						<rect id="SVGID_00000129196799752820175560000000927853965732060336_" x="71" y="35.21" width="1358" height="171.58"/>
					</defs>
					<clipPath id="SVGID_00000146470080733905305200000005847663732393797003_">
						<use xlink:href="#SVGID_00000129196799752820175560000000927853965732060336_"  style="overflow:visible;"/>
					</clipPath>
					<path style="clip-path:url(#SVGID_00000146470080733905305200000005847663732393797003_);fill:#515B6B;" d="M1022.02,103.26
						c-13.78,0-21.96,11.3-21.96,22.37v0.23c0,12.45,9.34,22.14,21.73,22.14c13.78,0,21.96-11.07,21.96-21.91c0-0.23,0-0.23,0-0.46
						C1043.51,112.48,1034.16,103.26,1022.02,103.26L1022.02,103.26z M1022.02,143.15c-9.58,0-17.05-7.84-17.05-17.76v-0.23
						c0-10.15,7.24-17.76,16.82-17.76c9.58,0,17.05,7.84,17.05,17.76v0.23C1038.84,135.54,1031.59,143.15,1022.02,143.15
						L1022.02,143.15z"/>
				</g>
				<g>
					<defs>
						<rect id="SVGID_00000139253203796881738090000006787949819790151323_" x="71" y="35.21" width="1358" height="171.58"/>
					</defs>
					<clipPath id="SVGID_00000043444414015285436630000002175308214589567664_">
						<use xlink:href="#SVGID_00000139253203796881738090000006787949819790151323_"  style="overflow:visible;"/>
					</clipPath>
					<path style="clip-path:url(#SVGID_00000043444414015285436630000002175308214589567664_);fill:#515B6B;" d="M1102.15,103.95
						h-28.5c-0.47,0-0.93,0.23-0.93,0.92l-1.4,25.14c-0.7,12.45-3.74,13.61-7.24,13.61c-0.47,0-0.93,0.23-0.93,0.92v2.08
						c0,0.46,0.23,0.92,0.7,0.92c0,0,0.93,0.23,2.1,0.23c6.07,0,9.11-5.3,9.81-17.07l1.17-21.68h20.79v37.59
						c0,0.46,0.23,0.92,0.93,0.92h3.27c0.47,0,0.93-0.23,0.93-0.92v-41.74C1102.85,104.41,1102.61,103.95,1102.15,103.95
						L1102.15,103.95z"/>
				</g>
				<g>
					<defs>
						<rect id="SVGID_00000031189037419616646400000002196129160944959661_" x="71" y="35.21" width="1358" height="171.58"/>
					</defs>
					<clipPath id="SVGID_00000092431332372585369460000015528358794506501027_">
						<use xlink:href="#SVGID_00000031189037419616646400000002196129160944959661_"  style="overflow:visible;"/>
					</clipPath>
					<path style="clip-path:url(#SVGID_00000092431332372585369460000015528358794506501027_);fill:#515B6B;" d="M1150.27,120.09
						h-14.25v-15.45c0-0.46-0.23-0.92-0.93-0.92h-3.27c-0.47,0-0.93,0.23-0.93,0.92v41.28c0,0.46,0.23,0.92,0.93,0.92h18.22
						c9.58,0,15.89-5.3,15.89-13.15v-0.23C1166.16,125.39,1159.62,120.09,1150.27,120.09L1150.27,120.09z M1150.27,142.23h-14.25
						v-17.76h14.25c6.54,0,10.75,3.46,10.75,8.76v0.23C1161.25,138.77,1156.81,142.23,1150.27,142.23L1150.27,142.23z"/>
				</g>
				<g>
					<defs>
						<rect id="SVGID_00000117635456844245233720000012981359773138836370_" x="71" y="35.21" width="1358" height="171.58"/>
					</defs>
					<clipPath id="SVGID_00000047779326317158911170000003002492021278626454_">
						<use xlink:href="#SVGID_00000117635456844245233720000012981359773138836370_"  style="overflow:visible;"/>
					</clipPath>
					<path style="clip-path:url(#SVGID_00000047779326317158911170000003002492021278626454_);fill:#515B6B;" d="M1224.79,103.95
						h-3.04c-0.47,0-0.93,0.23-0.93,0.92v17.99h-25v-18.22c0-0.46-0.23-0.92-0.93-0.92h-3.27c-0.47,0-0.93,0.23-0.93,0.92v41.28
						c0,0.46,0.23,0.92,0.93,0.92h3.27c0.47,0,0.93-0.23,0.93-0.92v-18.45h25v18.45c0,0.46,0.23,0.92,0.93,0.92h3.04
						c0.47,0,0.93-0.23,0.93-0.92v-41.05C1225.49,104.41,1225.26,103.95,1224.79,103.95L1224.79,103.95z"/>
				</g>
				<g>
					<defs>
						<rect id="SVGID_00000060717498921669942640000010618269933048048782_" x="71" y="35.21" width="1358" height="171.58"/>
					</defs>
					<clipPath id="SVGID_00000036213798642611313230000010001628859719566475_">
						<use xlink:href="#SVGID_00000060717498921669942640000010618269933048048782_"  style="overflow:visible;"/>
					</clipPath>
					<path style="clip-path:url(#SVGID_00000036213798642611313230000010001628859719566475_);fill:#515B6B;" d="M1289.51,103.95
						h-3.04c-0.23,0-0.47,0.23-0.7,0.23l-27.33,34.59v-33.9c0-0.46-0.23-0.92-0.93-0.92h-3.04c-0.47,0-0.93,0.23-0.93,0.92v41.28
						c0,0.46,0.23,0.92,0.93,0.92h3.04c0.23,0,0.47-0.23,0.7-0.23l27.33-34.59v34.13c0,0.46,0.23,0.92,0.93,0.92h3.04
						c0.47,0,0.93-0.23,0.93-0.92v-41.51C1290.44,104.41,1289.97,103.95,1289.51,103.95L1289.51,103.95z"/>
				</g>
				<g>
					<defs>
						<rect id="SVGID_00000161609949469808040100000016569024267506227618_" x="71" y="35.21" width="1358" height="171.58"/>
					</defs>
					<clipPath id="SVGID_00000040536672139570056470000011690218749787934638_">
						<use xlink:href="#SVGID_00000161609949469808040100000016569024267506227618_"  style="overflow:visible;"/>
					</clipPath>
					<path style="clip-path:url(#SVGID_00000040536672139570056470000011690218749787934638_);fill:#515B6B;" d="M1356.79,142.23
						h-3.5v-37.36c0-0.46-0.23-0.92-0.93-0.92h-3.27c-0.47,0-0.93,0.23-0.93,0.92v37.36h-25v-37.36c0-0.46-0.23-0.92-0.93-0.92
						h-3.27c-0.47,0-0.93,0.23-0.93,0.92v41.28c0,0.46,0.23,0.92,0.93,0.92h33.64v8.53c0,0.46,0.23,0.92,0.93,0.92h3.27
						c0.47,0,0.93-0.23,0.93-0.92v-12.45C1357.72,142.69,1357.25,142.23,1356.79,142.23L1356.79,142.23z"/>
				</g>
				<g>
					<defs>
						<rect id="SVGID_00000100373265380345436950000014002981252790416518_" x="71" y="35.21" width="1358" height="171.58"/>
					</defs>
					<clipPath id="SVGID_00000000207289414199240820000012216525457263664567_">
						<use xlink:href="#SVGID_00000100373265380345436950000014002981252790416518_"  style="overflow:visible;"/>
					</clipPath>
					<path style="clip-path:url(#SVGID_00000000207289414199240820000012216525457263664567_);fill:#515B6B;" d="M1425,145.46
						l-19.62-41.51c-0.23-0.23-0.47-0.46-0.93-0.46h-2.8c-0.23,0-0.7,0.23-0.93,0.46l-19.39,41.51c-0.23,0.23-0.23,0.69,0,0.92
						s0.47,0.23,0.7,0.23h3.27c0.23,0,0.7-0.23,0.93-0.46l5.14-11.07h23.6l4.91,11.07c0.23,0.23,0.47,0.46,0.93,0.46h3.27
						c0.23,0,0.47-0.23,0.7-0.23C1425,146.15,1425,145.92,1425,145.46L1425,145.46z M1412.85,130.93h-19.39l9.58-20.99
						L1412.85,130.93L1412.85,130.93L1412.85,130.93z"/>
				</g>
			</g>
		</g>
	</g>
</g>
</svg>
