<?xml version="1.0" encoding="utf-8"?>
<!-- Generator: Adobe Illustrator 26.2.1, SVG Export Plug-In . SVG Version: 6.00 Build 0)  -->
<svg version="1.1" id="Layer_1" xmlns="http://www.w3.org/2000/svg" xmlns:xlink="http://www.w3.org/1999/xlink" x="0px" y="0px"
	 viewBox="0 0 60 60" style="enable-background:new 0 0 60 60;" xml:space="preserve">
<style type="text/css">
	.st0{fill:#EEC233;stroke:#EEC233;stroke-width:0.5;stroke-miterlimit:10;}
	.st1{fill:#D75B8A;}
	.st2{fill:#EEC233;}
	.st3{fill:#FFFFFF;stroke:#EEC233;stroke-width:0.5;stroke-miterlimit:10;}
	.st4{fill:#FFFFFF;stroke:#EEC233;stroke-width:2;stroke-linecap:round;stroke-linejoin:round;stroke-miterlimit:10;}
	.st5{fill:none;stroke:#EEC233;stroke-width:2;stroke-linecap:round;stroke-linejoin:round;stroke-miterlimit:10;}
	.st6{fill:#FDFBFC;stroke:#EEC233;stroke-width:2;stroke-linecap:round;stroke-linejoin:round;stroke-miterlimit:10;}
	.st7{fill:none;}
</style>
<g>
	<path class="st2" d="M4.06,39.43c0.28-0.23,0.53-0.51,0.85-0.67c2.92-1.49,6-2.5,9.26-2.94c0.97-0.13,1.95-0.12,2.93-0.17
		c0.24-0.01,0.49,0,0.69,0c-0.47-0.85-1.03-1.64-1.36-2.52c-1.21-3.19-0.75-6.19,1.54-8.72c2.01-2.21,4.15-4.3,6.33-6.35
		c3.07-2.89,7.67-3.02,10.98-0.41c0.1,0.08,0.21,0.14,0.32,0.22c0.06-1.16,0.07-2.28,0.2-3.4c0.4-3.49,1.52-6.76,3.13-9.87
		c0.31-0.59,0.85-0.71,1.34-0.25c0.74,0.68,1.63,1.04,2.55,1.39c1.86,0.72,3.18,2.03,3.81,3.93c0.43,1.3,1.11,2.39,2.29,3.09
		c0.47,0.28,1.02,0.44,1.53,0.64c1.86,0.73,3.18,2.01,3.87,3.89c0.32,0.88,0.68,1.71,1.33,2.42c0.5,0.55,0.36,1.09-0.31,1.43
		c-3.81,1.92-7.81,3.16-12.11,3.24c-0.35,0.01-0.7,0-1.08,0c0.34,0.5,0.69,0.95,0.96,1.44c1.84,3.29,1.41,7.2-1.17,9.94
		c-1.97,2.08-4,4.12-6.08,6.09c-3.19,3.02-7.7,3.17-11.18,0.46c-0.08-0.06-0.16-0.11-0.32-0.22c0,0.75,0.03,1.42-0.01,2.08
		c-0.22,3.99-1.43,7.7-3.24,11.23c-0.11,0.21-0.34,0.36-0.51,0.53c-0.17,0-0.34,0-0.51,0c-0.8-0.71-1.68-1.26-2.71-1.61
		c-1.95-0.66-3.26-2.03-3.99-3.96c-0.19-0.5-0.36-1.02-0.64-1.48c-0.71-1.18-1.81-1.85-3.11-2.28c-1.86-0.62-3.19-1.91-3.87-3.74
		c-0.41-1.09-0.9-2.09-1.69-2.95C4.06,39.76,4.06,39.59,4.06,39.43z M30.01,17.44c-1.75,0.04-3.33,0.57-4.59,1.8
		c-2.07,2.01-4.13,4.03-6.12,6.12C16.8,28,16.79,32,19.28,34.63c2,2.1,4.06,4.16,6.16,6.16c2.52,2.4,6.59,2.39,9.11,0
		c2.09-1.99,4.14-4.03,6.13-6.12c2.52-2.65,2.53-6.65,0.01-9.3c-1.99-2.09-4.05-4.11-6.12-6.12C33.32,18.02,31.76,17.49,30.01,17.44
		z M22.47,40.56c-1.36,2.7-3.04,5.16-4.81,7.57c-0.4,0.54-0.88,0.67-1.29,0.36c-0.42-0.32-0.44-0.78-0.05-1.34
		c0.32-0.45,0.66-0.89,0.98-1.35c1.43-2.07,2.86-4.14,3.81-6.48c0.05-0.13,0.02-0.3,0.02-0.46c-0.15,0.01-0.33-0.03-0.46,0.03
		c-0.79,0.37-1.56,0.79-2.37,1.13c-0.28,0.12-0.68,0.15-0.94,0.03c-0.57-0.27-0.5-1.08,0.11-1.43c0.65-0.37,1.33-0.71,2.12-1.12
		c-4.82-0.66-9.14,0.56-13.31,2.4C6.6,40.64,6.92,41.31,7.17,42c0.56,1.55,1.6,2.58,3.15,3.12c0.54,0.19,1.09,0.39,1.57,0.68
		c1.5,0.91,2.5,2.22,3.01,3.91c0.38,1.26,1.21,2.19,2.36,2.78c0.9,0.46,1.87,0.79,2.86,1.2C21.95,49.52,23.16,45.21,22.47,40.56z
		 M37.49,19.59c0.11-0.17,0.15-0.22,0.17-0.27c1.27-2.66,2.94-5.07,4.68-7.44c0.1-0.13,0.21-0.32,0.34-0.36
		c0.26-0.07,0.6-0.15,0.8-0.04c0.22,0.12,0.42,0.44,0.46,0.7c0.03,0.22-0.15,0.5-0.3,0.72c-0.79,1.16-1.66,2.26-2.38,3.46
		c-0.86,1.41-1.6,2.88-2.38,4.34c-0.06,0.12-0.01,0.3-0.02,0.45c0.15-0.01,0.33,0.03,0.46-0.03c0.7-0.32,1.44-0.6,2.09-1.02
		c1.95-1.24,2.45,0.6,0.09,1.85c-0.32,0.17-0.65,0.32-0.97,0.48c4.7,0.73,9.02-0.48,13.18-2.32c-0.32-0.77-0.63-1.46-0.9-2.16
		c-0.55-1.48-1.56-2.49-3.04-3.04c-0.57-0.21-1.15-0.41-1.66-0.72c-1.5-0.91-2.49-2.23-3.01-3.91c-0.45-1.45-1.45-2.44-2.86-3.01
		c-0.76-0.31-1.52-0.62-2.34-0.96C38.05,10.46,36.83,14.78,37.49,19.59z"/>
	<path class="st2" d="M20.68,56.19h-0.71l-0.07-0.06c-0.82-0.73-1.68-1.24-2.63-1.56c-1.97-0.67-3.37-2.05-4.14-4.1l-0.09-0.25
		c-0.15-0.41-0.31-0.83-0.52-1.19c-0.6-1.01-1.55-1.7-2.97-2.17c-1.93-0.64-3.32-1.99-4.03-3.89c-0.47-1.27-0.98-2.15-1.64-2.87
		l-0.07-0.07v-0.72l0.09-0.08c0.08-0.07,0.17-0.14,0.25-0.22c0.19-0.18,0.4-0.36,0.64-0.48c3.04-1.54,6.18-2.54,9.34-2.97
		c0.7-0.09,1.41-0.12,2.1-0.14c0.28-0.01,0.57-0.02,0.85-0.03c0.09,0,0.18-0.01,0.27-0.01c-0.08-0.14-0.16-0.27-0.24-0.41
		c-0.34-0.56-0.69-1.14-0.92-1.77c-1.26-3.34-0.71-6.44,1.59-8.98c2.14-2.36,4.4-4.54,6.34-6.36c3.1-2.92,7.82-3.12,11.24-0.47
		c0.01-0.21,0.02-0.42,0.03-0.62c0.03-0.77,0.06-1.56,0.15-2.34c0.39-3.36,1.42-6.61,3.16-9.96c0.19-0.36,0.47-0.59,0.79-0.65
		c0.31-0.06,0.65,0.06,0.94,0.33c0.73,0.67,1.61,1.01,2.47,1.34c1.98,0.76,3.31,2.14,3.96,4.09c0.47,1.42,1.17,2.36,2.18,2.96
		c0.33,0.19,0.69,0.33,1.08,0.47c0.14,0.05,0.28,0.1,0.42,0.16c1.96,0.77,3.31,2.13,4.01,4.04c0.34,0.94,0.69,1.69,1.28,2.33
		c0.37,0.4,0.39,0.75,0.35,0.98c-0.04,0.24-0.21,0.58-0.74,0.85c-4.2,2.12-8.2,3.19-12.22,3.26c-0.2,0-0.4,0-0.61,0
		c0.02,0.03,0.04,0.05,0.05,0.08c0.23,0.33,0.46,0.65,0.65,0.99c1.91,3.42,1.43,7.43-1.21,10.23c-2.01,2.12-4.06,4.18-6.09,6.1
		c-3.25,3.07-7.82,3.28-11.42,0.54c0,0.08,0,0.15,0,0.22c0.01,0.48,0.01,0.94-0.01,1.39c-0.21,3.73-1.28,7.44-3.27,11.33
		c-0.1,0.19-0.25,0.32-0.39,0.44c-0.06,0.05-0.11,0.1-0.16,0.15L20.68,56.19z M20.16,55.69h0.31c0.04-0.03,0.07-0.07,0.11-0.1
		c0.12-0.1,0.22-0.2,0.28-0.3c1.96-3.83,3.02-7.47,3.22-11.13c0.02-0.44,0.02-0.89,0.01-1.36c0-0.23-0.01-0.47-0.01-0.71v-0.47
		l0.54,0.36c0.08,0.05,0.13,0.09,0.19,0.13c3.4,2.65,7.77,2.47,10.85-0.44c2.03-1.92,4.07-3.96,6.08-6.08
		c2.49-2.63,2.94-6.42,1.14-9.64c-0.18-0.32-0.4-0.63-0.62-0.95c-0.11-0.16-0.22-0.31-0.33-0.48l-0.26-0.39l0.83,0
		c0.25,0,0.48,0,0.71,0c3.95-0.07,7.87-1.12,12-3.21c0.19-0.1,0.43-0.26,0.47-0.49c0.04-0.21-0.1-0.42-0.23-0.55
		c-0.64-0.7-1.01-1.51-1.38-2.5c-0.64-1.77-1.9-3.03-3.72-3.75c-0.13-0.05-0.27-0.1-0.41-0.15c-0.39-0.14-0.79-0.29-1.16-0.51
		c-1.13-0.67-1.89-1.69-2.4-3.23c-0.6-1.8-1.83-3.07-3.66-3.78c-0.86-0.33-1.83-0.71-2.63-1.44c-0.12-0.11-0.31-0.24-0.52-0.2
		c-0.17,0.03-0.32,0.17-0.44,0.39c-1.71,3.29-2.72,6.49-3.1,9.79c-0.09,0.75-0.12,1.5-0.15,2.3c-0.01,0.36-0.03,0.72-0.05,1.08
		l-0.02,0.44L35.35,18c-0.08-0.05-0.16-0.1-0.23-0.16c-3.24-2.55-7.72-2.38-10.66,0.39c-1.93,1.82-4.18,3.99-6.31,6.34
		c-2.2,2.42-2.7,5.27-1.5,8.47c0.22,0.58,0.54,1.12,0.88,1.69c0.16,0.26,0.32,0.53,0.47,0.8l0.2,0.37l-0.62,0c-0.15,0-0.32,0-0.48,0
		c-0.29,0.01-0.57,0.02-0.86,0.03c-0.68,0.02-1.38,0.05-2.05,0.14c-3.1,0.42-6.19,1.4-9.18,2.92c-0.19,0.09-0.35,0.25-0.53,0.41
		c-0.06,0.05-0.12,0.11-0.18,0.16v0.29c0.68,0.75,1.2,1.67,1.68,2.96c0.66,1.75,1.94,2.99,3.72,3.59c1.54,0.52,2.57,1.27,3.24,2.39
		c0.24,0.4,0.4,0.85,0.56,1.27l0.09,0.25c0.72,1.91,2.01,3.19,3.84,3.81C18.42,54.43,19.31,54.95,20.16,55.69z M20.24,54.02
		l-0.23-0.09c-0.31-0.13-0.62-0.25-0.92-0.37c-0.68-0.27-1.33-0.52-1.96-0.84c-1.24-0.63-2.1-1.65-2.48-2.93
		c-0.49-1.63-1.47-2.9-2.9-3.77c-0.48-0.29-1.06-0.5-1.52-0.66c-1.61-0.57-2.72-1.67-3.3-3.27c-0.17-0.46-0.37-0.92-0.58-1.4
		c-0.1-0.23-0.2-0.46-0.3-0.7l-0.1-0.23l0.22-0.1c5.08-2.25,9.22-3,13.44-2.42l0.77,0.11l-1.41,0.74c-0.49,0.26-0.95,0.49-1.39,0.75
		c-0.24,0.13-0.38,0.37-0.37,0.61c0,0.1,0.04,0.28,0.25,0.37c0.17,0.08,0.5,0.07,0.74-0.03c0.49-0.2,0.97-0.45,1.44-0.68
		c0.31-0.15,0.61-0.3,0.92-0.45c0.14-0.07,0.29-0.06,0.42-0.06c0.04,0,0.09,0.01,0.13,0l0.27-0.01l-0.01,0.27c0,0.04,0,0.08,0,0.13
		c0.01,0.13,0.02,0.27-0.04,0.42c-0.98,2.4-2.43,4.5-3.84,6.53c-0.18,0.26-0.37,0.52-0.56,0.78c-0.14,0.19-0.28,0.38-0.42,0.58
		c-0.41,0.57-0.22,0.83-0.01,0.99c0.12,0.09,0.25,0.12,0.37,0.11c0.19-0.03,0.39-0.18,0.57-0.42c1.46-1.97,3.32-4.61,4.79-7.53
		l0.35-0.7l0.12,0.78c0.61,4.07-0.13,8.16-2.38,13.28L20.24,54.02z M6.62,40.03c0.07,0.16,0.13,0.31,0.2,0.46
		c0.21,0.49,0.42,0.95,0.59,1.43c0.53,1.48,1.51,2.45,3,2.97c0.49,0.17,1.09,0.39,1.62,0.71c1.54,0.94,2.59,2.3,3.12,4.05
		c0.35,1.17,1.1,2.05,2.23,2.63c0.61,0.31,1.24,0.56,1.91,0.82c0.23,0.09,0.47,0.18,0.7,0.28c1.99-4.59,2.73-8.34,2.34-11.99
		c-1.42,2.66-3.11,5.06-4.47,6.89c-0.26,0.36-0.57,0.57-0.9,0.62c-0.26,0.04-0.52-0.03-0.74-0.2c-0.25-0.19-0.77-0.74-0.1-1.68
		c0.14-0.2,0.28-0.39,0.43-0.58c0.19-0.25,0.37-0.51,0.55-0.77c1.39-2.01,2.83-4.09,3.79-6.43c0.01-0.02,0.01-0.07,0.01-0.12
		c-0.06,0-0.09,0-0.11,0.01c-0.31,0.14-0.61,0.29-0.91,0.44c-0.48,0.24-0.97,0.48-1.47,0.69c-0.3,0.13-0.79,0.19-1.14,0.02
		c-0.32-0.15-0.52-0.45-0.53-0.81c-0.02-0.42,0.23-0.84,0.62-1.06c0.45-0.26,0.91-0.49,1.41-0.75
		C14.98,37.29,11.18,38.04,6.62,40.03z M30,42.82c-1.71,0-3.42-0.62-4.72-1.86c-2.15-2.04-4.22-4.12-6.17-6.17
		c-2.6-2.73-2.59-6.86,0.01-9.6c1.96-2.06,4.02-4.08,6.13-6.13c1.23-1.2,2.84-1.83,4.76-1.87h0.01c1.92,0.05,3.51,0.68,4.73,1.87
		c2.2,2.14,4.18,4.08,6.13,6.13c2.61,2.75,2.61,6.89-0.01,9.64c-1.97,2.06-4.03,4.12-6.14,6.13C33.42,42.2,31.71,42.82,30,42.82z
		 M30.01,17.69c-1.79,0.04-3.28,0.62-4.42,1.73c-2.11,2.05-4.16,4.06-6.12,6.12c-2.42,2.54-2.43,6.38-0.01,8.91
		c1.94,2.04,4.01,4.11,6.15,6.15c2.42,2.3,6.35,2.3,8.76,0c2.1-2,4.16-4.05,6.12-6.11c2.43-2.55,2.44-6.4,0.01-8.95
		c-1.94-2.04-3.92-3.98-6.12-6.12C33.27,18.32,31.79,17.74,30.01,17.69z M43.35,22.91c-0.96,0-1.92-0.08-2.87-0.22l-0.78-0.12
		l1.01-0.5c0.22-0.11,0.44-0.22,0.66-0.33c0.99-0.52,1.44-1.17,1.45-1.54c0-0.15-0.08-0.2-0.1-0.21c-0.16-0.09-0.57-0.06-1.18,0.33
		c-0.51,0.33-1.07,0.57-1.62,0.81c-0.17,0.07-0.34,0.15-0.5,0.22c-0.14,0.07-0.29,0.06-0.42,0.05c-0.04,0-0.08,0-0.13,0l-0.27,0.01
		l0.01-0.27c0-0.04,0-0.08-0.01-0.13c-0.01-0.13-0.02-0.29,0.05-0.44c0.18-0.33,0.36-0.67,0.53-1.01c0.58-1.11,1.19-2.25,1.85-3.34
		c0.47-0.78,1.01-1.52,1.53-2.25c0.29-0.4,0.58-0.81,0.86-1.22c0.08-0.12,0.28-0.41,0.26-0.55c-0.02-0.19-0.18-0.43-0.33-0.51
		c-0.13-0.07-0.49,0.03-0.61,0.06c-0.03,0.02-0.11,0.13-0.15,0.18l-0.06,0.08c-1.93,2.63-3.46,4.89-4.66,7.4
		c-0.02,0.04-0.04,0.08-0.09,0.15l-0.46,0.72l-0.09-0.68c-0.57-4.2,0.17-8.34,2.42-13.41l0.1-0.22l2.57,1.05
		c1.53,0.62,2.54,1.69,3,3.17c0.51,1.65,1.49,2.92,2.9,3.77c0.42,0.26,0.92,0.44,1.4,0.61l0.23,0.08c1.54,0.57,2.62,1.65,3.19,3.19
		c0.18,0.48,0.38,0.95,0.59,1.45c0.1,0.23,0.2,0.46,0.3,0.71l0.09,0.23l-0.22,0.1C49.88,22.08,46.55,22.91,43.35,22.91z M41.37,22.3
		c3.69,0.41,7.44-0.32,12-2.31c-0.07-0.16-0.14-0.32-0.2-0.47c-0.22-0.5-0.42-0.98-0.6-1.47c-0.53-1.42-1.47-2.36-2.89-2.89
		l-0.22-0.08c-0.5-0.18-1.02-0.37-1.48-0.65c-1.52-0.92-2.57-2.28-3.12-4.05c-0.41-1.33-1.33-2.29-2.72-2.85l-2.12-0.86
		c-1.99,4.57-2.74,8.36-2.37,12.14c1.18-2.37,2.66-4.54,4.5-7.05l0.05-0.07c0.1-0.14,0.23-0.32,0.43-0.38
		c0.33-0.09,0.7-0.17,0.98-0.02c0.29,0.16,0.54,0.54,0.58,0.89c0.04,0.3-0.15,0.61-0.34,0.89c-0.28,0.41-0.58,0.82-0.87,1.23
		c-0.51,0.72-1.05,1.46-1.51,2.22c-0.66,1.08-1.25,2.21-1.84,3.32c-0.18,0.34-0.36,0.67-0.54,1.01c0,0.01,0,0.05,0,0.09
		c0.05,0,0.09,0,0.12-0.01c0.17-0.08,0.34-0.15,0.51-0.23c0.53-0.23,1.07-0.47,1.55-0.77c0.69-0.44,1.3-0.56,1.69-0.35
		c0.23,0.13,0.36,0.37,0.36,0.65c0,0.52-0.46,1.31-1.71,1.97C41.53,22.22,41.45,22.26,41.37,22.3z"/>
</g>
</svg>
