<?xml version="1.0" encoding="utf-8"?>
<!-- Generator: Adobe Illustrator 26.2.1, SVG Export Plug-In . SVG Version: 6.00 Build 0)  -->
<svg version="1.1" id="Layer_1" xmlns="http://www.w3.org/2000/svg" xmlns:xlink="http://www.w3.org/1999/xlink" x="0px" y="0px"
	 viewBox="0 0 60 60" style="enable-background:new 0 0 60 60;" xml:space="preserve">
<style type="text/css">
	.st0{fill:#EEC233;stroke:#EEC233;stroke-width:0.5;stroke-miterlimit:10;}
	.st1{fill:#D75B8A;}
	.st2{fill:#EEC233;}
	.st3{fill:#FFFFFF;stroke:#EEC233;stroke-width:0.5;stroke-miterlimit:10;}
	.st4{fill:#FFFFFF;stroke:#EEC233;stroke-width:2;stroke-linecap:round;stroke-linejoin:round;stroke-miterlimit:10;}
	.st5{fill:none;stroke:#EEC233;stroke-width:2;stroke-linecap:round;stroke-linejoin:round;stroke-miterlimit:10;}
	.st6{fill:#FDFBFC;stroke:#EEC233;stroke-width:2;stroke-linecap:round;stroke-linejoin:round;stroke-miterlimit:10;}
	.st7{fill:none;}
</style>
<path class="st2" d="M51.39,12c0-0.17-0.01-0.35-0.05-0.52c-0.42-1.69-1.74-2.78-3.49-2.87c-0.26-0.01-0.4-0.06-0.36-0.35
	c0.04-0.37-0.03-0.73-0.11-1.09c-0.24-1.13-1.45-2.37-2.75-2.46c-1.42-0.1-2.85-0.21-4.27-0.31c-1.57-0.1-3.13-0.2-4.7-0.32
	c-1.34-0.11-2.69-0.12-4.03-0.24c-0.54-0.05-1.08-0.05-1.62-0.09c-1.77-0.14-3.54-0.29-5.31-0.42c-1.27-0.08-9.34-0.21-10.37-0.21
	c-1.22,0-1.76,1.47-1.72,2.79c0.02,0.77-0.01,1.55,0.01,2.32c0.01,0.3-0.1,0.37-0.39,0.39c-2.07,0.09-3.56,1.58-3.62,3.71
	c-0.04,1.37-0.02,2.75,0,4.12c0.01,0.37,0.08,0.76,0.19,1.12c0.45,1.38,1.38,2.22,2.82,2.49c0.33,0.06,0.68,0.14,0.66,0.57
	c-0.02,0.49,0.1,0.97,0.13,1.46c0.05,0.87,0.16,1.73,0.23,2.6c0.09,1.28,0.26,2.56,0.39,3.84c0.09,0.83,0.15,1.66,0.23,2.49
	c0.13,1.27,0.28,2.53,0.4,3.79c0.09,0.88,0.15,1.77,0.23,2.65c0.13,1.26,0.28,2.52,0.41,3.79c0.08,0.85,0.14,1.7,0.23,2.55
	c0.13,1.26,0.27,2.52,0.4,3.78c0.09,0.88,0.14,1.77,0.23,2.66c0.13,1.24,0.34,2.48,0.39,3.73c0.05,1.37,1.59,2.92,2.97,2.91
	c7.67-0.05,15.34-0.03,23.01-0.01c1.27,0,2.08-0.68,2.66-1.66c0.57-0.96,0.4-2.1,0.54-3.16c0.17-1.22,0.23-2.46,0.34-3.69
	c0.13-1.37,0.28-2.74,0.41-4.1c0.08-0.8,0.15-1.6,0.23-2.39c0.13-1.25,0.29-2.49,0.4-3.74c0.08-0.88,0.18-1.76,0.24-2.65
	c0.08-1.23,0.27-2.45,0.4-3.68c0.12-1.23,0.21-2.46,0.33-3.69c0.12-1.27,0.28-2.52,0.41-3.79c0.12-1.23,0.21-2.46,0.32-3.69
	c0.04-0.36,0.25-0.54,0.61-0.57c1.58-0.16,3.05-1.91,2.99-3.52C51.35,15.03,51.4,13.51,51.39,12z M15.09,5.95
	c0.01-0.5,0.26-0.72,0.75-0.69c1.4,0.08,2.79,0.13,4.18,0.24c1.57,0.13,3.14,0.22,4.7,0.32c1.53,0.11,3.06,0.22,4.59,0.32
	c1.57,0.11,3.13,0.22,4.7,0.32c1.5,0.1,2.99,0.2,4.49,0.31c1.53,0.12,3.06,0.21,4.59,0.32c0.38,0.03,0.76,0.08,1.14,0.1
	c0.6,0.03,1,0.73,0.77,1.29c-0.06,0.13-0.15,0.12-0.25,0.13H30.03c-4.8,0-9.6-0.01-14.4,0.01c-0.45,0-0.57-0.13-0.55-0.56
	C15.12,7.36,15.09,6.65,15.09,5.95z M45.32,20.85c-0.12,1.21-0.28,2.42-0.4,3.63c-0.13,1.18-0.22,2.35-0.33,3.53l-0.37,3.71
	l-0.47,4.71l-0.4,3.96l-0.28,2.77c0.01,0.08,0,0.2-0.03,0.36l-0.05,0.46l-0.18,1.82c0,0.08-0.01,0.16-0.02,0.24
	c-0.13,1.41-0.29,2.81-0.41,4.21c-0.08,1.09-0.22,2.18-0.31,3.27c-0.05,0.73-0.26,0.97-1.15,0.98c-1.53,0.03-3.06,0.01-4.59,0.01
	H19.4c-0.28,0-0.55-0.04-0.82-0.09c-0.35-0.06-0.49-0.3-0.52-0.58c-0.13-1.14-0.21-2.28-0.33-3.42c-0.13-1.23-0.28-2.46-0.4-3.68
	c-0.09-0.89-0.16-1.77-0.23-2.66c-0.01-0.12,0.01-0.24-0.01-0.36c-0.03-0.2-0.05-0.35-0.05-0.46v-0.02l-0.27-2.8L15.9,31.7
	l-0.28-2.88l-0.03-0.28c-0.12-1.31-0.26-2.61-0.39-3.91c-0.16-1.47-0.32-2.94-0.48-4.47h29.95C45.36,20.16,45.38,20.17,45.32,20.85z
	 M48.91,16.4c0,0.8-0.4,1.22-1.19,1.28c-0.13,0.01-0.25,0-0.37,0h-34.6c-0.1,0-0.21,0.02-0.31,0c-1.08-0.18-1.26-0.23-1.34-1.36
	c-0.08-1.28-0.03-2.57-0.01-3.85c0.01-0.98,0.45-1.38,1.43-1.38h34.97c1.06,0,1.42,0.36,1.42,1.4
	C48.91,13.79,48.92,15.09,48.91,16.4z M44.22,31.72l-0.47,4.71c0.15-1.52,0.32-3.03,0.48-4.55C44.24,31.8,44.24,31.75,44.22,31.72z
	 M43.35,40.39c0.06-0.04,0.08-0.14,0.09-0.31c0.08-1.22,0.19-2.43,0.31-3.65L43.35,40.39z M15.9,31.7c-0.05,0.03-0.06,0.09-0.05,0.2
	c0.14,1.15,0.29,2.31,0.4,3.46c0.15,1.61,0.29,3.23,0.42,4.84c0.01,0.13,0.04,0.2,0.1,0.24L15.9,31.7z"/>
</svg>
