<?xml version="1.0" encoding="utf-8"?>
<!-- Generator: Adobe Illustrator 26.2.1, SVG Export Plug-In . SVG Version: 6.00 Build 0)  -->
<svg version="1.1" id="Layer_1" xmlns="http://www.w3.org/2000/svg" xmlns:xlink="http://www.w3.org/1999/xlink" x="0px" y="0px"
	 viewBox="0 0 60 60" style="enable-background:new 0 0 60 60;" xml:space="preserve">
<style type="text/css">
	.st0{fill:#EEC233;stroke:#EEC233;stroke-width:0.5;stroke-miterlimit:10;}
	.st1{fill:#D75B8A;}
	.st2{fill:#EEC233;}
	.st3{fill:#FFFFFF;stroke:#EEC233;stroke-width:0.5;stroke-miterlimit:10;}
	.st4{fill:#FFFFFF;stroke:#EEC233;stroke-width:2;stroke-linecap:round;stroke-linejoin:round;stroke-miterlimit:10;}
	.st5{fill:none;stroke:#EEC233;stroke-width:2;stroke-linecap:round;stroke-linejoin:round;stroke-miterlimit:10;}
	.st6{fill:#FDFBFC;stroke:#EEC233;stroke-width:2;stroke-linecap:round;stroke-linejoin:round;stroke-miterlimit:10;}
	.st7{fill:none;}
</style>
<path class="st2" d="M3.27,7.65c0.42-0.9,1.13-1.18,2.1-1.16c2.3,0.05,4.6,0.01,6.89,0.02c1.09,0,1.57,0.37,1.87,1.43
	c0.46,1.6,0.92,3.2,1.39,4.84c0.24,0,0.46,0,0.69,0c12.85,0,25.69,0,38.54,0c0.26,0,0.53-0.01,0.78,0.04
	c0.97,0.22,1.4,1.11,1.08,2.22c-1.08,3.79-2.17,7.58-3.25,11.38c-0.95,3.32-1.9,6.65-2.86,9.97c-0.32,1.12-0.77,1.46-1.96,1.46
	c-8.76,0-17.51,0.01-26.27-0.01c-0.55,0-0.82,0.17-1.05,0.66c-0.63,1.37,0.04,2.49,1.54,2.49c8.6,0,17.2,0,25.8,0
	c0.23,0,0.46-0.01,0.67,0.04c0.77,0.18,1.3,0.89,1.23,1.65c-0.07,0.81-0.73,1.43-1.58,1.43c-1.6,0.01-3.2,0-4.8,0.01
	c-0.19,0-0.38,0-0.57,0c0.56,0.25,1.18,0.43,1.67,0.78c0.52,0.36,1,0.83,1.35,1.35c0.34,0.5,0.58,1.12,0.69,1.72
	c0.11,0.62,0.1,1.29-0.02,1.91c-0.45,2.21-2.53,3.75-4.83,3.64c-2.25-0.11-4.09-1.85-4.41-4.15c-0.32-2.35,1.14-4.34,3.9-5.22
	c-4.76,0-9.45,0-14.14,0c1.26,0.32,2.31,0.96,3.04,2.06c0.73,1.09,0.96,2.29,0.71,3.59c-0.43,2.18-2.44,3.78-4.71,3.73
	c-2.3-0.05-4.19-1.76-4.55-4.11c-0.36-2.35,1.08-4.32,3.93-5.28c-1.2,0-2.29,0-3.39,0c-3.79-0.01-6.03-3.58-4.32-6.96
	c0.36-0.71,0.43-1.32,0.21-2.1c-2.41-8.31-4.77-16.64-7.15-24.96c-0.04-0.13-0.09-0.26-0.15-0.45c-0.24,0-0.5,0-0.76,0
	c-1.74,0-3.48-0.04-5.22,0.01c-0.97,0.03-1.69-0.26-2.1-1.16C3.27,8.21,3.27,7.93,3.27,7.65z M21.79,34.69c8.66,0,17.29,0,25.95,0
	c1.79-6.25,3.57-12.49,5.36-18.76c-12.24,0-24.44,0-36.68,0C18.22,22.2,20.01,28.44,21.79,34.69z M28.45,48.83
	c0.01-0.84-0.69-1.57-1.53-1.58c-0.84-0.02-1.57,0.68-1.6,1.52c-0.02,0.86,0.7,1.61,1.56,1.61C27.72,50.38,28.44,49.68,28.45,48.83z
	 M42.66,50.38c0.85,0,1.56-0.71,1.56-1.56c0.01-0.86-0.73-1.59-1.59-1.57c-0.84,0.02-1.54,0.74-1.54,1.58
	C41.1,49.67,41.82,50.38,42.66,50.38z"/>
</svg>
