<?xml version="1.0" encoding="utf-8"?>
<!-- Generator: Adobe Illustrator 26.2.1, SVG Export Plug-In . SVG Version: 6.00 Build 0)  -->
<svg version="1.1" id="Layer_1" xmlns="http://www.w3.org/2000/svg" xmlns:xlink="http://www.w3.org/1999/xlink" x="0px" y="0px"
	 viewBox="0 0 60 60" style="enable-background:new 0 0 60 60;" xml:space="preserve">
<style type="text/css">
	.st0{fill:#EEC233;stroke:#EEC233;stroke-width:0.5;stroke-miterlimit:10;}
	.st1{fill:#EEC233;}
	.st2{fill:#FFFFFF;stroke:#EEC233;stroke-width:0.5;stroke-miterlimit:10;}
	.st3{fill:#FFFFFF;stroke:#EEC233;stroke-width:2;stroke-linecap:round;stroke-linejoin:round;stroke-miterlimit:10;}
	.st4{fill:none;stroke:#EEC233;stroke-width:2;stroke-linecap:round;stroke-linejoin:round;stroke-miterlimit:10;}
	.st5{fill:#FDFBFC;stroke:#EEC233;stroke-width:2;stroke-linecap:round;stroke-linejoin:round;stroke-miterlimit:10;}
	.st6{fill:#D75B8A;}
	.st7{fill:none;}
</style>
<path class="st1" d="M52.26,15.36c0.14-0.18,0.24-0.31,0.35-0.43c0.86-0.95,1.72-1.89,2.58-2.83c0.68-0.74,0.99-1.59,0.8-2.58
	c-0.21-1.11-0.86-1.89-1.92-2.26c-1.11-0.37-2.11-0.13-2.99,0.65c-2.63,2.34-5.26,4.68-7.88,7.04c-0.34,0.31-0.69,0.42-1.14,0.42
	c-11.24-0.01-22.47-0.01-33.7-0.01c-2.7,0-4.4,1.7-4.4,4.4v20.13c0,3.66-0.02,7.32,0.01,10.98c0.01,1.79,0.87,3.11,2.52,3.79
	c0.61,0.25,1.32,0.33,1.99,0.33C22.83,55,37.18,55,51.52,55h0.36c2.49-0.08,4.16-1.79,4.16-4.29V19.66
	C56.04,17.34,54.65,15.73,52.26,15.36z M48.96,12.02l1.64-1.45c0.05-0.04,0.1-0.09,0.15-0.14l0.07-0.07
	c0.45-0.41,0.94-0.88,1.46-1.31c0.53-0.46,1.28-0.4,1.75,0.08c0.47,0.47,0.52,1.18,0.07,1.71c-0.4,0.48-0.83,0.94-1.24,1.38
	c-0.1,0.11-0.19,0.21-0.29,0.32c-0.01-0.01-1.38,1.61-1.38,1.61c-4.78,5.78-9.79,11.51-14.59,17.3c-0.99-2.2-2.66-3.89-4.91-4.91
	C37.49,21.74,43.14,16.84,48.96,12.02z M50.54,48.76c0,0.5-0.16,0.62-0.64,0.62c-12.22-0.01-24.43-0.01-36.65,0
	c-0.5,0-0.62-0.15-0.62-0.64c0.01-9.05,0.01-18.11,0-27.17c0-0.47,0.13-0.61,0.6-0.61c7.38,0.01,14.77,0.01,22.15,0.01
	c0.12,0,0.23,0.01,0.49,0.02c-0.23,0.19-0.36,0.31-0.5,0.42c-1.27,0.99-2.5,2.05-3.83,2.97c-1.52,1.04-2.49,2.47-3.01,4.17
	c-0.44,1.42-1.2,4.2-0.96,5.17c0.23,0.48,0,0.75-0.32,1.04c-0.31,0.27-0.6,0.56-0.87,0.87c-0.34,0.37-0.33,0.81-0.01,1.14
	c0.31,0.31,0.8,0.32,1.15,0c0.38-0.34,0.74-0.71,1.09-1.08c0.18-0.2,0.35-0.19,0.61-0.18c0.77,0.04,1.55,0.03,2.32-0.08
	c1.74-0.25,3.43-0.74,4.93-1.69c0.69-0.43,1.34-0.99,1.86-1.62c2.03-2.49,4.01-5.03,5.99-7.56c0.27-0.35,2.49-3.01,2.85-3.39
	c0.11-0.11,0.32-0.19,0.48-0.19c0.77-0.02,1.54,0.01,2.3-0.02c0.5-0.03,0.59,0.18,0.59,0.63c-0.02,4.61-0.01,9.22-0.01,13.84
	C50.53,39.87,50.52,44.31,50.54,48.76z M35.29,32.54c-1.22,0.66-2.5,1.01-3.82,1.26c-0.47,0.09-0.94,0.16-1.41,0.2
	c-0.52,0.04-0.93-0.27-0.9-0.75c0.12-1.87,0.57-3.67,1.43-5.39C32.84,28.76,34.38,30.31,35.29,32.54z M51.85,53.36
	c-0.13,0.01-0.27,0-0.41,0c-14.29,0-28.59,0.01-42.89,0c-0.37,0-0.75,0-1.11-0.08c-1.06-0.24-1.81-1.2-1.84-2.3
	c-0.02-0.54-0.01-1.09-0.01-1.63V19.82c0-1.88,0.95-2.83,2.82-2.83h32.2c0.01,0.04,0.02,0.08,0.03,0.11
	c-0.87,0.72-1.73,1.46-2.63,2.16c-0.14,0.11-0.42,0.08-0.64,0.08H13.12c-1.13,0-1.85,0.51-2.06,1.44c-0.06,0.25-0.05,0.51-0.05,0.76
	C11,30.6,11,39.66,11,48.72c0,1.64,0.65,2.29,2.28,2.29c8.19,0.01,16.37,0.01,24.56,0.01c4.02,0,8.03,0,12.05-0.01
	c1.61,0,2.27-0.65,2.27-2.25V21.54c0-1.5-0.68-2.19-2.17-2.2h-1.25c0.49-0.58,0.99-1.03,1.33-1.57c0.62-1,1.54-0.86,2.43-0.7
	c0.92,0.17,1.53,0.79,1.8,1.69c0.08,0.28,0.1,0.57,0.1,0.86c0.01,10.37,0.01,20.74,0.01,31.11C54.41,52.31,53.43,53.31,51.85,53.36z
	"/>
<line class="st7" x1="38.01" y1="19.26" x2="35.37" y2="21.41"/>
<line class="st7" x1="49.04" y1="19" x2="46.97" y2="21.39"/>
</svg>
