<?xml version="1.0" encoding="utf-8"?>
<!-- Generator: Adobe Illustrator 26.2.1, SVG Export Plug-In . SVG Version: 6.00 Build 0)  -->
<svg version="1.1" id="Layer_1" xmlns="http://www.w3.org/2000/svg" xmlns:xlink="http://www.w3.org/1999/xlink" x="0px" y="0px"
	 viewBox="0 0 60 60" style="enable-background:new 0 0 60 60;" xml:space="preserve">
<style type="text/css">
	.st0{fill:#D75B8A;}
	.st1{fill:#EEC233;}
</style>
<path class="st1" d="M56.03,45.28c-1.05-1.05-2.45-1.63-3.94-1.63c-2.62,0-4.95,1.9-5.47,4.47h-9.2c-0.49-1.85-2.21-3.17-4.12-3.17
	c-1.91,0-3.63,1.32-4.12,3.17h-1.09c-0.49-1.85-2.21-3.17-4.12-3.17c-1.91,0-3.63,1.32-4.12,3.17h-2.31c-4.69,0-8.51-3.82-8.51-8.51
	s3.82-8.51,8.51-8.51h2.31c0.49,1.85,2.21,3.17,4.12,3.17c1.91,0,3.63-1.32,4.12-3.17h1.09c0.49,1.85,2.21,3.17,4.12,3.17
	c1.91,0,3.63-1.32,4.12-3.17h5.07c3.95,0,7.56-2.16,9.43-5.64c0.05-0.08,0.08-0.17,0.1-0.25c0.35-0.91,1.92-5.5,0.06-9.55
	c-1.82-3.67-5.49-5.95-9.59-5.95h-5.06c-0.48-1.85-2.21-3.19-4.12-3.19c-1.92,0-3.64,1.33-4.12,3.19h-1.08
	c-0.48-1.85-2.21-3.19-4.12-3.19c-1.92,0-3.64,1.33-4.12,3.19h-6.44c-0.5-2.59-2.84-4.5-5.47-4.5c-3.04,0-5.58,2.54-5.58,5.58
	c0,3.04,2.54,5.58,5.58,5.58c1.49,0,2.89-0.58,3.94-1.63c0.79-0.79,1.31-1.77,1.52-2.83h6.45c0.49,1.84,2.21,3.15,4.12,3.15
	c1.9,0,3.62-1.31,4.12-3.15h1.1c0.49,1.84,2.21,3.15,4.12,3.15c1.9,0,3.62-1.31,4.12-3.15h5.07c3.26,0,6.18,1.82,7.63,4.74
	c0,0,1.93,3.42-0.13,7.79c-1.49,2.77-4.36,4.49-7.5,4.49h-5.07c-0.49-1.85-2.21-3.17-4.12-3.17c-1.91,0-3.63,1.32-4.12,3.17h-1.09
	c-0.49-1.85-2.21-3.17-4.12-3.17c-1.91,0-3.63,1.32-4.12,3.17h-2.31c-5.9,0-10.7,4.8-10.7,10.7c0,5.9,4.8,10.7,10.7,10.7h2.31
	c0.49,1.85,2.21,3.17,4.12,3.17c1.91,0,3.63-1.32,4.12-3.17h1.09c0.49,1.85,2.21,3.17,4.12,3.17c1.91,0,3.63-1.32,4.12-3.17h9.2
	c0.5,2.59,2.84,4.5,5.47,4.5c3.04,0,5.58-2.54,5.58-5.58C57.66,47.74,57.08,46.33,56.03,45.28z M10.32,13.17
	c-0.64,0.64-1.49,0.99-2.4,0.99c-0.91,0-1.76-0.35-2.4-0.99c-0.64-0.64-0.99-1.49-0.99-2.4c0-0.91,0.35-1.76,0.99-2.4
	s1.49-0.99,2.4-0.99c0.91,0,1.76,0.35,2.4,0.99c0.64,0.64,0.99,1.49,0.99,2.4C11.31,11.68,10.96,12.53,10.32,13.17z M25.43,12.24
	c-0.39,0.39-0.91,0.61-1.47,0.61c-0.55,0-1.08-0.22-1.47-0.61c-0.81-0.81-0.81-2.13,0-2.94c0.4-0.4,0.94-0.61,1.47-0.61
	c0.53,0,1.06,0.2,1.47,0.61C26.24,10.12,26.24,11.43,25.43,12.24z M34.76,12.24c-0.39,0.39-0.91,0.61-1.47,0.61
	c-0.55,0-1.08-0.22-1.47-0.61c-0.81-0.81-0.81-2.13,0-2.94c0.4-0.4,0.94-0.61,1.47-0.61c0.53,0,1.06,0.2,1.47,0.61
	C35.57,10.12,35.57,11.43,34.76,12.24z M31.82,28.53c0.39-0.39,0.91-0.61,1.47-0.61c0.55,0,1.08,0.22,1.47,0.61
	c0.81,0.81,0.81,2.13,0,2.94c-0.81,0.81-2.13,0.81-2.94,0C31.01,30.66,31.01,29.34,31.82,28.53z M22.49,28.53
	c0.39-0.39,0.91-0.61,1.47-0.61c0.55,0,1.08,0.22,1.47,0.61c0.81,0.81,0.81,2.13,0,2.94c-0.81,0.81-2.13,0.81-2.94,0
	C21.68,30.66,21.68,29.34,22.49,28.53z M25.43,50.68c-0.39,0.39-0.91,0.61-1.47,0.61c-0.55,0-1.08-0.22-1.47-0.61
	c-0.81-0.81-0.81-2.13,0-2.94c0.39-0.39,0.91-0.61,1.47-0.61c0.55,0,1.08,0.22,1.47,0.61C26.24,48.55,26.24,49.87,25.43,50.68z
	 M34.76,50.68c-0.39,0.39-0.91,0.61-1.47,0.61c-0.55,0-1.08-0.22-1.47-0.61c-0.81-0.81-0.81-2.13,0-2.94
	c0.39-0.39,0.91-0.61,1.47-0.61c0.55,0,1.08,0.22,1.47,0.61C35.57,48.55,35.57,49.87,34.76,50.68z M54.48,51.62
	c-0.64,0.64-1.49,0.99-2.4,0.99c-0.91,0-1.76-0.35-2.4-0.99c-0.64-0.64-0.99-1.49-0.99-2.4c0-0.91,0.35-1.76,0.99-2.4
	c0.64-0.64,1.49-0.99,2.4-0.99c0.91,0,1.76,0.35,2.4,0.99c0.64,0.64,0.99,1.49,0.99,2.4C55.47,50.13,55.12,50.98,54.48,51.62z"/>
</svg>
