<?xml version="1.0" encoding="utf-8"?>
<!-- Generator: Adobe Illustrator 26.2.1, SVG Export Plug-In . SVG Version: 6.00 Build 0)  -->
<svg version="1.1" id="Layer_1" xmlns="http://www.w3.org/2000/svg" xmlns:xlink="http://www.w3.org/1999/xlink" x="0px" y="0px"
	 viewBox="0 0 60 60" style="enable-background:new 0 0 60 60;" xml:space="preserve">
<style type="text/css">
	.st0{fill:#EEC233;stroke:#EEC233;stroke-width:0.5;stroke-miterlimit:10;}
	.st1{fill:#D75B8A;}
	.st2{fill:#EEC233;}
	.st3{fill:#FFFFFF;stroke:#EEC233;stroke-width:0.5;stroke-miterlimit:10;}
	.st4{fill:#FFFFFF;stroke:#EEC233;stroke-width:2;stroke-linecap:round;stroke-linejoin:round;stroke-miterlimit:10;}
	.st5{fill:none;stroke:#EEC233;stroke-width:2;stroke-linecap:round;stroke-linejoin:round;stroke-miterlimit:10;}
</style>
<g>
	<path class="st0" d="M27.97,8.52v1.43H9.27c-0.4,0-0.71-0.33-0.71-0.71c0-0.4,0.32-0.71,0.71-0.71H27.97z"/>
	<path class="st0" d="M51.5,9.23c0,0.39-0.32,0.71-0.71,0.71h-18.7V8.52h18.7C51.19,8.52,51.5,8.84,51.5,9.23z"/>
</g>
<g>
	<path class="st0" d="M30.03,50.65c-0.19,0-0.38-0.06-0.53-0.19l-10.1-8.44c-0.29-0.24-0.38-0.65-0.22-0.99l10.1-21.72
		c0.14-0.29,0.43-0.48,0.75-0.48c0.32,0,0.62,0.19,0.75,0.48l10.1,21.72c0.16,0.34,0.07,0.74-0.22,0.99l-10.1,8.44
		C30.41,50.59,30.22,50.65,30.03,50.65z M20.95,41.16l9.08,7.59l9.08-7.59l-9.08-19.53L20.95,41.16z"/>
</g>
<g>
	<path class="st0" d="M39.12,55.54H20.94c-0.46,0-0.82-0.37-0.83-0.82l-0.05-4.88c0-0.22,0.08-0.43,0.24-0.59
		C20.46,49.09,20.68,49,20.9,49h18.17c0.46,0,0.83,0.37,0.83,0.82l0.05,4.88c0,0.22-0.08,0.43-0.24,0.59
		C39.55,55.45,39.34,55.54,39.12,55.54z M21.77,53.88h16.51l-0.03-3.22H21.73L21.77,53.88z"/>
</g>
<g>
	<path class="st0" d="M30.03,38.69c-0.46,0-0.83-0.37-0.83-0.83v-18.2c0-0.46,0.37-0.83,0.83-0.83s0.83,0.37,0.83,0.83v18.2
		C30.86,38.32,30.49,38.69,30.03,38.69z"/>
</g>
<g>
	<path class="st0" d="M30.03,43.66c-1.83,0-3.32-1.49-3.32-3.32c0-1.83,1.49-3.32,3.32-3.32c1.83,0,3.32,1.49,3.32,3.32
		C33.35,42.18,31.86,43.66,30.03,43.66z M30.03,38.69c-0.91,0-1.66,0.74-1.66,1.66s0.74,1.66,1.66,1.66c0.91,0,1.66-0.74,1.66-1.66
		S30.94,38.69,30.03,38.69z"/>
</g>
<g>
	<path class="st0" d="M27.97,9.68v1.44c-0.23,0.01-0.48,0.04-0.71,0.08c-0.23,0.01-0.47,0.05-0.7,0.09
		C16.16,12.96,8.21,21.99,8.21,32.84c0,0.4-0.33,0.71-0.71,0.71c-0.4,0-0.71-0.32-0.71-0.71c0-11.63,8.59-21.31,19.78-23
		c0.23-0.04,0.47-0.07,0.7-0.09C27.49,9.73,27.72,9.7,27.97,9.68z"/>
	<path class="st0" d="M53.28,32.84c0,0.4-0.32,0.71-0.71,0.71c-0.39,0-0.71-0.32-0.71-0.71c0-10.85-7.96-19.88-18.35-21.54
		c-0.23-0.05-0.47-0.08-0.7-0.09c-0.23-0.05-0.48-0.07-0.71-0.08V9.68c0.25,0.02,0.48,0.05,0.71,0.07c0.23,0.02,0.47,0.06,0.7,0.09
		C44.69,11.53,53.28,21.21,53.28,32.84z"/>
</g>
<g>
	<path class="st0" d="M6.93,12.28c-1.68,0-3.05-1.37-3.05-3.05s1.37-3.05,3.05-3.05c1.68,0,3.04,1.37,3.04,3.05
		S8.61,12.28,6.93,12.28z M6.93,7.61c-0.89,0-1.62,0.73-1.62,1.62c0,0.89,0.73,1.62,1.62,1.62s1.62-0.73,1.62-1.62
		C8.56,8.34,7.83,7.61,6.93,7.61z"/>
</g>
<g>
	<path class="st0" d="M53.13,12.28c-1.68,0-3.04-1.37-3.04-3.05s1.37-3.05,3.04-3.05c1.68,0,3.04,1.37,3.04,3.05
		S54.8,12.28,53.13,12.28z M53.13,7.61c-0.89,0-1.62,0.73-1.62,1.62c0,0.89,0.73,1.62,1.62,1.62c0.89,0,1.62-0.73,1.62-1.62
		C54.75,8.34,54.02,7.61,53.13,7.61z"/>
</g>
<g>
	<path class="st0" d="M55.34,39.44H49.8c-0.39,0-0.71-0.32-0.71-0.71V33.2c0-0.39,0.32-0.71,0.71-0.71h5.54
		c0.39,0,0.71,0.32,0.71,0.71v5.54C56.05,39.13,55.73,39.44,55.34,39.44z M50.51,38.02h4.11v-4.11h-4.11V38.02z"/>
</g>
<g>
	<path class="st0" d="M10.26,39.44H4.72c-0.39,0-0.71-0.32-0.71-0.71V33.2c0-0.39,0.32-0.71,0.71-0.71h5.54
		c0.39,0,0.71,0.32,0.71,0.71v5.54C10.97,39.13,10.65,39.44,10.26,39.44z M5.43,38.02h4.11v-4.11H5.43V38.02z"/>
</g>
<g>
	<path class="st3" d="M27.26,6.89v5.55h5.55V6.89H27.26z M32.09,11.73h-4.12V7.61h4.12V11.73z"/>
	<path class="st0" d="M32.8,6.19h-5.55c-0.39,0-0.7,0.32-0.7,0.7v5.55c0,0.39,0.32,0.7,0.7,0.7h5.55c0.39,0,0.7-0.32,0.7-0.7V6.89
		C33.51,6.51,33.19,6.19,32.8,6.19z M32.09,11.73h-4.12V7.61h4.12V11.73z"/>
</g>
</svg>
