<?xml version="1.0" encoding="utf-8"?>
<!-- Generator: Adobe Illustrator 26.2.1, SVG Export Plug-In . SVG Version: 6.00 Build 0)  -->
<svg version="1.1" id="Layer_1" xmlns="http://www.w3.org/2000/svg" xmlns:xlink="http://www.w3.org/1999/xlink" x="0px" y="0px"
	 viewBox="0 0 60 60" style="enable-background:new 0 0 60 60;" xml:space="preserve">
<style type="text/css">
	.st0{fill:#EEC233;stroke:#EEC233;stroke-width:0.5;stroke-miterlimit:10;}
	.st1{fill:#EEC233;}
	.st2{fill:#FFFFFF;stroke:#EEC233;stroke-width:0.5;stroke-miterlimit:10;}
	.st3{fill:#FFFFFF;stroke:#EEC233;stroke-width:2;stroke-linecap:round;stroke-linejoin:round;stroke-miterlimit:10;}
	.st4{fill:none;stroke:#EEC233;stroke-width:2;stroke-linecap:round;stroke-linejoin:round;stroke-miterlimit:10;}
	.st5{fill:#FDFBFC;stroke:#EEC233;stroke-width:2;stroke-linecap:round;stroke-linejoin:round;stroke-miterlimit:10;}
	.st6{fill:#D75B8A;}
	.st7{fill:none;}
	.st8{fill:none;stroke:#D75B8A;stroke-width:3;stroke-linecap:round;stroke-linejoin:round;stroke-miterlimit:10;}
</style>
<path class="st6" d="M54.82,16.27c0.01-1.59-0.82-2.58-2.02-3.39c-0.91-0.61-1.95-0.73-3.01-0.73H10.14c-0.14,0-0.29,0.01-0.44,0
	c-2.06,0-4.35,1.5-4.53,3.51v28.67c0.16,1.39,1.05,2.23,2.17,2.9c0.82,0.49,1.73,0.61,2.65,0.61c3.31,0.01,6.62,0.01,9.92,0.01
	h29.82c1.08,0,2.13-0.12,3.06-0.74c1.2-0.8,2.03-1.8,2.02-3.39C54.8,34.57,54.8,25.42,54.82,16.27z M49.46,15.68
	c-0.77,0.74-1.41,1.49-2.18,2.12c-0.12,0.1-0.24,0.22-0.35,0.33c-4.51,4.51-9.02,9.01-13.52,13.53c-1.12,1.13-2.43,1.72-4.04,1.53
	c-0.78-0.09-1.52-0.37-2.1-0.92c-4.83-4.59-9.43-9.41-14.19-14.07c-0.84-0.82-1.69-1.63-2.6-2.52H49.46z M8.3,42.12V18.08
	c3.98,3.98,8.02,8.02,12.08,12.08C16.36,33.99,12.39,38.06,8.3,42.12z M10.47,44.31c0.62-0.58,1.1-1.18,1.71-1.64
	c0.13-0.1,0.24-0.22,0.35-0.33c3.28-3.28,6.55-6.54,9.82-9.83c0.29-0.3,0.43-0.26,0.71,0.01c0.86,0.85,1.63,1.79,2.6,2.51
	c1.03,0.77,2.18,1.22,3.48,1.37c1.51,0.19,2.89-0.12,4.22-0.79c0.7-0.35,1.31-0.84,1.85-1.41c0.55-0.59,1.16-1.13,1.7-1.72
	c0.25-0.27,0.39-0.24,0.64,0.01c3.26,3.28,6.53,6.56,9.83,9.82c0.66,0.65,1.36,1.28,2.08,2H10.47z M51.63,42.11
	c-4.08-4.03-8.05-8.12-12.15-12.01c4.06-4.06,8.1-8.1,12.15-12.15V42.11z"/>
</svg>
