<?xml version="1.0" encoding="utf-8"?>
<!-- Generator: Adobe Illustrator 26.2.1, SVG Export Plug-In . SVG Version: 6.00 Build 0)  -->
<svg version="1.1" id="Layer_1" xmlns="http://www.w3.org/2000/svg" xmlns:xlink="http://www.w3.org/1999/xlink" x="0px" y="0px"
	 viewBox="0 0 60 60" style="enable-background:new 0 0 60 60;" xml:space="preserve">
<style type="text/css">
	.st0{fill:#FDFBFC;}
	.st1{fill:#EEC233;}
	.st2{fill:#EEC233;stroke:#EEC233;stroke-width:0.5;stroke-miterlimit:10;}
	.st3{fill:#D75B8A;}
	.st4{fill:#FFFFFF;stroke:#EEC233;stroke-width:0.5;stroke-miterlimit:10;}
	.st5{fill:#FFFFFF;stroke:#EEC233;stroke-width:2;stroke-linecap:round;stroke-linejoin:round;stroke-miterlimit:10;}
	.st6{fill:none;stroke:#EEC233;stroke-width:2;stroke-linecap:round;stroke-linejoin:round;stroke-miterlimit:10;}
	.st7{fill:#FEFEFE;}
	.st8{fill:none;}
	.st9{fill:#FDFBFC;stroke:#EEC233;stroke-width:2;stroke-linecap:round;stroke-linejoin:round;stroke-miterlimit:10;}
</style>
<g>
	<path class="st0" d="M15,41.41c-0.04-0.01-0.07-0.01-0.11-0.01c-0.32,0-0.64,0.04-0.94,0.13c-0.33,0.08-0.64,0.21-0.93,0.38
		c-1.08,0.65-1.8,1.82-1.8,3.16c0,2.02,1.65,3.66,3.67,3.66c0.47,0,0.92-0.09,1.34-0.26c0.32-0.12,0.61-0.28,0.88-0.48
		c0.29-0.23,0.54-0.48,0.74-0.77c0.45-0.6,0.71-1.35,0.71-2.15C18.56,43.09,16.97,41.46,15,41.41z M16.18,46.1
		c-0.2,0.27-0.5,0.47-0.84,0.56c-0.14,0.05-0.29,0.07-0.45,0.07c-0.92,0-1.67-0.74-1.67-1.66c0-0.55,0.27-1.05,0.69-1.34
		c0.27-0.21,0.6-0.32,0.95-0.33h0.03c0.92,0,1.67,0.75,1.67,1.67C16.56,45.46,16.43,45.82,16.18,46.1z"/>
	<path class="st0" d="M7.58,6v48.56h18.98v-1H8.58V36.58h17.98v-2H14.18l8.84-8.84l2.54,2.56l1,1.01v-2.83l-1-1.01l-1.13-1.14
		l1.13-1.13l1-1V6H7.58z M8.58,7h16.98v9.25H8.58V7z M8.58,29.62h7.74l-4.96,4.96H8.58V29.62z M18.32,27.62H8.58v-9.37h16.98v2.12
		L18.32,27.62z"/>
	<path class="st1" d="M25.56,34.58v2h2v-2H25.56z M25.56,34.58v1h1v-1H25.56z M25.56,34.58v1h1v-1H25.56z M26.56,5H7.58
		c-0.55,0-1,0.45-1,1v48.56c0,0.55,0.45,1,1,1h18.98c0.55,0,1-0.45,1-1v-1H8.58V7h16.98v16.2l2-2V6C27.56,5.45,27.11,5,26.56,5z
		 M25.56,35.58h1v-1h-1V35.58z M25.56,34.58v1h1v-1H25.56z M25.56,34.58v1h1v-1H25.56z M25.56,25.47v2.83l1,1.01l1,1.02v-2.84
		L25.56,25.47z M25.56,34.58v1h1v-1H25.56z"/>
</g>
<g>
	<polygon class="st0" points="20.62,53.56 20.09,54.09 19.83,53.56 	"/>
	<path class="st0" d="M18.56,45.07c0,0.8-0.26,1.55-0.71,2.15c-0.2,0.29-0.45,0.54-0.74,0.77l-0.46-0.93l-0.47-0.96
		c0.25-0.28,0.38-0.64,0.38-1.03c0-0.92-0.75-1.67-1.67-1.67h-0.03l-0.46-0.96l-0.45-0.91c0.3-0.09,0.62-0.13,0.94-0.13
		c0.04,0,0.07,0,0.11,0.01C16.97,41.46,18.56,43.09,18.56,45.07z"/>
	<path class="st0" d="M24.43,24.33l-0.7,0.7l1.83,1.86v-1.42L24.43,24.33z M24.43,24.33l-0.7,0.7l1.83,1.86v-1.42L24.43,24.33z
		 M39.34,8.01l-7.1,7.1l-1.23,1.24l-3.45,3.44L11.77,35.58l-0.49,0.49l0.25,0.51h26.08l2-2l4.96-4.97l0.93-0.93l7.26-7.25
		L39.34,8.01z M23.02,25.74l2.54,2.56l1,1.01l1,1.02l4.21,4.25H14.18L23.02,25.74z M38.19,34.58h-3.61l-7.02-7.09l-2-2.02
		l-1.13-1.14l1.13-1.13l6.06-6.06l12.01,12.01L38.19,34.58z M45.04,27.73l-12-12l6.3-6.31l12,12.01L45.04,27.73z M24.43,24.33
		l-0.7,0.7l1.83,1.86v-1.42L24.43,24.33z M24.43,24.33l-0.7,0.7l1.83,1.86v-1.42L24.43,24.33z"/>
	<path class="st1" d="M17.33,46.15l-1.8-3.67L15,41.41c-0.04-0.01-0.07-0.01-0.11-0.01c-0.32,0-0.64,0.04-0.94,0.13
		c-0.33,0.08-0.64,0.21-0.93,0.38l0.44,0.91l0.45,0.91c0.27-0.21,0.6-0.32,0.95-0.33h0.03c0.92,0,1.67,0.75,1.67,1.67
		c0,0.39-0.13,0.75-0.38,1.03c-0.2,0.27-0.5,0.47-0.84,0.56l0.45,0.91l0.44,0.9c0.32-0.12,0.61-0.28,0.88-0.48
		c0.29-0.23,0.54-0.48,0.74-0.77L17.33,46.15z M53.46,20.72L40.05,7.3c-0.38-0.37-1.04-0.37-1.42,0L25.56,20.37l-7.24,7.25l-2,2
		l-4.96,4.96l-0.79,0.79c-0.06,0.06-0.12,0.13-0.16,0.21c-0.16,0.28-0.18,0.63-0.03,0.93l0.03,0.07h2.23l-0.15-0.31l1.69-1.69
		l8.84-8.84l0.71-0.71l0.7-0.7l1.13-1.13l6.77-6.77l0.71-0.7l6.3-6.31l12,12.01l-6.3,6.3l-0.71,0.71l-0.7,0.71l-5.44,5.43l-2,2h2.82
		l2-2l12.45-12.45C53.86,21.74,53.86,21.11,53.46,20.72z M18.72,53.56l0.47,0.97c0.01,0.01,0.01,0.02,0.02,0.03
		c0.15,0.28,0.41,0.47,0.72,0.52c0.05,0.01,0.11,0.01,0.16,0.01c0.27,0,0.52-0.1,0.71-0.29l1.24-1.24H18.72z"/>
</g>
<g>
	<path class="st0" d="M15,41.41l0.53,1.07l1.8,3.67l0.52,1.07c0.45-0.6,0.71-1.35,0.71-2.15C18.56,43.09,16.97,41.46,15,41.41z
		 M15,41.41c-0.04-0.01-0.07-0.01-0.11-0.01c-0.32,0-0.64,0.04-0.94,0.13c-0.33,0.08-0.64,0.21-0.93,0.38
		c-1.08,0.65-1.8,1.82-1.8,3.16c0,2.02,1.65,3.66,3.67,3.66c0.47,0,0.92-0.09,1.34-0.26c0.32-0.12,0.61-0.28,0.88-0.48
		c0.29-0.23,0.54-0.48,0.74-0.77c0.45-0.6,0.71-1.35,0.71-2.15C18.56,43.09,16.97,41.46,15,41.41z M16.18,46.1
		c-0.2,0.27-0.5,0.47-0.84,0.56c-0.14,0.05-0.29,0.07-0.45,0.07c-0.92,0-1.67-0.74-1.67-1.66c0-0.55,0.27-1.05,0.69-1.34
		c0.27-0.21,0.6-0.32,0.95-0.33h0.03c0.92,0,1.67,0.75,1.67,1.67C16.56,45.46,16.43,45.82,16.18,46.1z M15,41.41
		c-0.04-0.01-0.07-0.01-0.11-0.01c-0.32,0-0.64,0.04-0.94,0.13c-0.33,0.08-0.64,0.21-0.93,0.38c-1.08,0.65-1.8,1.82-1.8,3.16
		c0,2.02,1.65,3.66,3.67,3.66c0.47,0,0.92-0.09,1.34-0.26c0.32-0.12,0.61-0.28,0.88-0.48c0.29-0.23,0.54-0.48,0.74-0.77
		c0.45-0.6,0.71-1.35,0.71-2.15C18.56,43.09,16.97,41.46,15,41.41z M16.18,46.1c-0.2,0.27-0.5,0.47-0.84,0.56
		c-0.14,0.05-0.29,0.07-0.45,0.07c-0.92,0-1.67-0.74-1.67-1.66c0-0.55,0.27-1.05,0.69-1.34c0.27-0.21,0.6-0.32,0.95-0.33h0.03
		c0.92,0,1.67,0.75,1.67,1.67C16.56,45.46,16.43,45.82,16.18,46.1z M15,41.41c-0.04-0.01-0.07-0.01-0.11-0.01
		c-0.32,0-0.64,0.04-0.94,0.13c-0.33,0.08-0.64,0.21-0.93,0.38c-1.08,0.65-1.8,1.82-1.8,3.16c0,2.02,1.65,3.66,3.67,3.66
		c0.47,0,0.92-0.09,1.34-0.26c0.32-0.12,0.61-0.28,0.88-0.48c0.29-0.23,0.54-0.48,0.74-0.77c0.45-0.6,0.71-1.35,0.71-2.15
		C18.56,43.09,16.97,41.46,15,41.41z M16.18,46.1c-0.2,0.27-0.5,0.47-0.84,0.56c-0.14,0.05-0.29,0.07-0.45,0.07
		c-0.92,0-1.67-0.74-1.67-1.66c0-0.55,0.27-1.05,0.69-1.34c0.27-0.21,0.6-0.32,0.95-0.33h0.03c0.92,0,1.67,0.75,1.67,1.67
		C16.56,45.46,16.43,45.82,16.18,46.1z M15,41.41c-0.04-0.01-0.07-0.01-0.11-0.01c-0.32,0-0.64,0.04-0.94,0.13
		c-0.33,0.08-0.64,0.21-0.93,0.38c-1.08,0.65-1.8,1.82-1.8,3.16c0,2.02,1.65,3.66,3.67,3.66c0.47,0,0.92-0.09,1.34-0.26
		c0.32-0.12,0.61-0.28,0.88-0.48c0.29-0.23,0.54-0.48,0.74-0.77c0.45-0.6,0.71-1.35,0.71-2.15C18.56,43.09,16.97,41.46,15,41.41z
		 M16.18,46.1c-0.2,0.27-0.5,0.47-0.84,0.56c-0.14,0.05-0.29,0.07-0.45,0.07c-0.92,0-1.67-0.74-1.67-1.66
		c0-0.55,0.27-1.05,0.69-1.34c0.27-0.21,0.6-0.32,0.95-0.33h0.03c0.92,0,1.67,0.75,1.67,1.67C16.56,45.46,16.43,45.82,16.18,46.1z
		 M15,41.41c-0.04-0.01-0.07-0.01-0.11-0.01c-0.32,0-0.64,0.04-0.94,0.13c-0.33,0.08-0.64,0.21-0.93,0.38
		c-1.08,0.65-1.8,1.82-1.8,3.16c0,2.02,1.65,3.66,3.67,3.66c0.47,0,0.92-0.09,1.34-0.26c0.32-0.12,0.61-0.28,0.88-0.48
		c0.29-0.23,0.54-0.48,0.74-0.77c0.45-0.6,0.71-1.35,0.71-2.15C18.56,43.09,16.97,41.46,15,41.41z M16.18,46.1
		c-0.2,0.27-0.5,0.47-0.84,0.56c-0.14,0.05-0.29,0.07-0.45,0.07c-0.92,0-1.67-0.74-1.67-1.66c0-0.55,0.27-1.05,0.69-1.34
		c0.27-0.21,0.6-0.32,0.95-0.33h0.03c0.92,0,1.67,0.75,1.67,1.67C16.56,45.46,16.43,45.82,16.18,46.1z M15,41.41
		c-0.04-0.01-0.07-0.01-0.11-0.01c-0.32,0-0.64,0.04-0.94,0.13c-0.33,0.08-0.64,0.21-0.93,0.38c-1.08,0.65-1.8,1.82-1.8,3.16
		c0,2.02,1.65,3.66,3.67,3.66c0.47,0,0.92-0.09,1.34-0.26c0.32-0.12,0.61-0.28,0.88-0.48c0.29-0.23,0.54-0.48,0.74-0.77
		c0.45-0.6,0.71-1.35,0.71-2.15C18.56,43.09,16.97,41.46,15,41.41z M16.18,46.1c-0.2,0.27-0.5,0.47-0.84,0.56
		c-0.14,0.05-0.29,0.07-0.45,0.07c-0.92,0-1.67-0.74-1.67-1.66c0-0.55,0.27-1.05,0.69-1.34c0.27-0.21,0.6-0.32,0.95-0.33h0.03
		c0.92,0,1.67,0.75,1.67,1.67C16.56,45.46,16.43,45.82,16.18,46.1z M15,41.41c-0.04-0.01-0.07-0.01-0.11-0.01
		c-0.32,0-0.64,0.04-0.94,0.13c-0.33,0.08-0.64,0.21-0.93,0.38c-1.08,0.65-1.8,1.82-1.8,3.16c0,2.02,1.65,3.66,3.67,3.66
		c0.47,0,0.92-0.09,1.34-0.26c0.32-0.12,0.61-0.28,0.88-0.48c0.29-0.23,0.54-0.48,0.74-0.77c0.45-0.6,0.71-1.35,0.71-2.15
		C18.56,43.09,16.97,41.46,15,41.41z M16.18,46.1c-0.2,0.27-0.5,0.47-0.84,0.56c-0.14,0.05-0.29,0.07-0.45,0.07
		c-0.92,0-1.67-0.74-1.67-1.66c0-0.55,0.27-1.05,0.69-1.34c0.27-0.21,0.6-0.32,0.95-0.33h0.03c0.92,0,1.67,0.75,1.67,1.67
		C16.56,45.46,16.43,45.82,16.18,46.1z M15,41.41c-0.04-0.01-0.07-0.01-0.11-0.01c-0.32,0-0.64,0.04-0.94,0.13
		c-0.33,0.08-0.64,0.21-0.93,0.38c-1.08,0.65-1.8,1.82-1.8,3.16c0,2.02,1.65,3.66,3.67,3.66c0.47,0,0.92-0.09,1.34-0.26
		c0.32-0.12,0.61-0.28,0.88-0.48c0.29-0.23,0.54-0.48,0.74-0.77c0.45-0.6,0.71-1.35,0.71-2.15C18.56,43.09,16.97,41.46,15,41.41z
		 M16.18,46.1c-0.2,0.27-0.5,0.47-0.84,0.56c-0.14,0.05-0.29,0.07-0.45,0.07c-0.92,0-1.67-0.74-1.67-1.66
		c0-0.55,0.27-1.05,0.69-1.34c0.27-0.21,0.6-0.32,0.95-0.33h0.03c0.92,0,1.67,0.75,1.67,1.67C16.56,45.46,16.43,45.82,16.18,46.1z
		 M15,41.41c-0.04-0.01-0.07-0.01-0.11-0.01c-0.32,0-0.64,0.04-0.94,0.13c-0.33,0.08-0.64,0.21-0.93,0.38
		c-1.08,0.65-1.8,1.82-1.8,3.16c0,2.02,1.65,3.66,3.67,3.66c0.47,0,0.92-0.09,1.34-0.26c0.32-0.12,0.61-0.28,0.88-0.48
		c0.29-0.23,0.54-0.48,0.74-0.77c0.45-0.6,0.71-1.35,0.71-2.15C18.56,43.09,16.97,41.46,15,41.41z M16.18,46.1
		c-0.2,0.27-0.5,0.47-0.84,0.56c-0.14,0.05-0.29,0.07-0.45,0.07c-0.92,0-1.67-0.74-1.67-1.66c0-0.55,0.27-1.05,0.69-1.34
		c0.27-0.21,0.6-0.32,0.95-0.33h0.03c0.92,0,1.67,0.75,1.67,1.67C16.56,45.46,16.43,45.82,16.18,46.1z M15,41.41
		c-0.04-0.01-0.07-0.01-0.11-0.01c-0.32,0-0.64,0.04-0.94,0.13c-0.33,0.08-0.64,0.21-0.93,0.38c-1.08,0.65-1.8,1.82-1.8,3.16
		c0,2.02,1.65,3.66,3.67,3.66c0.47,0,0.92-0.09,1.34-0.26c0.32-0.12,0.61-0.28,0.88-0.48c0.29-0.23,0.54-0.48,0.74-0.77
		c0.45-0.6,0.71-1.35,0.71-2.15C18.56,43.09,16.97,41.46,15,41.41z M16.18,46.1c-0.2,0.27-0.5,0.47-0.84,0.56
		c-0.14,0.05-0.29,0.07-0.45,0.07c-0.92,0-1.67-0.74-1.67-1.66c0-0.55,0.27-1.05,0.69-1.34c0.27-0.21,0.6-0.32,0.95-0.33h0.03
		c0.92,0,1.67,0.75,1.67,1.67C16.56,45.46,16.43,45.82,16.18,46.1z M7.58,35.58v18.98h48.56V35.58H7.58z M55.14,53.56H8.58V36.58
		h46.56V53.56z M15,41.41c-0.04-0.01-0.07-0.01-0.11-0.01c-0.32,0-0.64,0.04-0.94,0.13c-0.33,0.08-0.64,0.21-0.93,0.38
		c-1.08,0.65-1.8,1.82-1.8,3.16c0,2.02,1.65,3.66,3.67,3.66c0.47,0,0.92-0.09,1.34-0.26c0.32-0.12,0.61-0.28,0.88-0.48
		c0.29-0.23,0.54-0.48,0.74-0.77c0.45-0.6,0.71-1.35,0.71-2.15C18.56,43.09,16.97,41.46,15,41.41z M16.18,46.1
		c-0.2,0.27-0.5,0.47-0.84,0.56c-0.14,0.05-0.29,0.07-0.45,0.07c-0.92,0-1.67-0.74-1.67-1.66c0-0.55,0.27-1.05,0.69-1.34
		c0.27-0.21,0.6-0.32,0.95-0.33h0.03c0.92,0,1.67,0.75,1.67,1.67C16.56,45.46,16.43,45.82,16.18,46.1z M15,41.41
		c-0.04-0.01-0.07-0.01-0.11-0.01c-0.32,0-0.64,0.04-0.94,0.13c-0.33,0.08-0.64,0.21-0.93,0.38c-1.08,0.65-1.8,1.82-1.8,3.16
		c0,2.02,1.65,3.66,3.67,3.66c0.47,0,0.92-0.09,1.34-0.26c0.32-0.12,0.61-0.28,0.88-0.48c0.29-0.23,0.54-0.48,0.74-0.77
		c0.45-0.6,0.71-1.35,0.71-2.15C18.56,43.09,16.97,41.46,15,41.41z M16.18,46.1c-0.2,0.27-0.5,0.47-0.84,0.56
		c-0.14,0.05-0.29,0.07-0.45,0.07c-0.92,0-1.67-0.74-1.67-1.66c0-0.55,0.27-1.05,0.69-1.34c0.27-0.21,0.6-0.32,0.95-0.33h0.03
		c0.92,0,1.67,0.75,1.67,1.67C16.56,45.46,16.43,45.82,16.18,46.1z M15,41.41c-0.04-0.01-0.07-0.01-0.11-0.01
		c-0.32,0-0.64,0.04-0.94,0.13c-0.33,0.08-0.64,0.21-0.93,0.38c-1.08,0.65-1.8,1.82-1.8,3.16c0,2.02,1.65,3.66,3.67,3.66
		c0.47,0,0.92-0.09,1.34-0.26c0.32-0.12,0.61-0.28,0.88-0.48c0.29-0.23,0.54-0.48,0.74-0.77c0.45-0.6,0.71-1.35,0.71-2.15
		C18.56,43.09,16.97,41.46,15,41.41z M16.18,46.1c-0.2,0.27-0.5,0.47-0.84,0.56c-0.14,0.05-0.29,0.07-0.45,0.07
		c-0.92,0-1.67-0.74-1.67-1.66c0-0.55,0.27-1.05,0.69-1.34c0.27-0.21,0.6-0.32,0.95-0.33h0.03c0.92,0,1.67,0.75,1.67,1.67
		C16.56,45.46,16.43,45.82,16.18,46.1z M15,41.41c-0.04-0.01-0.07-0.01-0.11-0.01c-0.32,0-0.64,0.04-0.94,0.13
		c-0.33,0.08-0.64,0.21-0.93,0.38c-1.08,0.65-1.8,1.82-1.8,3.16c0,2.02,1.65,3.66,3.67,3.66c0.47,0,0.92-0.09,1.34-0.26
		c0.32-0.12,0.61-0.28,0.88-0.48c0.29-0.23,0.54-0.48,0.74-0.77c0.45-0.6,0.71-1.35,0.71-2.15C18.56,43.09,16.97,41.46,15,41.41z
		 M16.18,46.1c-0.2,0.27-0.5,0.47-0.84,0.56c-0.14,0.05-0.29,0.07-0.45,0.07c-0.92,0-1.67-0.74-1.67-1.66
		c0-0.55,0.27-1.05,0.69-1.34c0.27-0.21,0.6-0.32,0.95-0.33h0.03c0.92,0,1.67,0.75,1.67,1.67C16.56,45.46,16.43,45.82,16.18,46.1z
		 M15,41.41c-0.04-0.01-0.07-0.01-0.11-0.01c-0.32,0-0.64,0.04-0.94,0.13c-0.33,0.08-0.64,0.21-0.93,0.38
		c-1.08,0.65-1.8,1.82-1.8,3.16c0,2.02,1.65,3.66,3.67,3.66c0.47,0,0.92-0.09,1.34-0.26c0.32-0.12,0.61-0.28,0.88-0.48
		c0.29-0.23,0.54-0.48,0.74-0.77c0.45-0.6,0.71-1.35,0.71-2.15C18.56,43.09,16.97,41.46,15,41.41z M16.18,46.1
		c-0.2,0.27-0.5,0.47-0.84,0.56c-0.14,0.05-0.29,0.07-0.45,0.07c-0.92,0-1.67-0.74-1.67-1.66c0-0.55,0.27-1.05,0.69-1.34
		c0.27-0.21,0.6-0.32,0.95-0.33h0.03c0.92,0,1.67,0.75,1.67,1.67C16.56,45.46,16.43,45.82,16.18,46.1z M15,41.41
		c-0.04-0.01-0.07-0.01-0.11-0.01c-0.32,0-0.64,0.04-0.94,0.13c-0.33,0.08-0.64,0.21-0.93,0.38c-1.08,0.65-1.8,1.82-1.8,3.16
		c0,2.02,1.65,3.66,3.67,3.66c0.47,0,0.92-0.09,1.34-0.26c0.32-0.12,0.61-0.28,0.88-0.48c0.29-0.23,0.54-0.48,0.74-0.77
		c0.45-0.6,0.71-1.35,0.71-2.15C18.56,43.09,16.97,41.46,15,41.41z M16.18,46.1c-0.2,0.27-0.5,0.47-0.84,0.56
		c-0.14,0.05-0.29,0.07-0.45,0.07c-0.92,0-1.67-0.74-1.67-1.66c0-0.55,0.27-1.05,0.69-1.34c0.27-0.21,0.6-0.32,0.95-0.33h0.03
		c0.92,0,1.67,0.75,1.67,1.67C16.56,45.46,16.43,45.82,16.18,46.1z M15,41.41c-0.04-0.01-0.07-0.01-0.11-0.01
		c-0.32,0-0.64,0.04-0.94,0.13c-0.33,0.08-0.64,0.21-0.93,0.38c-1.08,0.65-1.8,1.82-1.8,3.16c0,2.02,1.65,3.66,3.67,3.66
		c0.47,0,0.92-0.09,1.34-0.26c0.32-0.12,0.61-0.28,0.88-0.48c0.29-0.23,0.54-0.48,0.74-0.77c0.45-0.6,0.71-1.35,0.71-2.15
		C18.56,43.09,16.97,41.46,15,41.41z M16.18,46.1c-0.2,0.27-0.5,0.47-0.84,0.56c-0.14,0.05-0.29,0.07-0.45,0.07
		c-0.92,0-1.67-0.74-1.67-1.66c0-0.55,0.27-1.05,0.69-1.34c0.27-0.21,0.6-0.32,0.95-0.33h0.03c0.92,0,1.67,0.75,1.67,1.67
		C16.56,45.46,16.43,45.82,16.18,46.1z M15,41.41c-0.04-0.01-0.07-0.01-0.11-0.01c-0.32,0-0.64,0.04-0.94,0.13
		c-0.33,0.08-0.64,0.21-0.93,0.38c-1.08,0.65-1.8,1.82-1.8,3.16c0,2.02,1.65,3.66,3.67,3.66c0.47,0,0.92-0.09,1.34-0.26
		c0.32-0.12,0.61-0.28,0.88-0.48c0.29-0.23,0.54-0.48,0.74-0.77c0.45-0.6,0.71-1.35,0.71-2.15C18.56,43.09,16.97,41.46,15,41.41z
		 M16.18,46.1c-0.2,0.27-0.5,0.47-0.84,0.56c-0.14,0.05-0.29,0.07-0.45,0.07c-0.92,0-1.67-0.74-1.67-1.66
		c0-0.55,0.27-1.05,0.69-1.34c0.27-0.21,0.6-0.32,0.95-0.33h0.03c0.92,0,1.67,0.75,1.67,1.67C16.56,45.46,16.43,45.82,16.18,46.1z
		 M15,41.41c-0.04-0.01-0.07-0.01-0.11-0.01c-0.32,0-0.64,0.04-0.94,0.13c-0.33,0.08-0.64,0.21-0.93,0.38
		c-1.08,0.65-1.8,1.82-1.8,3.16c0,2.02,1.65,3.66,3.67,3.66c0.47,0,0.92-0.09,1.34-0.26c0.32-0.12,0.61-0.28,0.88-0.48
		c0.29-0.23,0.54-0.48,0.74-0.77c0.45-0.6,0.71-1.35,0.71-2.15C18.56,43.09,16.97,41.46,15,41.41z M16.18,46.1
		c-0.2,0.27-0.5,0.47-0.84,0.56c-0.14,0.05-0.29,0.07-0.45,0.07c-0.92,0-1.67-0.74-1.67-1.66c0-0.55,0.27-1.05,0.69-1.34
		c0.27-0.21,0.6-0.32,0.95-0.33h0.03c0.92,0,1.67,0.75,1.67,1.67C16.56,45.46,16.43,45.82,16.18,46.1z M15,41.41l0.53,1.07l1.8,3.67
		c-0.16,0.36-0.39,0.67-0.68,0.91l-0.47-0.96c-0.2,0.27-0.5,0.47-0.84,0.56c-0.14,0.05-0.29,0.07-0.45,0.07
		c-0.92,0-1.67-0.74-1.67-1.66c0-0.55,0.27-1.05,0.69-1.34l-0.45-0.91l-0.44-0.91c-1.08,0.65-1.8,1.82-1.8,3.16
		c0,2.02,1.65,3.66,3.67,3.66c0.47,0,0.92-0.09,1.34-0.26c0.32-0.12,0.61-0.28,0.88-0.48c0.29-0.23,0.54-0.48,0.74-0.77
		c0.45-0.6,0.71-1.35,0.71-2.15C18.56,43.09,16.97,41.46,15,41.41z"/>
	<path class="st1" d="M56.14,34.58H7.58c-0.55,0-1,0.45-1,1v18.98c0,0.55,0.45,1,1,1h48.56c0.55,0,1-0.45,1-1V35.58
		C57.14,35.03,56.69,34.58,56.14,34.58z M55.14,53.56H8.58V36.58h46.56V53.56z"/>
</g>
<g>
	<path class="st0" d="M15.53,42.48c-0.2-0.05-0.42-0.08-0.64-0.08c-0.17,0-0.33,0.02-0.49,0.04c-0.34,0.07-0.66,0.2-0.94,0.38
		c-0.75,0.47-1.24,1.31-1.24,2.25c0,1.47,1.2,2.66,2.67,2.66c0.32,0,0.62-0.06,0.9-0.16c0.32-0.11,0.61-0.28,0.86-0.51
		c0.29-0.24,0.52-0.55,0.68-0.91c0.15-0.33,0.23-0.7,0.23-1.08C17.56,43.82,16.7,42.77,15.53,42.48z M15.34,46.66
		c-0.14,0.05-0.29,0.07-0.45,0.07c-0.92,0-1.67-0.74-1.67-1.66c0-0.55,0.27-1.05,0.69-1.34c0.27-0.21,0.6-0.32,0.95-0.33h0.03
		c0.92,0,1.67,0.75,1.67,1.67c0,0.39-0.13,0.75-0.38,1.03C15.98,46.37,15.68,46.57,15.34,46.66z"/>
	<path class="st1" d="M15,41.41c-0.04-0.01-0.07-0.01-0.11-0.01c-0.32,0-0.64,0.04-0.94,0.13c-0.33,0.08-0.64,0.21-0.93,0.38
		c-1.08,0.65-1.8,1.82-1.8,3.16c0,2.02,1.65,3.66,3.67,3.66c0.47,0,0.92-0.09,1.34-0.26c0.32-0.12,0.61-0.28,0.88-0.48
		c0.29-0.23,0.54-0.48,0.74-0.77c0.45-0.6,0.71-1.35,0.71-2.15C18.56,43.09,16.97,41.46,15,41.41z M16.18,46.1
		c-0.2,0.27-0.5,0.47-0.84,0.56c-0.14,0.05-0.29,0.07-0.45,0.07c-0.92,0-1.67-0.74-1.67-1.66c0-0.55,0.27-1.05,0.69-1.34
		c0.27-0.21,0.6-0.32,0.95-0.33h0.03c0.92,0,1.67,0.75,1.67,1.67C16.56,45.46,16.43,45.82,16.18,46.1z"/>
</g>
<g>
	<path class="st1" d="M26.57,17.25c0,0.03,0,0.07-0.01,0.1c-0.05,0.5-0.47,0.9-0.99,0.9H7.82c-0.08,0-0.16-0.01-0.24-0.03
		c-0.44-0.11-0.76-0.5-0.76-0.97c0-0.47,0.32-0.86,0.76-0.97c0.08-0.02,0.16-0.03,0.24-0.03h17.75c0.52,0,0.94,0.4,0.99,0.9
		C26.57,17.18,26.57,17.22,26.57,17.25z"/>
</g>
<g>
	<line class="st8" x1="31.96" y1="16.06" x2="44.51" y2="28.62"/>
	<path class="st1" d="M45.5,28.68c0,0.23-0.1,0.46-0.28,0.64c-0.18,0.18-0.41,0.28-0.65,0.29c-0.02,0.01-0.04,0.01-0.06,0.01
		c-0.25,0-0.51-0.1-0.71-0.3l-0.17-0.17L31.62,17.14l-0.37-0.37c-0.12-0.12-0.2-0.26-0.24-0.42c-0.11-0.34-0.03-0.72,0.24-0.99
		s0.65-0.35,0.99-0.25c0.16,0.04,0.31,0.12,0.43,0.25l12.55,12.55C45.43,28.12,45.53,28.4,45.5,28.68z"/>
</g>
<g>
	<line class="st8" x1="23.25" y1="24.55" x2="34.02" y2="35.44"/>
	<path class="st1" d="M35.01,35.58c-0.03,0.21-0.13,0.41-0.29,0.57c-0.19,0.19-0.45,0.29-0.7,0.29c-0.26,0-0.52-0.1-0.71-0.3
		l-0.55-0.56l-0.99-1l-4.21-4.25l-1-1.02l-1-1.01l-2.54-2.56l-0.48-0.49c-0.08-0.08-0.14-0.16-0.19-0.25
		c-0.18-0.38-0.11-0.85,0.2-1.16s0.77-0.37,1.14-0.18c0.1,0.04,0.19,0.11,0.27,0.19l0.47,0.48l1.13,1.14l2,2.02l7.02,7.09l0.15,0.15
		C34.96,34.97,35.05,35.28,35.01,35.58z"/>
</g>
<g>
	<path class="st1" d="M19.42,28.62c0,0.55-0.45,1-1,1H7.58c-0.55,0-1-0.45-1-1c0-0.56,0.45-1,1-1h10.84c0.36,0,0.67,0.18,0.84,0.47
		C19.36,28.24,19.42,28.42,19.42,28.62z"/>
</g>
</svg>
