<?xml version="1.0" encoding="utf-8"?>
<!-- Generator: Adobe Illustrator 26.2.1, SVG Export Plug-In . SVG Version: 6.00 Build 0)  -->
<svg version="1.1" id="Layer_1" xmlns="http://www.w3.org/2000/svg" xmlns:xlink="http://www.w3.org/1999/xlink" x="0px" y="0px"
	 viewBox="0 0 60 60" style="enable-background:new 0 0 60 60;" xml:space="preserve">
<style type="text/css">
	.st0{fill:#EEC233;stroke:#EEC233;stroke-width:0.5;stroke-miterlimit:10;}
	.st1{fill:#EEC233;}
	.st2{fill:#FFFFFF;stroke:#EEC233;stroke-width:0.5;stroke-miterlimit:10;}
	.st3{fill:#FFFFFF;stroke:#EEC233;stroke-width:2;stroke-linecap:round;stroke-linejoin:round;stroke-miterlimit:10;}
	.st4{fill:none;stroke:#EEC233;stroke-width:2;stroke-linecap:round;stroke-linejoin:round;stroke-miterlimit:10;}
	.st5{fill:#FDFBFC;stroke:#EEC233;stroke-width:2;stroke-linecap:round;stroke-linejoin:round;stroke-miterlimit:10;}
	.st6{fill:#D75B8A;}
	.st7{fill:none;}
	.st8{fill:none;stroke:#D75B8A;stroke-width:3;stroke-linecap:round;stroke-linejoin:round;stroke-miterlimit:10;}
</style>
<path class="st8" d="M14.51,5.69c4.01,4.14,8.15,8.16,12.22,12.25c0.29,0.29,0.31,0.43,0.01,0.73c-2.12,2.13-4.28,4.21-6.42,6.3
	c-0.3,0.28-0.34,0.47-0.09,0.82c2.36,3.2,4.98,6.2,7.84,8.96c1.92,1.85,4.1,3.39,6.25,4.94c0.25,0.2,0.41,0.21,0.67-0.05
	c2.13-2.16,4.29-4.3,6.42-6.45c0.27-0.27,0.4-0.25,0.66,0.01c3.99,4.01,7.99,8.01,12.01,12.01c0.32,0.32,0.27,0.47-0.01,0.79
	c-1.26,1.42-2.69,2.66-3.97,4.06c-1.81,2.03-3.92,4.16-6.83,4.21c-12.62,0.95-27.8-15.22-33.86-25.29
	c-2.48-4.11-4.07-8.36-3.63-13.23c0.22-1.65,1.06-2.96,2.2-4.12c2.05-1.97,4.03-4.06,6.15-5.93C14.25,5.69,14.38,5.69,14.51,5.69z"
	/>
</svg>
