<?xml version="1.0" encoding="utf-8"?>
<!-- Generator: Adobe Illustrator 26.2.1, SVG Export Plug-In . SVG Version: 6.00 Build 0)  -->
<svg version="1.1" id="Layer_1" xmlns="http://www.w3.org/2000/svg" xmlns:xlink="http://www.w3.org/1999/xlink" x="0px" y="0px"
	 viewBox="0 0 60 60" style="enable-background:new 0 0 60 60;" xml:space="preserve">
<style type="text/css">
	.st0{fill:#EEC233;stroke:#EEC233;stroke-width:0.5;stroke-miterlimit:10;}
	.st1{fill:#EEC233;}
	.st2{fill:#FFFFFF;stroke:#EEC233;stroke-width:0.5;stroke-miterlimit:10;}
	.st3{fill:#FFFFFF;stroke:#EEC233;stroke-width:2;stroke-linecap:round;stroke-linejoin:round;stroke-miterlimit:10;}
	.st4{fill:none;stroke:#EEC233;stroke-width:2;stroke-linecap:round;stroke-linejoin:round;stroke-miterlimit:10;}
	.st5{fill:#FDFBFC;stroke:#EEC233;stroke-width:2;stroke-linecap:round;stroke-linejoin:round;stroke-miterlimit:10;}
	.st6{fill:#D75B8A;}
	.st7{fill:none;}
	.st8{fill:none;stroke:#D75B8A;stroke-width:2;stroke-linecap:round;stroke-linejoin:round;stroke-miterlimit:10;}
</style>
<path class="st6" d="M55.05,8.64c-0.49-0.76-1.32-1.08-2.15-0.77c-1.85,0.7-3.69,1.43-5.53,2.15c-2.5,0.98-4.99,1.97-7.49,2.94
	c-2.85,1.11-5.71,2.22-8.57,3.33c-2.78,1.08-5.56,2.17-8.34,3.25c-2.46,0.96-4.91,1.91-7.36,2.86c-2.38,0.93-4.76,1.84-7.13,2.8
	C7.25,25.72,5.86,25.95,4.88,27v1.86c0.34,0.18,0.5,0.54,0.85,0.71c4.04,2.02,8.07,4.04,12.11,6.05c0.67,0.34,1.31,0.32,1.97-0.13
	c0.66-0.45,1.38-0.8,2.08-1.21c1.73-1.01,3.44-2.03,5.18-3.01c0.39-0.22,0.76-0.52,1.36-0.67c-0.77,0.69-1.43,1.29-2.1,1.88
	c-0.7,0.62-1.43,1.2-2.12,1.84c-0.56,0.52-1.18,1.01-1.17,1.9c0.01,4.68,0.01,9.35,0,14.03c0,0.87,0.51,1.42,1.19,1.8
	c0.73,0.4,1.52,0.13,2.14-0.69c1.42-1.87,2.82-3.77,4.23-5.66c0.27-0.36,0.49-0.86,0.86-1.02c0.43-0.19,0.78,0.37,1.2,0.51
	c0.06,0.02,0.11,0.05,0.17,0.09c2.01,1.15,4.02,2.31,6.04,3.47c1.76,1.01,3.55,1.97,5.28,3.05c1.54,0.97,2.78-0.07,3.04-1.31
	c0.28-1.36,0.57-2.72,0.84-4.08c0.38-1.85,0.75-3.7,1.12-5.54c0.38-1.87,0.74-3.73,1.12-5.59c0.38-1.9,0.76-3.79,1.14-5.68
	c0.37-1.86,0.74-3.73,1.11-5.6c0.41-2.05,0.83-4.1,1.24-6.15c0.37-1.85,0.71-3.7,1.14-5.54c0.26-1.14,0.23-2.28,0.23-3.43
	C55.12,8.79,55.09,8.71,55.05,8.64z M50.65,14.74c-0.34,1.71-0.69,3.41-1.03,5.12c-0.37,1.85-0.75,3.7-1.12,5.54
	c-0.38,1.9-0.76,3.79-1.14,5.69c-0.37,1.86-0.74,3.73-1.12,5.59c-0.38,1.88-0.76,3.76-1.14,5.64c-0.33,1.66-0.66,3.32-0.98,4.99
	c-0.06,0.35-0.24,0.16-0.38,0.09c-0.73-0.4-1.45-0.82-2.17-1.23c-1.35-0.77-2.7-1.54-4.04-2.31c-1.79-1.02-3.59-2.03-5.37-3.09
	c-1.03-0.61-2.01-0.42-2.74,0.59c-0.81,1.12-1.64,2.22-2.45,3.33c-0.07,0.09-0.1,0.2-0.15,0.31c-0.05-0.04-0.11-0.07-0.16-0.11
	v-0.96c0-2.22,0.01-4.45-0.01-6.67c0-0.35,0.13-0.55,0.4-0.76c0.67-0.54,1.3-1.12,1.94-1.69c1.39-1.23,2.79-2.46,4.18-3.69
	c1-0.89,1.99-1.81,3-2.7c1.29-1.13,2.58-2.25,3.87-3.38c1-0.88,1.97-1.78,2.96-2.66c0.43-0.39,0.87-0.77,1.33-1.13
	c0.67-0.53,0.99-1.4,0.7-2.04c-0.36-0.79-1.14-1.48-2.09-1.23c-0.59,0.15-1.07,0.56-1.6,0.86c-1.52,0.88-3.04,1.77-4.56,2.65
	c-1.52,0.88-3.04,1.76-4.57,2.65c-1.52,0.88-3.04,1.77-4.56,2.65c-1.69,0.98-3.37,1.97-5.06,2.95c-1.26,0.73-2.52,1.47-3.77,2.2
	c-0.11,0.07-0.2,0.05-0.32-0.01c-2.49-1.25-4.99-2.5-7.6-3.8c13.44-5.24,26.78-10.45,40.2-15.68C50.95,13.27,50.8,14,50.65,14.74z"
	/>
</svg>
