<?xml version="1.0" encoding="utf-8"?>
<!-- Generator: Adobe Illustrator 26.2.1, SVG Export Plug-In . SVG Version: 6.00 Build 0)  -->
<svg version="1.1" id="Layer_1" xmlns="http://www.w3.org/2000/svg" xmlns:xlink="http://www.w3.org/1999/xlink" x="0px" y="0px"
	 viewBox="0 0 60 60" style="enable-background:new 0 0 60 60;" xml:space="preserve">
<style type="text/css">
	.st0{fill:#EEC233;stroke:#EEC233;stroke-width:0.5;stroke-miterlimit:10;}
	.st1{fill:#EEC233;}
	.st2{fill:#FFFFFF;stroke:#EEC233;stroke-width:0.5;stroke-miterlimit:10;}
	.st3{fill:#FFFFFF;stroke:#EEC233;stroke-width:2;stroke-linecap:round;stroke-linejoin:round;stroke-miterlimit:10;}
	.st4{fill:none;stroke:#EEC233;stroke-width:2;stroke-linecap:round;stroke-linejoin:round;stroke-miterlimit:10;}
	.st5{fill:#FDFBFC;stroke:#EEC233;stroke-width:2;stroke-linecap:round;stroke-linejoin:round;stroke-miterlimit:10;}
	.st6{fill:#D75B8A;}
	.st7{fill:none;}
	.st8{fill:none;stroke:#D75B8A;stroke-width:3;stroke-linecap:round;stroke-linejoin:round;stroke-miterlimit:10;}
</style>
<path class="st6" d="M55.31,40.97c-0.53-1.05-1.16-2.03-1.88-2.96c-0.89-1.16-1.85-2.29-2.85-3.37c-1.01-1.13-2.06-2.23-3.12-3.32
	c-0.27-0.28-0.25-0.47-0.04-0.75c0.52-0.71,1.01-1.43,1.5-2.17c1.11-1.65,2.2-3.3,3.17-5.03c0.98-1.71,2.01-3.43,2.53-5.36
	c0.19-0.74,0.29-1.47-0.04-2.2c-0.64-1.4-1.82-1.99-3.27-2.02c-1.96-0.02-3.93-0.13-5.91,0.08c-1.19,0.13-2.06,0.72-2.78,1.63
	c-0.55,0.71-0.8,1.56-1.17,2.35c-1.26,2.66-2.67,5.25-4.41,7.64c-0.33,0.46-0.73,0.88-1.17,1.42c0-3.1-0.01-6.06,0.01-9.02
	c0-0.6-0.06-1.21-0.22-1.79c-0.32-1.25-1.52-2.16-2.55-2.25c-0.93-0.08-1.85-0.08-2.78-0.06c-2.17,0.03-4.33-0.15-6.5,0.11
	c-1.24,0.14-2.03,0.97-2.49,2.05c-0.42,0.98-0.15,1.96,0.5,2.77c1.08,1.34,1.49,2.81,1.39,4.52c-0.08,1.48-0.16,2.96-0.13,4.46
	c0.01,0.4,0.16,0.79,0.09,1.27c-1.21-1.61-2.18-3.26-3.06-4.95c-1.24-2.35-2.16-4.83-3.1-7.3c-0.7-1.85-2.05-2.94-4.14-2.94
	c-1.64,0.01-3.29,0.01-4.93,0c-0.41,0-0.81,0.1-1.21,0.17c-1.03,0.22-1.7,0.91-2.26,1.72v3.49c0.02,0.01,0.06,0.03,0.08,0.05
	c0.69,2.73,1.77,5.31,2.99,7.85c1.18,2.44,2.55,4.75,4.09,6.99c1.03,1.49,2.16,2.92,3.38,4.25c1.81,1.96,3.77,3.76,6.06,5.16
	c1.34,0.83,2.73,1.54,4.23,1.98c1.94,0.57,3.92,0.97,5.98,0.74c0.77-0.09,1.52-0.16,2.24-0.42c1.29-0.45,2.44-1.71,2.36-3.26
	c-0.05-1.15-0.12-2.3-0.02-3.45c0.04-0.41,0.01-0.82,0.01-1.24c0.25-0.01,0.42,0.12,0.57,0.22c0.91,0.59,1.74,1.28,2.52,2.02
	c1.5,1.4,2.76,3.03,4.19,4.48c1.14,1.17,2.49,1.79,4.15,1.74c1.48-0.04,2.96,0.01,4.44-0.01c0.61-0.01,1.23-0.09,1.82-0.29
	c1.18-0.41,1.93-1.46,1.93-2.69c0-0.49-0.01-0.97,0.01-1.44C55.53,41.51,55.45,41.24,55.31,40.97z M46.56,42.46
	c-0.31,0-0.58-0.19-0.81-0.42c-0.78-0.78-1.48-1.64-2.24-2.43c-1.03-1.08-2.07-2.16-3.19-3.14c-0.96-0.83-1.93-1.62-3.08-2.15
	c-0.97-0.45-1.97-0.58-3.04-0.25c-0.88,0.28-1.8,1.4-1.92,2.4c-0.18,1.77-0.06,3.54-0.06,5.3c0,0.53-0.23,0.65-0.64,0.68
	c-3.13,0.2-6.02-0.53-8.69-2.18c-1.67-1.02-3.19-2.24-4.54-3.65c-1.35-1.41-2.57-2.93-3.65-4.54c-1.21-1.78-2.3-3.62-3.28-5.54
	c-1.03-2.03-1.95-4.1-2.71-6.24c-0.3-0.88-0.61-1.78-0.71-2.76h4.38c1.09,0,1.09,0,1.44,1.02c0.63,1.82,1.38,3.6,2.21,5.35
	c0.94,1.95,1.95,3.86,3.19,5.64c0.92,1.33,1.93,2.57,3.23,3.51c1.93,1.41,3.91,0.24,4.36-1.71c0.11-0.46,0.1-0.92,0.1-1.38
	c0-2.34-0.05-4.68,0.01-7.03c0.05-1.93-0.26-3.73-1.4-5.31c0.11-0.13,0.23-0.09,0.33-0.09c1.96,0,3.92,0.01,5.89-0.01
	c0.38,0,0.46,0.1,0.46,0.46c-0.02,3.44-0.03,6.88,0,10.32c0.01,1.12,0.42,2.09,1.4,2.76c0.79,0.53,1.6,0.37,2.38,0.05
	c0.7-0.28,1.29-0.74,1.85-1.25c2.02-1.81,3.43-4.09,4.79-6.39c1.07-1.81,1.99-3.69,2.81-5.63c0.1-0.25,0.24-0.32,0.51-0.32
	c1.53,0.02,3.06,0.01,4.58,0c0.32,0,0.43,0.02,0.27,0.39c-0.92,2.11-2.1,4.07-3.33,6.02c-1.08,1.71-2.24,3.38-3.35,5.08
	c-1.12,1.72-0.88,2.95,0.53,4.51c0.88,0.98,1.86,1.88,2.74,2.87c1.38,1.55,2.8,3.07,3.93,4.82c0.24,0.37,0.41,0.78,0.67,1.25
	C50.1,42.47,48.33,42.48,46.56,42.46z"/>
</svg>
