<?xml version="1.0" encoding="utf-8"?>
<!-- Generator: Adobe Illustrator 26.2.1, SVG Export Plug-In . SVG Version: 6.00 Build 0)  -->
<svg version="1.1" id="Layer_1" xmlns="http://www.w3.org/2000/svg" xmlns:xlink="http://www.w3.org/1999/xlink" x="0px" y="0px"
	 viewBox="0 0 60 60" style="enable-background:new 0 0 60 60;" xml:space="preserve">
<style type="text/css">
	.st0{fill:#EEC233;stroke:#EEC233;stroke-width:0.5;stroke-miterlimit:10;}
	.st1{fill:#EEC233;}
	.st2{fill:#FFFFFF;stroke:#EEC233;stroke-width:0.5;stroke-miterlimit:10;}
	.st3{fill:#FFFFFF;stroke:#EEC233;stroke-width:2;stroke-linecap:round;stroke-linejoin:round;stroke-miterlimit:10;}
	.st4{fill:none;stroke:#EEC233;stroke-width:2;stroke-linecap:round;stroke-linejoin:round;stroke-miterlimit:10;}
	.st5{fill:#FDFBFC;stroke:#EEC233;stroke-width:2;stroke-linecap:round;stroke-linejoin:round;stroke-miterlimit:10;}
	.st6{fill:#D75B8A;}
	.st7{fill:none;}
	.st8{fill:none;stroke:#D75B8A;stroke-width:3;stroke-linecap:round;stroke-linejoin:round;stroke-miterlimit:10;}
</style>
<g>
	<path class="st6" d="M43.35,35.36c-0.06-0.57-0.32-1.09-0.79-1.46c-0.49-0.38-1.03-0.69-1.59-0.98c-1.25-0.65-2.56-1.19-3.87-1.7
		c-0.88-0.34-1.79-0.41-2.57,0.29c-0.67,0.6-1.3,1.27-1.8,2.02c-0.16,0.25-0.28,0.2-0.46,0.1c-0.41-0.22-0.81-0.45-1.22-0.66
		c-1.95-0.99-3.51-2.4-4.69-4.23c-0.22-0.35-0.27-0.63,0.09-0.93c0.23-0.19,0.42-0.43,0.59-0.67c0.72-1,1.11-2.03,0.5-3.27
		c-0.64-1.29-1.16-2.63-1.65-3.98c-0.33-0.9-0.91-1.62-1.83-1.98c-0.62-0.24-1.28-0.29-1.96-0.29c-0.25,0.03-0.52-0.02-0.79,0.04
		c-1.1,0.27-1.94,0.9-2.67,1.75c-1.55,1.8-2.18,3.91-1.96,6.23c0.18,1.91,0.98,3.63,2,5.24c1.17,1.83,2.59,3.46,4.2,4.95
		c1.13,1.04,2.29,2.03,3.56,2.87c2.72,1.8,5.57,3.3,8.91,3.62c1.08,0.1,2.12,0.01,3.14-0.28c1.47-0.42,2.63-1.29,3.58-2.48
		C43.04,38.33,43.5,36.94,43.35,35.36z M39.84,36.77c-0.35,1.22-1.24,1.81-2.4,2.08c-1.24,0.29-2.45,0.12-3.65-0.22
		c-2.4-0.67-4.52-1.88-6.53-3.32c-0.97-0.69-1.87-1.46-2.7-2.29c-1.14-1.14-2.19-2.37-3.01-3.77c-0.51-0.88-0.98-1.77-1.26-2.75
		c-0.16-0.55-0.32-1.12-0.29-1.52c0.01-1.44,0.45-2.55,1.18-3.54c0.28-0.37,0.93-0.55,1.35-0.41c0.24,0.09,0.32,0.31,0.39,0.51
		c0.38,1.14,0.82,2.26,1.43,3.3c0.1,0.18,0.07,0.37-0.08,0.54c-0.33,0.37-0.65,0.74-0.96,1.13c-0.9,1.12-1.03,2.08-0.15,3.42
		c0.93,1.41,1.98,2.72,3.23,3.85c0.92,0.83,1.95,1.52,3.03,2.12c0.68,0.37,1.37,0.72,2.06,1.07c1.16,0.58,2.06,0.43,2.97-0.47
		c0.5-0.5,0.96-1.03,1.36-1.62c0.21-0.31,0.44-0.41,0.81-0.23c0.95,0.46,1.91,0.89,2.88,1.3C39.93,36.13,39.95,36.39,39.84,36.77z"
		/>
	<path class="st6" d="M53.18,24.81c-0.28-1.86-0.94-3.61-1.75-5.29c-1.23-2.56-2.89-4.82-4.97-6.78c-1.67-1.57-3.49-2.92-5.52-3.98
		c-2.04-1.06-4.14-1.94-6.48-2.09h-7.84c-0.7,0.13-1.41,0.12-2.1,0.31c-2.42,0.67-4.68,1.67-6.79,3.02
		c-2.46,1.56-4.55,3.52-6.38,5.77c-1.97,2.42-3.37,5.13-4.24,8.13c-0.3,1.01-0.34,2.05-0.46,3.08v5.55c0.08,0.09,0.03,0.2,0.04,0.3
		c0.07,0.72,0.09,1.45,0.26,2.16c0.43,1.79,1.07,3.51,1.95,5.12c0.31,0.55,0.3,1.06,0.15,1.64c-0.8,3.08-1.87,6.1-2.4,9.26v1.55
		C6.9,53.27,7,53.33,7.78,53.33c0.53,0,1.06,0.01,1.59,0c0.56-0.01,1.12-0.06,1.66-0.2c2.47-0.63,4.95-1.25,7.4-1.94
		c0.82-0.23,1.51-0.12,2.26,0.23c1.96,0.92,4.04,1.49,6.2,1.71c1.64,0.17,3.3,0.19,4.95,0.15c0.86-0.02,1.72-0.06,2.58-0.21
		c2.31-0.4,4.49-1.17,6.56-2.25c2.85-1.48,5.21-3.55,7.25-5.99c1.49-1.78,2.66-3.76,3.55-5.91c0.69-1.67,1.29-3.37,1.45-5.19
		c0.04-0.44,0.03-0.87,0.11-1.3v-5.92C53.25,25.95,53.27,25.37,53.18,24.81z M48.43,38.17c-0.9,1.98-2.07,3.78-3.52,5.4
		c-1.39,1.54-3.01,2.76-4.81,3.77c-2.05,1.16-4.25,1.88-6.58,2.23c-1.07,0.16-2.15,0.28-3.23,0.24c-3.07-0.11-6.08-0.59-8.87-1.99
		c-0.29-0.15-0.59-0.27-0.89-0.41c-0.6-0.29-1.2-0.19-1.81-0.02c-2.16,0.58-4.33,1.13-6.5,1.7c-0.42,0.11-0.82,0.25-1.24,0.35
		c-0.2,0.05-0.36,0.06-0.26-0.27c0.77-2.75,1.51-5.51,2.28-8.26c0.12-0.43-0.04-0.8-0.25-1.14c-1.24-2.09-2.07-4.34-2.51-6.72
		c-0.26-1.37-0.39-2.77-0.28-4.17c0.17-2.39,0.68-4.69,1.7-6.88c0.88-1.89,1.99-3.61,3.37-5.18c1.47-1.67,3.19-3.01,5.1-4.14
		c1.79-1.06,3.69-1.84,5.71-2.33c1.1-0.27,2.22-0.45,3.36-0.51c0.52-0.03,1.05-0.1,1.58-0.07c1.84,0.08,3.64,0.33,5.41,0.88
		c1.96,0.61,3.78,1.5,5.47,2.66c0.88,0.6,1.75,1.22,2.48,1.98c0.88,0.91,1.67,1.91,2.4,2.95c1.32,1.89,2.35,3.92,3.01,6.13
		c0.37,1.24,0.62,2.5,0.73,3.8c0.04,0.51,0.07,1.02,0.08,1.53C50.31,32.66,49.66,35.47,48.43,38.17z"/>
	<path class="st6" d="M43.35,35.36c-0.06-0.57-0.32-1.09-0.79-1.46c-0.49-0.38-1.03-0.69-1.59-0.98c-1.25-0.65-2.56-1.19-3.87-1.7
		c-0.88-0.34-1.79-0.41-2.57,0.29c-0.67,0.6-1.3,1.27-1.8,2.02c-0.16,0.25-0.28,0.2-0.46,0.1c-0.41-0.22-0.81-0.45-1.22-0.66
		c-1.95-0.99-3.51-2.4-4.69-4.23c-0.22-0.35-0.27-0.63,0.09-0.93c0.23-0.19,0.42-0.43,0.59-0.67c0.72-1,1.11-2.03,0.5-3.27
		c-0.64-1.29-1.16-2.63-1.65-3.98c-0.33-0.9-0.91-1.62-1.83-1.98c-0.62-0.24-1.28-0.29-1.96-0.29c-0.25,0.03-0.52-0.02-0.79,0.04
		c-1.1,0.27-1.94,0.9-2.67,1.75c-1.55,1.8-2.18,3.91-1.96,6.23c0.18,1.91,0.98,3.63,2,5.24c1.17,1.83,2.59,3.46,4.2,4.95
		c1.13,1.04,2.29,2.03,3.56,2.87c2.72,1.8,5.57,3.3,8.91,3.62c1.08,0.1,2.12,0.01,3.14-0.28c1.47-0.42,2.63-1.29,3.58-2.48
		C43.04,38.33,43.5,36.94,43.35,35.36z M39.84,36.77c-0.35,1.22-1.24,1.81-2.4,2.08c-1.24,0.29-2.45,0.12-3.65-0.22
		c-2.4-0.67-4.52-1.88-6.53-3.32c-0.97-0.69-1.87-1.46-2.7-2.29c-1.14-1.14-2.19-2.37-3.01-3.77c-0.51-0.88-0.98-1.77-1.26-2.75
		c-0.16-0.55-0.32-1.12-0.29-1.52c0.01-1.44,0.45-2.55,1.18-3.54c0.28-0.37,0.93-0.55,1.35-0.41c0.24,0.09,0.32,0.31,0.39,0.51
		c0.38,1.14,0.82,2.26,1.43,3.3c0.1,0.18,0.07,0.37-0.08,0.54c-0.33,0.37-0.65,0.74-0.96,1.13c-0.9,1.12-1.03,2.08-0.15,3.42
		c0.93,1.41,1.98,2.72,3.23,3.85c0.92,0.83,1.95,1.52,3.03,2.12c0.68,0.37,1.37,0.72,2.06,1.07c1.16,0.58,2.06,0.43,2.97-0.47
		c0.5-0.5,0.96-1.03,1.36-1.62c0.21-0.31,0.44-0.41,0.81-0.23c0.95,0.46,1.91,0.89,2.88,1.3C39.93,36.13,39.95,36.39,39.84,36.77z"
		/>
	<path class="st6" d="M43.35,35.36c-0.06-0.57-0.32-1.09-0.79-1.46c-0.49-0.38-1.03-0.69-1.59-0.98c-1.25-0.65-2.56-1.19-3.87-1.7
		c-0.88-0.34-1.79-0.41-2.57,0.29c-0.67,0.6-1.3,1.27-1.8,2.02c-0.16,0.25-0.28,0.2-0.46,0.1c-0.41-0.22-0.81-0.45-1.22-0.66
		c-1.95-0.99-3.51-2.4-4.69-4.23c-0.22-0.35-0.27-0.63,0.09-0.93c0.23-0.19,0.42-0.43,0.59-0.67c0.72-1,1.11-2.03,0.5-3.27
		c-0.64-1.29-1.16-2.63-1.65-3.98c-0.33-0.9-0.91-1.62-1.83-1.98c-0.62-0.24-1.28-0.29-1.96-0.29c-0.25,0.03-0.52-0.02-0.79,0.04
		c-1.1,0.27-1.94,0.9-2.67,1.75c-1.55,1.8-2.18,3.91-1.96,6.23c0.18,1.91,0.98,3.63,2,5.24c1.17,1.83,2.59,3.46,4.2,4.95
		c1.13,1.04,2.29,2.03,3.56,2.87c2.72,1.8,5.57,3.3,8.91,3.62c1.08,0.1,2.12,0.01,3.14-0.28c1.47-0.42,2.63-1.29,3.58-2.48
		C43.04,38.33,43.5,36.94,43.35,35.36z M39.84,36.77c-0.35,1.22-1.24,1.81-2.4,2.08c-1.24,0.29-2.45,0.12-3.65-0.22
		c-2.4-0.67-4.52-1.88-6.53-3.32c-0.97-0.69-1.87-1.46-2.7-2.29c-1.14-1.14-2.19-2.37-3.01-3.77c-0.51-0.88-0.98-1.77-1.26-2.75
		c-0.16-0.55-0.32-1.12-0.29-1.52c0.01-1.44,0.45-2.55,1.18-3.54c0.28-0.37,0.93-0.55,1.35-0.41c0.24,0.09,0.32,0.31,0.39,0.51
		c0.38,1.14,0.82,2.26,1.43,3.3c0.1,0.18,0.07,0.37-0.08,0.54c-0.33,0.37-0.65,0.74-0.96,1.13c-0.9,1.12-1.03,2.08-0.15,3.42
		c0.93,1.41,1.98,2.72,3.23,3.85c0.92,0.83,1.95,1.52,3.03,2.12c0.68,0.37,1.37,0.72,2.06,1.07c1.16,0.58,2.06,0.43,2.97-0.47
		c0.5-0.5,0.96-1.03,1.36-1.62c0.21-0.31,0.44-0.41,0.81-0.23c0.95,0.46,1.91,0.89,2.88,1.3C39.93,36.13,39.95,36.39,39.84,36.77z"
		/>
</g>
</svg>
